0
SECTION
2
HEADER
9
$INSUNITS
70
4
0
ENDSEC
0
SECTION
2
TABLES
0
TABLE
2
LTYPE
0
LTYPE
72
65
70
64
2
CONTINUOUS
3
______
73
0
40
0
0
ENDTAB
0
TABLE
2
LAYER
0
ENDTAB
0
ENDSEC
0
SECTION
2
ENTITIES
0
LINE
8
0
10
7.1815046
20
-9.1811966
11
7.1815046
21
47.3188034
0
LINE
8
0
10
10.1815046
20
50.3188034
11
26.9021842
21
50.3188034
0
LINE
8
0
10
30.6815046
20
-9.0199995
11
30.6815046
21
-9.1811966
0
LINE
8
0
10
10.1815046
20
-12.1811966
11
27.6815046
21
-12.1811966
0
LINE
8
0
10
33.8385126
20
-6.0241109
11
59.0034793
21
-7.342951
0
LINE
8
0
10
33.0971
20
56.8809008
11
49.0751725
21
56.0435255
0
LINE
8
0
10
29.8980728
20
53.1617954
11
29.9442034
21
54.0420202
0
LINE
8
0
10
49.0751726
20
56.0435254
11
69.5970095
21
54.9680215
0
LINE
8
0
10
69.5970095
20
54.9680215
11
69.5969099
21
54.9661213
0
LINE
8
0
10
69.5969099
20
54.9661213
11
78.6516357
21
54.1739354
0
LINE
8
0
10
85.4157929
20
60.3197845
11
114.628701
21
56.214178
0
LINE
8
0
10
117.1819859
20
52.8258545
11
116.7819397
21
49.9793785
0
LINE
8
0
10
81.883907
20
56.7450002
11
82.0274694
21
57.7664996
0
LINE
8
0
10
116.7819397
20
49.9793785
11
144.5566446
21
44.5805227
0
LINE
8
0
10
136.1367523
20
-14.4585986
11
146.9290992
21
41.0632142
0
LINE
8
0
10
60.8496218
20
-21.8638638
11
61.8350554
21
-10.6003067
0
LINE
8
0
10
82.3456757
20
-22.8476785
11
82.2678078
21
-23.737712
0
LINE
8
0
10
63.5767388
20
-25.113915
11
79.0177566
21
-26.464829
0
LINE
8
0
10
85.7517791
20
-20.1383414
11
98.7164084
21
-21.9604012
0
LINE
8
0
10
98.8713161
20
-21.9863238
11
112.1041453
21
-24.5585252
0
LINE
8
0
10
114.094982
20
-30.0390881
11
114.4765999
21
-28.0758338
0
LINE
8
0
10
136.1367523
20
-14.4585986
11
136.1721857
21
-14.4654862
0
LINE
8
0
10
132.4514103
20
-33.6072163
11
136.1721857
21
-14.4654862
0
LINE
8
0
10
116.4674366
20
-33.5563967
11
128.9341017
21
-35.9796709
0
ARC
8
0
10
10.1815046
20
47.3188034
40
3
50
90
51
180
0
ARC
8
0
10
26.9021842
20
53.3188034
40
3
50
270
51
356.9999974
0
ARC
8
0
10
32.940092
20
53.8850122
40
3
50
86.9999974
51
176.9999974
0
ARC
8
0
10
78.9131028
20
57.1625195
40
3
50
265.0000024
51
352.0000003
0
ARC
8
0
10
84.9982736
20
57.3489803
40
3
50
82.0000003
51
172.0000003
0
ARC
8
0
10
114.2111817
20
53.2433738
40
3
50
352.0000003
51
82.0000003
0
ARC
8
0
10
143.9842176
20
41.6356412
40
3
50
348.9999999
51
78.9999999
0
ARC
8
0
10
129.5065287
20
-33.0347893
40
3
50
258.9999999
51
348.9999999
0
ARC
8
0
10
117.0398636
20
-30.6115151
40
3
50
168.9999999
51
258.9999999
0
ARC
8
0
10
111.5317183
20
-27.5034068
40
3
50
348.9999999
51
78.9999999
0
ARC
8
0
10
98.2988891
20
-24.9312054
40
3
50
78.9999999
51
82.0000003
0
ARC
8
0
10
85.3342598
20
-23.1091456
40
3
50
82.0000003
51
175.0000024
0
ARC
8
0
10
79.2792237
20
-23.4762449
40
3
50
265.0000024
51
355.0000024
0
ARC
8
0
10
63.8382059
20
-22.1253309
40
3
50
175.0000024
51
265.0000024
0
ARC
8
0
10
58.8464713
20
-10.3388396
40
3
50
355.0000024
51
86.9999974
0
ARC
8
0
10
33.6815046
20
-9.0199995
40
3
50
86.9999974
51
180
0
ARC
8
0
10
27.6815046
20
-9.1811966
40
3
50
270
51
0
0
ARC
8
0
10
10.1815046
20
-9.1811966
40
3
50
180
51
270
0
ENDSEC
0
EOF