0
SECTION
2
HEADER
9
$INSUNITS
70
4
0
ENDSEC
0
SECTION
2
TABLES
0
TABLE
2
LTYPE
0
LTYPE
72
65
70
64
2
CONTINUOUS
3
______
73
0
40
0
0
ENDTAB
0
TABLE
2
LAYER
0
ENDTAB
0
ENDSEC
0
SECTION
2
ENTITIES
0
LINE
8
0
10
27.8403575
20
-5.2090747
11
45.3163744
21
-6.124954
0
LINE
8
0
10
45.3163744
20
-6.124954
11
46.1799177
21
10.3524333
0
LINE
8
0
10
46.1799177
20
10.3524333
11
28.7039008
21
11.2683126
0
LINE
8
0
10
28.7039008
20
11.2683126
11
27.8403575
21
-5.2090747
0
LINE
8
0
10
28.7300688
20
11.7676274
11
46.2060857
21
10.8517481
0
LINE
8
0
10
46.2060857
20
10.8517481
11
47.069629
21
27.3291354
0
LINE
8
0
10
47.069629
20
27.3291354
11
29.5936121
21
28.2450147
0
LINE
8
0
10
29.5936121
20
28.2450147
11
28.7300688
21
11.7676274
0
LINE
8
0
10
29.61978
20
28.7443295
11
47.0957969
21
27.8284502
0
LINE
8
0
10
47.0957969
20
27.8284502
11
47.9593402
21
44.3058375
0
LINE
8
0
10
47.9593402
20
44.3058375
11
30.4833233
21
45.2217168
0
LINE
8
0
10
30.4833233
20
45.2217168
11
29.61978
21
28.7443295
0
LINE
8
0
10
45.920361
20
-4.1538629
11
63.3963779
21
-5.0697422
0
LINE
8
0
10
63.3963779
20
-5.0697422
11
64.2599212
21
11.4076451
0
LINE
8
0
10
64.2599212
20
11.4076451
11
46.7839043
21
12.3235244
0
LINE
8
0
10
46.7839043
20
12.3235244
11
45.920361
21
-4.1538629
0
LINE
8
0
10
46.8100724
20
12.8228392
11
64.2860893
21
11.9069599
0
LINE
8
0
10
64.2860893
20
11.9069599
11
65.1496326
21
28.3843472
0
LINE
8
0
10
65.1496326
20
28.3843472
11
47.6736157
21
29.3002265
0
LINE
8
0
10
47.6736157
20
29.3002265
11
46.8100724
21
12.8228392
0
LINE
8
0
10
47.6997836
20
29.7995413
11
65.1758005
21
28.883662
0
LINE
8
0
10
65.1758005
20
28.883662
11
66.0393438
21
45.3610493
0
LINE
8
0
10
66.0393438
20
45.3610493
11
48.5633269
21
46.2769286
0
LINE
8
0
10
48.5633269
20
46.2769286
11
47.6997836
21
29.7995413
0
LINE
8
0
10
65.0470515
20
3.1655508
11
82.4804587
21
1.6403253
0
LINE
8
0
10
82.4804587
20
1.6403253
11
83.9185285
21
18.0775378
0
LINE
8
0
10
83.9185285
20
18.0775378
11
66.4851213
21
19.6027633
0
LINE
8
0
10
66.4851213
20
19.6027633
11
65.0470515
21
3.1655508
0
LINE
8
0
10
66.5286991
20
20.1008605
11
83.9621063
21
18.575635
0
LINE
8
0
10
83.9621063
20
18.575635
11
85.4001761
21
35.0128475
0
LINE
8
0
10
85.4001761
20
35.0128475
11
67.9667689
21
36.538073
0
LINE
8
0
10
67.9667689
20
36.538073
11
66.5286991
21
20.1008605
0
LINE
8
0
10
68.0103467
20
37.0361705
11
85.4437539
21
35.510945
0
LINE
8
0
10
85.4437539
20
35.510945
11
86.8818237
21
51.9481575
0
LINE
8
0
10
86.8818237
20
51.9481575
11
69.4484165
21
53.473383
0
LINE
8
0
10
69.4484165
20
53.473383
11
68.0103467
21
37.0361705
0
LINE
8
0
10
84.1204001
20
7.9908064
11
101.4500913
21
5.5552771
0
LINE
8
0
10
101.4500913
20
5.5552771
11
103.7464475
21
21.8947002
0
LINE
8
0
10
103.7464475
20
21.8947002
11
86.4167563
21
24.3302295
0
LINE
8
0
10
86.4167563
20
24.3302295
11
84.1204001
21
7.9908064
0
LINE
8
0
10
86.4863428
20
24.8253636
11
103.816034
21
22.3898343
0
LINE
8
0
10
103.816034
20
22.3898343
11
106.1123902
21
38.7292574
0
LINE
8
0
10
106.1123902
20
38.7292574
11
88.782699
21
41.1647867
0
LINE
8
0
10
88.782699
20
41.1647867
11
86.4863428
21
24.8253636
0
LINE
8
0
10
88.8522855
20
41.6599207
11
106.1819767
21
39.2243914
0
LINE
8
0
10
106.1819767
20
39.2243914
11
108.4783329
21
55.5638145
0
LINE
8
0
10
108.4783329
20
55.5638145
11
91.1486417
21
57.9993438
0
LINE
8
0
10
91.1486417
20
57.9993438
11
88.8522855
21
41.6599207
0
LINE
8
0
10
101.7500664
20
-0.0719896
11
118.9285421
21
-3.411147
0
LINE
8
0
10
118.9285421
20
-3.411147
11
122.0768906
21
12.7857016
0
LINE
8
0
10
122.0768906
20
12.7857016
11
104.8984149
21
16.124859
0
LINE
8
0
10
104.8984149
20
16.124859
11
101.7500664
21
-0.0719896
0
LINE
8
0
10
104.9938192
20
16.6156725
11
122.1722949
21
13.2765151
0
LINE
8
0
10
122.1722949
20
13.2765151
11
125.3206434
21
29.4733637
0
LINE
8
0
10
125.3206434
20
29.4733637
11
108.1421677
21
32.8125211
0
LINE
8
0
10
108.1421677
20
32.8125211
11
104.9938192
21
16.6156725
0
LINE
8
0
10
108.2375722
20
33.3033348
11
125.4160479
21
29.9641774
0
LINE
8
0
10
125.4160479
20
29.9641774
11
128.5643964
21
46.161026
0
LINE
8
0
10
128.5643964
20
46.161026
11
111.3859207
21
49.5001834
0
LINE
8
0
10
111.3859207
20
49.5001834
11
108.2375722
21
33.3033348
0
LINE
8
0
10
119.0377377
20
-5.4698059
11
136.2162134
21
-8.8089633
0
LINE
8
0
10
136.2162134
20
-8.8089633
11
139.3645619
21
7.3878853
0
LINE
8
0
10
139.3645619
20
7.3878853
11
122.1860862
21
10.7270427
0
LINE
8
0
10
122.1860862
20
10.7270427
11
119.0377377
21
-5.4698059
0
LINE
8
0
10
122.2814905
20
11.2178562
11
139.4599662
21
7.8786988
0
LINE
8
0
10
139.4599662
20
7.8786988
11
142.6083147
21
24.0755474
0
LINE
8
0
10
142.6083147
20
24.0755474
11
125.429839
21
27.4147048
0
LINE
8
0
10
125.429839
20
27.4147048
11
122.2814905
21
11.2178562
0
LINE
8
0
10
125.5252434
20
27.9055184
11
142.7037191
21
24.566361
0
LINE
8
0
10
142.7037191
20
24.566361
11
145.8520676
21
40.7632096
0
LINE
8
0
10
145.8520676
20
40.7632096
11
128.6735919
21
44.102367
0
LINE
8
0
10
128.6735919
20
44.102367
11
125.5252434
21
27.9055184
0
LINE
8
0
10
81.5989798
20
-9.355445
11
98.928671
21
-11.7909743
0
LINE
8
0
10
98.928671
20
-11.7909743
11
101.2250272
21
4.5484488
0
LINE
8
0
10
101.2250272
20
4.5484488
11
83.895336
21
6.9839781
0
LINE
8
0
10
83.895336
20
6.9839781
11
81.5989798
21
-9.355445
0
LINE
8
0
10
98.238378
20
-17.279068
11
115.4168537
21
-20.6182254
0
LINE
8
0
10
115.4168537
20
-20.6182254
11
118.5652022
21
-4.4213768
0
LINE
8
0
10
118.5652022
20
-4.4213768
11
101.3867265
21
-1.0822194
0
LINE
8
0
10
101.3867265
20
-1.0822194
11
98.238378
21
-17.279068
0
ENDSEC
0
EOF