M48
; DRILL file {KiCad (6.0.9)} date Mon Nov  7 09:36:55 2022
; FORMAT={-:-/ absolute / inch / decimal}
; #@! TF.CreationDate,2022-11-07T09:36:55+01:00
; #@! TF.GenerationSoftware,Kicad,Pcbnew,(6.0.9)
; #@! TF.FileFunction,NonPlated,1,2,NPTH
FMAT,2
INCH
; #@! TA.AperFunction,NonPlated,NPTH,ComponentDrill
T1C0.0354
; #@! TA.AperFunction,NonPlated,NPTH,ComponentDrill
T2C0.0670
; #@! TA.AperFunction,NonPlated,NPTH,ComponentDrill
T3C0.1181
; #@! TA.AperFunction,NonPlated,NPTH,ComponentDrill
T4C0.1350
%
G90
G05
T1
X1.5059Y2.1618
X1.5059Y2.1618
X1.6239Y2.1556
X1.6239Y2.1556
T2
X0.706Y0.2783
X0.706Y-0.1548
X1.2409Y0.1126
X1.2759Y0.781
X1.3109Y1.4493
X1.6733Y0.0899
X1.7084Y0.7583
X1.7434Y1.4267
X1.9527Y0.1541
X1.9877Y0.8225
X2.0227Y1.4909
X2.3851Y0.1315
X2.4202Y0.7998
X2.4552Y1.4682
X2.7167Y0.437
X2.775Y1.1038
X2.8333Y1.7705
X2.8363Y-0.68
X2.8741Y-0.2486
X3.1481Y0.3993
X3.2064Y1.066
X3.2648Y1.7328
X3.3845Y-0.0645
X3.4837Y0.6184
X3.5769Y1.2812
X3.67Y1.944
X3.8133Y-0.1248
X3.9126Y0.5582
X4.0057Y1.2209
X4.0552Y-0.3859
X4.0989Y1.8837
X4.1935Y0.2916
X4.3212Y0.9486
X4.4489Y1.6056
X4.4803Y-0.4685
X4.6186Y0.209
X4.7463Y0.8659
X4.8695Y-1.0455
X4.874Y1.5229
X4.8741Y0.0791
X4.9522Y-0.6204
X5.0018Y0.7361
X5.1295Y1.3931
X5.2992Y-0.0036
X5.4269Y0.6534
X5.5546Y1.3104
T3
X0.4717Y0.0618
X0.4717Y0.0618
X0.5583Y0.2586
X0.5583Y-0.1351
X1.2682Y0.259
X1.3033Y0.9274
X1.3383Y1.5957
X1.4694Y0.3352
X1.4694Y0.3352
X1.5044Y1.0036
X1.5044Y1.0036
X1.5394Y1.6719
X1.5394Y1.6719
X1.6614Y0.2384
X1.6964Y0.9068
X1.7315Y1.5751
X1.98Y0.3005
X2.0151Y0.9689
X2.0501Y1.6373
X2.1812Y0.3767
X2.1812Y0.3767
X2.2162Y1.0451
X2.2162Y1.0451
X2.2512Y1.7135
X2.2512Y1.7135
X2.3732Y0.2799
X2.4082Y0.9483
X2.4433Y1.6167
X2.6218Y-0.4439
X2.6218Y-0.4439
X2.691Y-0.6475
X2.7253Y-0.2553
X2.7492Y0.5824
X2.8075Y1.2491
X2.8658Y1.9159
X2.9528Y0.6515
X2.9528Y0.6515
X3.0111Y1.3183
X3.0111Y1.3183
X3.0695Y1.985
X3.0695Y1.985
X3.1414Y0.5481
X3.1997Y1.2148
X3.258Y1.8816
X3.4245Y0.079
X3.5238Y0.7619
X3.6169Y1.4247
X3.6315Y0.1373
X3.6315Y0.1373
X3.7101Y2.0875
X3.7308Y0.8203
X3.7308Y0.8203
X3.8144Y0.0242
X3.8239Y1.483
X3.8239Y1.483
X3.9136Y0.7071
X3.9171Y2.1458
X3.9171Y2.1458
X4.0068Y1.3699
X4.0999Y2.0327
X4.1027Y-0.2447
X4.241Y0.4328
X4.3125Y-0.1972
X4.3125Y-0.1972
X4.3687Y1.0898
X4.4507Y0.4802
X4.4507Y0.4802
X4.4892Y-0.3198
X4.4964Y1.7467
X4.5784Y1.1372
X4.5784Y1.1372
X4.6274Y0.3576
X4.6809Y-0.7882
X4.6809Y-0.7882
X4.7062Y1.7942
X4.7062Y1.7942
X4.7284Y-0.998
X4.7552Y1.0146
X4.8035Y-0.6115
X4.8829Y1.6716
X4.9216Y0.2202
X5.0493Y0.8772
X5.1314Y0.2677
X5.1314Y0.2677
X5.177Y1.5342
X5.2591Y0.9247
X5.2591Y0.9247
X5.3081Y0.1451
X5.3868Y1.5817
X5.3868Y1.5817
X5.4358Y0.8021
X5.5635Y1.4591
T4
X0.706Y0.0618
X1.4571Y0.1012
X1.4921Y0.7696
X1.5271Y1.438
X2.1689Y0.1428
X2.2039Y0.8112
X2.239Y1.4795
X2.8552Y-0.4643
X2.9324Y0.4182
X2.9907Y1.0849
X3.0491Y1.7517
X3.5989Y-0.0946
X3.6982Y0.5883
X3.7913Y1.2511
X3.8845Y1.9139
X4.2678Y-0.4272
X4.406Y0.2503
X4.5337Y0.9073
X4.6615Y1.5643
X4.9108Y-0.8329
X5.0867Y0.0378
X5.2144Y0.6948
X5.3421Y1.3517
T0
M30
