M48
; DRILL file {KiCad (6.0.9)} date Mon Nov  7 09:36:55 2022
; FORMAT={-:-/ absolute / inch / decimal}
; #@! TF.CreationDate,2022-11-07T09:36:55+01:00
; #@! TF.GenerationSoftware,Kicad,Pcbnew,(6.0.9)
; #@! TF.FileFunction,Plated,1,2,PTH
FMAT,2
INCH
; #@! TA.AperFunction,Plated,PTH,ComponentDrill
T1C0.0118
; #@! TA.AperFunction,Plated,PTH,ComponentDrill
T2C0.0157
; #@! TA.AperFunction,Plated,PTH,ComponentDrill
T3C0.0276
; #@! TA.AperFunction,Plated,PTH,ComponentDrill
T4C0.0390
; #@! TA.AperFunction,Plated,PTH,ComponentDrill
T5C0.0433
%
G90
G05
T1
X1.2828Y2.0422
T2
X0.676Y1.7929
X0.676Y1.6929
X0.676Y1.5929
X0.676Y1.4929
X0.676Y1.3929
X0.676Y1.2929
X0.676Y1.1929
X0.676Y1.0929
X0.676Y0.9929
X0.676Y0.8929
X0.676Y0.7929
X0.676Y0.6929
X0.736Y1.7929
X0.736Y1.6929
X0.736Y1.5929
X0.736Y1.4929
X0.736Y1.3929
X0.736Y1.2929
X0.736Y1.1929
X0.736Y1.0929
X0.736Y0.9929
X0.736Y0.8929
X0.736Y0.7929
X0.736Y0.6929
T3
X1.2875Y2.1306
X1.2906Y2.1896
T4
X0.9028Y0.2118
X0.9028Y-0.0882
X1.297Y-0.0875
X1.332Y0.5809
X1.3671Y1.2493
X1.5966Y-0.1032
X1.6316Y0.5652
X1.6666Y1.2336
X2.0088Y-0.0459
X2.0438Y0.6224
X2.0789Y1.2908
X2.3084Y-0.0616
X2.3434Y0.6067
X2.3785Y1.2751
X2.7658Y0.2351
X2.8241Y0.9019
X2.8825Y1.5686
X3.0382Y-0.6309
X3.0644Y-0.332
X3.0647Y0.209
X3.123Y0.8757
X3.1813Y1.5425
X3.423Y-0.2687
X3.5222Y0.4142
X3.6154Y1.077
X3.7085Y1.7398
X3.72Y-0.3104
X3.8193Y0.3725
X3.9125Y1.0353
X4.0056Y1.698
X4.083Y-0.5918
X4.2212Y0.0857
X4.3489Y0.7427
X4.3775Y-0.649
X4.4767Y1.3996
X4.5157Y0.0284
X4.6434Y0.6854
X4.7711Y1.3424
X4.9019Y-0.1269
X5.0296Y0.5301
X5.0755Y-1.0177
X5.1327Y-0.7232
X5.1573Y1.1871
X5.1963Y-0.1841
X5.324Y0.4729
X5.4518Y1.1299
T5
X0.406Y1.7929
X0.406Y1.7929
X0.406Y1.6929
X0.406Y1.5929
X0.406Y1.4929
X0.406Y1.3929
X0.406Y1.2929
X0.406Y1.1929
X0.406Y1.0929
X0.406Y0.9929
X0.406Y0.8929
X0.406Y0.7929
X0.406Y0.6929
X1.006Y1.7929
X1.006Y1.7929
X1.006Y1.6929
X1.006Y1.5929
X1.006Y1.4929
X1.006Y1.3929
X1.006Y1.2929
X1.006Y1.1929
X1.006Y1.0929
X1.006Y0.9929
X1.006Y0.8929
X1.006Y0.7929
X1.006Y0.6929
T0
M30
