%TF.GenerationSoftware,KiCad,Pcbnew,(6.0.9)*%
%TF.CreationDate,2022-11-07T09:36:57+01:00*%
%TF.ProjectId,itemun,6974656d-756e-42e6-9b69-6361645f7063,v1.0.0*%
%TF.SameCoordinates,Original*%
%TF.FileFunction,Paste,Top*%
%TF.FilePolarity,Positive*%
%FSLAX46Y46*%
G04 Gerber Fmt 4.6, Leading zero omitted, Abs format (unit mm)*
G04 Created by KiCad (PCBNEW (6.0.9)) date 2022-11-07 09:36:57*
%MOMM*%
%LPD*%
G01*
G04 APERTURE LIST*
G04 Aperture macros list*
%AMRotRect*
0 Rectangle, with rotation*
0 The origin of the aperture is its center*
0 $1 length*
0 $2 width*
0 $3 Rotation angle, in degrees counterclockwise*
0 Add horizontal line*
21,1,$1,$2,0,0,$3*%
G04 Aperture macros list end*
%ADD10RotRect,2.600000X2.600000X357.000000*%
%ADD11RotRect,2.600000X2.600000X349.000000*%
%ADD12RotRect,0.900000X1.200000X79.000000*%
%ADD13R,2.600000X2.600000*%
%ADD14RotRect,0.900000X1.200000X349.000000*%
%ADD15RotRect,2.600000X2.600000X352.000000*%
%ADD16RotRect,0.900000X1.200000X357.000000*%
%ADD17RotRect,2.600000X2.600000X79.000000*%
%ADD18R,1.000000X0.800000*%
%ADD19R,0.700000X1.500000*%
%ADD20R,0.900000X1.700000*%
%ADD21RotRect,2.600000X2.600000X355.000000*%
%ADD22RotRect,0.900000X1.200000X355.000000*%
%ADD23RotRect,2.600000X2.600000X85.000000*%
%ADD24RotRect,0.900000X1.200000X352.000000*%
%ADD25RotRect,0.900000X1.200000X85.000000*%
%ADD26R,1.200000X0.900000*%
G04 APERTURE END LIST*
D10*
%TO.C,S3*%
X41481760Y25318826D03*
X29832449Y23726322D03*
%TD*%
D11*
%TO.C,S22*%
X112751933Y-5634440D03*
X100994359Y-5590176D03*
%TD*%
D10*
%TO.C,S4*%
X42371471Y42295529D03*
X30722160Y40703025D03*
%TD*%
D12*
%TO.C,D23*%
X129328717Y-23729905D03*
X129958387Y-20490535D03*
%TD*%
D13*
%TO.C,S1*%
X11981505Y4843803D03*
X14181505Y-6706197D03*
%TD*%
D10*
%TO.C,S5*%
X58672052Y9397336D03*
X47022741Y7804832D03*
%TD*%
D14*
%TO.C,D16*%
X115827254Y35138880D03*
X119066624Y34509210D03*
%TD*%
D15*
%TO.C,S21*%
X95483212Y3032805D03*
X83739435Y2461665D03*
%TD*%
D11*
%TO.C,S18*%
X136795046Y22862484D03*
X125037472Y22906748D03*
%TD*%
D16*
%TO.C,D5*%
X53180722Y-1279903D03*
X56476200Y-1452611D03*
%TD*%
D17*
%TO.C,S23*%
X119519635Y-16806032D03*
X119475371Y-28563606D03*
%TD*%
D18*
%TO.C,*%
X43451445Y55737429D03*
X36045787Y53912510D03*
X43335783Y53530458D03*
X36161450Y56119481D03*
D19*
X41903683Y52954619D03*
X38907794Y53111627D03*
X37409850Y53190131D03*
%TD*%
D20*
%TO.C,*%
X48020233Y54066027D03*
X51415573Y53888085D03*
%TD*%
D16*
%TO.C,D2*%
X35100719Y-2335114D03*
X38396197Y-2507822D03*
%TD*%
D15*
%TO.C,S12*%
X100370575Y37213614D03*
X88626798Y36642474D03*
%TD*%
D11*
%TO.C,S15*%
X119507374Y28260300D03*
X107749800Y28304564D03*
%TD*%
D16*
%TO.C,D3*%
X35990430Y14641588D03*
X39285908Y14468880D03*
%TD*%
D21*
%TO.C,S10*%
X81227199Y50134087D03*
X69529408Y48949108D03*
%TD*%
D16*
%TO.C,D7*%
X54960145Y32673502D03*
X58255623Y32500794D03*
%TD*%
D22*
%TO.C,D9*%
X73884938Y22719688D03*
X77172380Y22432074D03*
%TD*%
D11*
%TO.C,S16*%
X122751127Y44947962D03*
X110993553Y44992226D03*
%TD*%
D10*
%TO.C,S6*%
X59561764Y26374038D03*
X47912453Y24781534D03*
%TD*%
%TO.C,S7*%
X60451475Y43350740D03*
X48802164Y41758236D03*
%TD*%
D16*
%TO.C,D4*%
X36880141Y31618290D03*
X40175619Y31445582D03*
%TD*%
D23*
%TO.C,S20*%
X66879863Y-8011723D03*
X68064842Y-19709514D03*
%TD*%
D14*
%TO.C,D18*%
X129871173Y13053401D03*
X133110543Y12423731D03*
%TD*%
D11*
%TO.C,S17*%
X133551293Y6174822D03*
X121793719Y6219086D03*
%TD*%
D24*
%TO.C,D21*%
X89082196Y-7125202D03*
X92350080Y-7584474D03*
%TD*%
D22*
%TO.C,D8*%
X72403290Y5784378D03*
X75690732Y5496764D03*
%TD*%
D24*
%TO.C,D13*%
X96335502Y43890163D03*
X99603386Y43430891D03*
%TD*%
D14*
%TO.C,D22*%
X105828060Y-15443523D03*
X109067430Y-16073193D03*
%TD*%
D24*
%TO.C,D11*%
X91603616Y10221049D03*
X94871500Y9761777D03*
%TD*%
D14*
%TO.C,D19*%
X133114926Y29741063D03*
X136354296Y29111393D03*
%TD*%
D25*
%TO.C,D20*%
X77358952Y-13872336D03*
X77646566Y-10584894D03*
%TD*%
D11*
%TO.C,S19*%
X140038799Y39550146D03*
X128281225Y39594410D03*
%TD*%
D24*
%TO.C,D12*%
X93969559Y27055606D03*
X97237443Y26596334D03*
%TD*%
D26*
%TO.C,D1*%
X22931505Y-81197D03*
X22931505Y3218803D03*
%TD*%
D15*
%TO.C,S11*%
X98004632Y20379056D03*
X86260855Y19807916D03*
%TD*%
D14*
%TO.C,D15*%
X112583501Y18451217D03*
X115822871Y17821547D03*
%TD*%
D11*
%TO.C,S14*%
X116263622Y11572638D03*
X104506048Y11616902D03*
%TD*%
D21*
%TO.C,S9*%
X79745552Y33198777D03*
X68047761Y32013798D03*
%TD*%
D16*
%TO.C,D6*%
X54070434Y15696800D03*
X57365912Y15524092D03*
%TD*%
D21*
%TO.C,S8*%
X78263904Y16263467D03*
X66566113Y15078488D03*
%TD*%
D15*
%TO.C,S13*%
X102736517Y54048171D03*
X90992740Y53477031D03*
%TD*%
D14*
%TO.C,D14*%
X109339749Y1763555D03*
X112579119Y1133885D03*
%TD*%
D10*
%TO.C,S2*%
X40592049Y8342124D03*
X28942738Y6749620D03*
%TD*%
D22*
%TO.C,D10*%
X75366586Y39654998D03*
X78654028Y39367384D03*
%TD*%
D14*
%TO.C,D17*%
X126627420Y-3634261D03*
X129866790Y-4263931D03*
%TD*%
M02*
