%TF.GenerationSoftware,KiCad,Pcbnew,(6.0.9)*%
%TF.CreationDate,2022-11-07T09:36:57+01:00*%
%TF.ProjectId,itemun,6974656d-756e-42e6-9b69-6361645f7063,v1.0.0*%
%TF.SameCoordinates,Original*%
%TF.FileFunction,Copper,L2,Bot*%
%TF.FilePolarity,Positive*%
%FSLAX46Y46*%
G04 Gerber Fmt 4.6, Leading zero omitted, Abs format (unit mm)*
G04 Created by KiCad (PCBNEW (6.0.9)) date 2022-11-07 09:36:57*
%MOMM*%
%LPD*%
G01*
G04 APERTURE LIST*
G04 Aperture macros list*
%AMRotRect*
0 Rectangle, with rotation*
0 The origin of the aperture is its center*
0 $1 length*
0 $2 width*
0 $3 Rotation angle, in degrees counterclockwise*
0 Add horizontal line*
21,1,$1,$2,0,0,$3*%
%AMFreePoly0*
4,1,6,0.600000,0.200000,0.000000,-0.400000,-0.600000,0.200000,-0.600000,0.400000,0.600000,0.400000,0.600000,0.200000,0.600000,0.200000,$1*%
%AMFreePoly1*
4,1,5,0.125000,-0.500000,-0.125000,-0.500000,-0.125000,0.500000,0.125000,0.500000,0.125000,-0.500000,0.125000,-0.500000,$1*%
%AMFreePoly2*
4,1,6,0.600000,-0.250000,-0.600000,-0.250000,-0.600000,1.000000,0.000000,0.400000,0.600000,1.000000,0.600000,-0.250000,0.600000,-0.250000,$1*%
%AMFreePoly3*
4,1,49,0.004773,0.123721,0.009154,0.124665,0.028961,0.117240,0.062500,0.108253,0.068237,0.102516,0.075053,0.099961,0.087617,0.083136,0.108253,0.062500,0.111178,0.051584,0.117161,0.043572,0.118539,0.024114,0.125000,0.000000,0.121239,-0.014035,0.122131,-0.026629,0.113759,-0.041951,0.108253,-0.062500,0.095644,-0.075109,0.088389,-0.088388,-0.641000,-0.817776,-0.641000,-4.770224,
0.088389,-5.499612,0.109852,-5.528356,0.124665,-5.597154,0.099961,-5.663053,0.043572,-5.705161,-0.026629,-5.710131,-0.088388,-5.676389,-0.854388,-4.910388,-0.867707,-4.892552,-0.871189,-4.889530,-0.871982,-4.886826,-0.875852,-4.881644,-0.882331,-4.851549,-0.891000,-4.822000,-0.891000,-0.766000,-0.887805,-0.743969,-0.888131,-0.739371,-0.886780,-0.736898,-0.885852,-0.730498,-0.869151,-0.704632,
-0.854388,-0.677612,-0.088388,0.088389,-0.064606,0.106147,-0.062500,0.108253,-0.061385,0.108552,-0.059644,0.109852,-0.043806,0.113262,0.000000,0.125000,0.004773,0.123721,0.004773,0.123721,$1*%
G04 Aperture macros list end*
%TA.AperFunction,SMDPad,CuDef*%
%ADD10RotRect,2.600000X2.600000X357.000000*%
%TD*%
%TA.AperFunction,ComponentPad*%
%ADD11C,1.000000*%
%TD*%
%TA.AperFunction,SMDPad,CuDef*%
%ADD12RotRect,2.600000X2.600000X349.000000*%
%TD*%
%TA.AperFunction,SMDPad,CuDef*%
%ADD13RotRect,0.900000X1.200000X79.000000*%
%TD*%
%TA.AperFunction,ComponentPad*%
%ADD14C,1.905000*%
%TD*%
%TA.AperFunction,ComponentPad*%
%ADD15RotRect,1.778000X1.778000X79.000000*%
%TD*%
%TA.AperFunction,SMDPad,CuDef*%
%ADD16R,2.600000X2.600000*%
%TD*%
%TA.AperFunction,SMDPad,CuDef*%
%ADD17RotRect,0.900000X1.200000X349.000000*%
%TD*%
%TA.AperFunction,ComponentPad*%
%ADD18RotRect,1.778000X1.778000X349.000000*%
%TD*%
%TA.AperFunction,SMDPad,CuDef*%
%ADD19RotRect,2.600000X2.600000X352.000000*%
%TD*%
%TA.AperFunction,SMDPad,CuDef*%
%ADD20RotRect,0.900000X1.200000X357.000000*%
%TD*%
%TA.AperFunction,ComponentPad*%
%ADD21RotRect,1.778000X1.778000X357.000000*%
%TD*%
%TA.AperFunction,SMDPad,CuDef*%
%ADD22RotRect,2.600000X2.600000X79.000000*%
%TD*%
%TA.AperFunction,SMDPad,CuDef*%
%ADD23R,1.000000X0.800000*%
%TD*%
%TA.AperFunction,SMDPad,CuDef*%
%ADD24R,0.700000X1.500000*%
%TD*%
%TA.AperFunction,SMDPad,CuDef*%
%ADD25R,0.900000X1.700000*%
%TD*%
%TA.AperFunction,SMDPad,CuDef*%
%ADD26RotRect,2.600000X2.600000X355.000000*%
%TD*%
%TA.AperFunction,SMDPad,CuDef*%
%ADD27RotRect,0.900000X1.200000X355.000000*%
%TD*%
%TA.AperFunction,ComponentPad*%
%ADD28RotRect,1.778000X1.778000X355.000000*%
%TD*%
%TA.AperFunction,SMDPad,CuDef*%
%ADD29RotRect,2.600000X2.600000X85.000000*%
%TD*%
%TA.AperFunction,SMDPad,CuDef*%
%ADD30RotRect,0.900000X1.200000X352.000000*%
%TD*%
%TA.AperFunction,ComponentPad*%
%ADD31RotRect,1.778000X1.778000X352.000000*%
%TD*%
%TA.AperFunction,SMDPad,CuDef*%
%ADD32RotRect,0.900000X1.200000X85.000000*%
%TD*%
%TA.AperFunction,ComponentPad*%
%ADD33RotRect,1.778000X1.778000X85.000000*%
%TD*%
%TA.AperFunction,SMDPad,CuDef*%
%ADD34R,1.200000X0.900000*%
%TD*%
%TA.AperFunction,ComponentPad*%
%ADD35R,1.778000X1.778000*%
%TD*%
%TA.AperFunction,ComponentPad*%
%ADD36C,1.600000*%
%TD*%
%TA.AperFunction,SMDPad,CuDef*%
%ADD37FreePoly0,90.000000*%
%TD*%
%TA.AperFunction,SMDPad,CuDef*%
%ADD38FreePoly1,90.000000*%
%TD*%
%TA.AperFunction,SMDPad,CuDef*%
%ADD39FreePoly0,270.000000*%
%TD*%
%TA.AperFunction,ComponentPad*%
%ADD40R,1.600000X1.600000*%
%TD*%
%TA.AperFunction,SMDPad,CuDef*%
%ADD41FreePoly1,270.000000*%
%TD*%
%TA.AperFunction,SMDPad,CuDef*%
%ADD42FreePoly2,90.000000*%
%TD*%
%TA.AperFunction,SMDPad,CuDef*%
%ADD43FreePoly3,270.000000*%
%TD*%
%TA.AperFunction,ComponentPad*%
%ADD44C,0.800000*%
%TD*%
%TA.AperFunction,SMDPad,CuDef*%
%ADD45FreePoly3,90.000000*%
%TD*%
%TA.AperFunction,SMDPad,CuDef*%
%ADD46FreePoly2,270.000000*%
%TD*%
%TA.AperFunction,ComponentPad*%
%ADD47C,0.600000*%
%TD*%
%TA.AperFunction,Conductor*%
%ADD48C,0.250000*%
%TD*%
G04 APERTURE END LIST*
D10*
%TO.P,S3,1*%
%TO.N,outer_home*%
X34940736Y25661627D03*
%TO.P,S3,2*%
%TO.N,P14*%
X46359768Y22860162D03*
%TD*%
D11*
%TO.P,,1*%
%TO.N,RAW*%
X32701949Y54117795D03*
%TO.P,,2*%
%TO.N,GND*%
X32780453Y55615739D03*
%TD*%
D12*
%TO.P,S22,1*%
%TO.N,shift_first*%
X106322274Y-4384641D03*
%TO.P,S22,2*%
%TO.N,P20*%
X117240289Y-8748064D03*
%TD*%
D10*
%TO.P,S4,1*%
%TO.N,outer_top*%
X35830447Y42638330D03*
%TO.P,S4,2*%
%TO.N,P14*%
X47249479Y39836865D03*
%TD*%
D13*
%TO.P,D23,1*%
%TO.N,P2*%
X129328717Y-23729905D03*
D14*
%TO.N,e_first*%
X130370534Y-18370220D03*
D15*
%TO.P,D23,2*%
%TO.N,P2*%
X128916570Y-25850220D03*
D13*
%TO.N,e_first*%
X129958387Y-20490535D03*
%TD*%
D16*
%TO.P,S1,1*%
%TO.N,outouter_bottom*%
X11981505Y-1706197D03*
%TO.P,S1,2*%
%TO.N,P4*%
X14181505Y9843803D03*
%TD*%
D10*
%TO.P,S5,1*%
%TO.N,pinkie_bottom*%
X52131028Y9740137D03*
%TO.P,S5,2*%
%TO.N,P15*%
X63550060Y6938672D03*
%TD*%
D17*
%TO.P,D16,1*%
%TO.N,P16*%
X115827254Y35138880D03*
D14*
%TO.N,index_top*%
X121186939Y34097063D03*
D18*
%TO.P,D16,2*%
%TO.N,P16*%
X113706939Y35551027D03*
D17*
%TO.N,index_top*%
X119066624Y34509210D03*
%TD*%
D19*
%TO.P,S21,1*%
%TO.N,alt_first*%
X88996956Y3944389D03*
%TO.P,S21,2*%
%TO.N,P19*%
X100128371Y158350D03*
%TD*%
D12*
%TO.P,S18,1*%
%TO.N,inner_home*%
X130365387Y24112283D03*
%TO.P,S18,2*%
%TO.N,P21*%
X141283402Y19748860D03*
%TD*%
D20*
%TO.P,D5,1*%
%TO.N,P3*%
X53180722Y-1279903D03*
D14*
%TO.N,pinkie_bottom*%
X58633240Y-1565657D03*
D21*
%TO.P,D5,2*%
%TO.N,P3*%
X51023682Y-1166857D03*
D20*
%TO.N,pinkie_bottom*%
X56476200Y-1452611D03*
%TD*%
D22*
%TO.P,S23,1*%
%TO.N,e_first*%
X118269836Y-23235691D03*
%TO.P,S23,2*%
%TO.N,P21*%
X122633259Y-12317676D03*
%TD*%
D23*
%TO.P,,*%
%TO.N,*%
X36045787Y53912510D03*
X43451445Y55737429D03*
X36161450Y56119481D03*
X43335783Y53530458D03*
D24*
%TO.P,,1*%
%TO.N,pos*%
X37409850Y53190131D03*
%TO.P,,2*%
%TO.N,RAW*%
X40405739Y53033123D03*
%TO.P,,3*%
%TO.N,N/C*%
X41903683Y52954619D03*
%TD*%
D25*
%TO.P,,1*%
%TO.N,RST*%
X51415573Y53888085D03*
%TO.P,,2*%
%TO.N,GND*%
X48020233Y54066027D03*
%TD*%
D14*
%TO.P,D2,1*%
%TO.N,outer_bottom*%
X40553237Y-2620868D03*
D20*
%TO.N,P3*%
X35100719Y-2335114D03*
%TO.P,D2,2*%
%TO.N,outer_bottom*%
X38396197Y-2507822D03*
D21*
%TO.N,P3*%
X32943679Y-2222068D03*
%TD*%
D19*
%TO.P,S12,1*%
%TO.N,middle_home*%
X93884319Y38125198D03*
%TO.P,S12,2*%
%TO.N,P19*%
X105015734Y34339159D03*
%TD*%
D12*
%TO.P,S15,1*%
%TO.N,index_home*%
X113077715Y29510099D03*
%TO.P,S15,2*%
%TO.N,P20*%
X123995730Y25146676D03*
%TD*%
D20*
%TO.P,D3,1*%
%TO.N,P10*%
X35990430Y14641588D03*
D14*
%TO.N,outer_home*%
X41442948Y14355834D03*
D20*
%TO.P,D3,2*%
X39285908Y14468880D03*
D21*
%TO.N,P10*%
X33833390Y14754634D03*
%TD*%
D26*
%TO.P,S10,1*%
%TO.N,ring_top*%
X74702124Y50704958D03*
%TO.P,S10,2*%
%TO.N,P18*%
X86016430Y47506680D03*
%TD*%
D14*
%TO.P,D7,1*%
%TO.N,pinkie_top*%
X60412663Y32387748D03*
D20*
%TO.N,P16*%
X54960145Y32673502D03*
D21*
%TO.P,D7,2*%
X52803105Y32786548D03*
D20*
%TO.N,pinkie_top*%
X58255623Y32500794D03*
%TD*%
D14*
%TO.P,D9,1*%
%TO.N,ring_home*%
X79324161Y22243818D03*
D27*
%TO.N,P10*%
X73884938Y22719688D03*
D28*
%TO.P,D9,2*%
X71733157Y22907944D03*
D27*
%TO.N,ring_home*%
X77172380Y22432074D03*
%TD*%
D12*
%TO.P,S16,1*%
%TO.N,index_top*%
X116321468Y46197761D03*
%TO.P,S16,2*%
%TO.N,P20*%
X127239483Y41834338D03*
%TD*%
D10*
%TO.P,S6,1*%
%TO.N,pinkie_home*%
X53020740Y26716839D03*
%TO.P,S6,2*%
%TO.N,P15*%
X64439772Y23915374D03*
%TD*%
%TO.P,S7,1*%
%TO.N,pinkie_top*%
X53910451Y43693541D03*
%TO.P,S7,2*%
%TO.N,P15*%
X65329483Y40892076D03*
%TD*%
D20*
%TO.P,D4,1*%
%TO.N,P16*%
X36880141Y31618290D03*
D14*
%TO.N,outer_top*%
X42332659Y31332536D03*
D20*
%TO.P,D4,2*%
X40175619Y31445582D03*
D21*
%TO.N,P16*%
X34723101Y31731336D03*
%TD*%
D29*
%TO.P,S20,1*%
%TO.N,ctrl_first*%
X66308992Y-14536798D03*
%TO.P,S20,2*%
%TO.N,P18*%
X69507270Y-3222492D03*
%TD*%
D14*
%TO.P,D18,1*%
%TO.N,inner_home*%
X135230858Y12011584D03*
D17*
%TO.N,P10*%
X129871173Y13053401D03*
D18*
%TO.P,D18,2*%
X127750858Y13465548D03*
D17*
%TO.N,inner_home*%
X133110543Y12423731D03*
%TD*%
D12*
%TO.P,S17,1*%
%TO.N,inner_bottom*%
X127121634Y7424621D03*
%TO.P,S17,2*%
%TO.N,P21*%
X138039649Y3061198D03*
%TD*%
D30*
%TO.P,D21,1*%
%TO.N,P2*%
X89082196Y-7125202D03*
D14*
%TO.N,alt_first*%
X94489059Y-7885088D03*
D30*
%TO.P,D21,2*%
X92350080Y-7584474D03*
D31*
%TO.N,P2*%
X86943217Y-6824588D03*
%TD*%
D27*
%TO.P,D8,1*%
%TO.N,P3*%
X72403290Y5784378D03*
D14*
%TO.N,ring_bottom*%
X77842513Y5308508D03*
D27*
%TO.P,D8,2*%
X75690732Y5496764D03*
D28*
%TO.N,P3*%
X70251509Y5972634D03*
%TD*%
D14*
%TO.P,D13,1*%
%TO.N,middle_top*%
X101742365Y43130277D03*
D30*
%TO.N,P16*%
X96335502Y43890163D03*
%TO.P,D13,2*%
%TO.N,middle_top*%
X99603386Y43430891D03*
D31*
%TO.N,P16*%
X94196523Y44190777D03*
%TD*%
D14*
%TO.P,D22,1*%
%TO.N,shift_first*%
X111187745Y-16485340D03*
D17*
%TO.N,P2*%
X105828060Y-15443523D03*
D18*
%TO.P,D22,2*%
X103707745Y-15031376D03*
D17*
%TO.N,shift_first*%
X109067430Y-16073193D03*
%TD*%
D30*
%TO.P,D11,1*%
%TO.N,P3*%
X91603616Y10221049D03*
D14*
%TO.N,middle_bottom*%
X97010479Y9461163D03*
D30*
%TO.P,D11,2*%
X94871500Y9761777D03*
D31*
%TO.N,P3*%
X89464637Y10521663D03*
%TD*%
D14*
%TO.P,D19,1*%
%TO.N,inner_top*%
X138474611Y28699246D03*
D17*
%TO.N,P16*%
X133114926Y29741063D03*
D18*
%TO.P,D19,2*%
X130994611Y30153210D03*
D17*
%TO.N,inner_top*%
X136354296Y29111393D03*
%TD*%
D14*
%TO.P,D20,1*%
%TO.N,ctrl_first*%
X77834822Y-8433113D03*
D32*
%TO.N,P2*%
X77358952Y-13872336D03*
D33*
%TO.P,D20,2*%
X77170696Y-16024117D03*
D32*
%TO.N,ctrl_first*%
X77646566Y-10584894D03*
%TD*%
D12*
%TO.P,S19,1*%
%TO.N,inner_top*%
X133609140Y40799945D03*
%TO.P,S19,2*%
%TO.N,P21*%
X144527155Y36436522D03*
%TD*%
D30*
%TO.P,D12,1*%
%TO.N,P10*%
X93969559Y27055606D03*
D14*
%TO.N,middle_home*%
X99376422Y26295720D03*
D31*
%TO.P,D12,2*%
%TO.N,P10*%
X91830580Y27356220D03*
D30*
%TO.N,middle_home*%
X97237443Y26596334D03*
%TD*%
D34*
%TO.P,D1,1*%
%TO.N,P3*%
X22931505Y-81197D03*
D14*
%TO.N,outouter_bottom*%
X22931505Y5378803D03*
D35*
%TO.P,D1,2*%
%TO.N,P3*%
X22931505Y-2241197D03*
D34*
%TO.N,outouter_bottom*%
X22931505Y3218803D03*
%TD*%
D19*
%TO.P,S11,1*%
%TO.N,middle_bottom*%
X91518376Y21290640D03*
%TO.P,S11,2*%
%TO.N,P19*%
X102649791Y17504601D03*
%TD*%
D17*
%TO.P,D15,1*%
%TO.N,P10*%
X112583501Y18451217D03*
D14*
%TO.N,index_home*%
X117943186Y17409400D03*
D18*
%TO.P,D15,2*%
%TO.N,P10*%
X110463186Y18863364D03*
D17*
%TO.N,index_home*%
X115822871Y17821547D03*
%TD*%
D12*
%TO.P,S14,1*%
%TO.N,index_bottom*%
X109833963Y12822437D03*
%TO.P,S14,2*%
%TO.N,P20*%
X120751978Y8459014D03*
%TD*%
D26*
%TO.P,S9,1*%
%TO.N,ring_home*%
X73220477Y33769648D03*
%TO.P,S9,2*%
%TO.N,P18*%
X84534783Y30571370D03*
%TD*%
D14*
%TO.P,D6,1*%
%TO.N,pinkie_home*%
X59522952Y15411046D03*
D20*
%TO.N,P10*%
X54070434Y15696800D03*
D21*
%TO.P,D6,2*%
X51913394Y15809846D03*
D20*
%TO.N,pinkie_home*%
X57365912Y15524092D03*
%TD*%
D26*
%TO.P,S8,1*%
%TO.N,ring_bottom*%
X71738829Y16834338D03*
%TO.P,S8,2*%
%TO.N,P18*%
X83053135Y13636060D03*
%TD*%
D36*
%TO.P,MCU1,*%
%TO.N,*%
X25551505Y17598803D03*
D37*
X12089505Y37918803D03*
X12089505Y22678803D03*
X12089505Y32838803D03*
D38*
X11581505Y37918803D03*
X11581505Y30298803D03*
D39*
X23773505Y30298803D03*
D40*
X25551505Y45538803D03*
D36*
X25551505Y45538803D03*
X10311505Y27758803D03*
D38*
X11581505Y27758803D03*
D36*
X25551505Y27758803D03*
D37*
X12089505Y17598803D03*
D41*
X24281505Y22678803D03*
D39*
X23773505Y25218803D03*
D36*
X25551505Y37918803D03*
D41*
X24281505Y32838803D03*
D39*
X23773505Y37918803D03*
D38*
X11581505Y40458803D03*
D36*
X25551505Y40458803D03*
D38*
X11581505Y22678803D03*
D39*
X23773505Y40458803D03*
D41*
X24281505Y20138803D03*
D36*
X10311505Y25218803D03*
X25551505Y22678803D03*
D38*
X11581505Y45538803D03*
X11581505Y25218803D03*
D39*
X23773505Y20138803D03*
D36*
X25551505Y42998803D03*
D41*
X24281505Y35378803D03*
D38*
X11581505Y20138803D03*
D41*
X24281505Y17598803D03*
D38*
X11581505Y42998803D03*
D39*
X23773505Y45538803D03*
D41*
X24281505Y45538803D03*
D37*
X12089505Y35378803D03*
D41*
X24281505Y40458803D03*
X24281505Y30298803D03*
D36*
X10311505Y45538803D03*
D37*
X12089505Y45538803D03*
D38*
X11581505Y32838803D03*
D37*
X12089505Y20138803D03*
D36*
X10311505Y17598803D03*
D39*
X23773505Y42998803D03*
D38*
X11581505Y35378803D03*
D36*
X25551505Y35378803D03*
D39*
X23773505Y17598803D03*
D37*
X12089505Y25218803D03*
D36*
X10311505Y35378803D03*
D39*
X23773505Y32838803D03*
D41*
X24281505Y37918803D03*
D36*
X10311505Y20138803D03*
D39*
X23773505Y27758803D03*
X23773505Y22678803D03*
D36*
X25551505Y30298803D03*
D41*
X24281505Y25218803D03*
D36*
X25551505Y25218803D03*
D37*
X12089505Y42998803D03*
D36*
X10311505Y42998803D03*
X10311505Y40458803D03*
D41*
X24281505Y42998803D03*
D38*
X11581505Y17598803D03*
D36*
X25551505Y20138803D03*
D39*
X23773505Y35378803D03*
D37*
X12089505Y30298803D03*
D36*
X25551505Y32838803D03*
X10311505Y37918803D03*
X10311505Y30298803D03*
X10311505Y22678803D03*
D41*
X24281505Y27758803D03*
D37*
X12089505Y40458803D03*
D36*
X10311505Y32838803D03*
D37*
X12089505Y27758803D03*
D42*
%TO.P,MCU1,1*%
%TO.N,RAW*%
X13105505Y45538803D03*
D43*
X18693505Y45538803D03*
D44*
X18693505Y45538803D03*
D42*
%TO.P,MCU1,2*%
%TO.N,N/C*%
X13105505Y42998803D03*
D44*
%TO.N,GND*%
X18693505Y42998803D03*
D43*
X18693505Y42998803D03*
D44*
%TO.P,MCU1,3*%
%TO.N,RST*%
X18693505Y40458803D03*
D43*
X18693505Y40458803D03*
D42*
X13105505Y40458803D03*
D44*
%TO.P,MCU1,4*%
%TO.N,VCC*%
X18693505Y37918803D03*
D43*
X18693505Y37918803D03*
D42*
X13105505Y37918803D03*
D44*
%TO.P,MCU1,5*%
%TO.N,P21*%
X18693505Y35378803D03*
D43*
X18693505Y35378803D03*
D42*
X13105505Y35378803D03*
D43*
%TO.P,MCU1,6*%
%TO.N,P20*%
X18693505Y32838803D03*
D44*
X18693505Y32838803D03*
D42*
X13105505Y32838803D03*
D44*
%TO.P,MCU1,7*%
%TO.N,P19*%
X18693505Y30298803D03*
D43*
X18693505Y30298803D03*
D42*
X13105505Y30298803D03*
D44*
%TO.P,MCU1,8*%
%TO.N,P18*%
X18693505Y27758803D03*
D43*
X18693505Y27758803D03*
D42*
X13105505Y27758803D03*
D44*
%TO.P,MCU1,9*%
%TO.N,P15*%
X18693505Y25218803D03*
D43*
X18693505Y25218803D03*
D42*
X13105505Y25218803D03*
D44*
%TO.P,MCU1,10*%
%TO.N,P14*%
X18693505Y22678803D03*
D42*
X13105505Y22678803D03*
D43*
X18693505Y22678803D03*
D42*
%TO.P,MCU1,11*%
%TO.N,P16*%
X13105505Y20138803D03*
D43*
X18693505Y20138803D03*
D44*
X18693505Y20138803D03*
D42*
%TO.P,MCU1,12*%
%TO.N,P10*%
X13105505Y17598803D03*
D44*
X18693505Y17598803D03*
D43*
X18693505Y17598803D03*
D45*
%TO.P,MCU1,13*%
%TO.N,P9*%
X17169505Y17598803D03*
D46*
X22757505Y17598803D03*
D44*
X17169505Y17598803D03*
D45*
%TO.P,MCU1,14*%
%TO.N,P8*%
X17169505Y20138803D03*
D44*
X17169505Y20138803D03*
D46*
X22757505Y20138803D03*
D44*
%TO.P,MCU1,15*%
%TO.N,P7*%
X17169505Y22678803D03*
D46*
X22757505Y22678803D03*
D45*
X17169505Y22678803D03*
%TO.P,MCU1,16*%
%TO.N,P6*%
X17169505Y25218803D03*
D44*
X17169505Y25218803D03*
D46*
X22757505Y25218803D03*
D45*
%TO.P,MCU1,17*%
%TO.N,P5*%
X17169505Y27758803D03*
D46*
X22757505Y27758803D03*
D44*
X17169505Y27758803D03*
%TO.P,MCU1,18*%
%TO.N,P4*%
X17169505Y30298803D03*
D46*
X22757505Y30298803D03*
D45*
X17169505Y30298803D03*
%TO.P,MCU1,19*%
%TO.N,P3*%
X17169505Y32838803D03*
D44*
X17169505Y32838803D03*
D46*
X22757505Y32838803D03*
%TO.P,MCU1,20*%
%TO.N,P2*%
X22757505Y35378803D03*
D45*
X17169505Y35378803D03*
D44*
X17169505Y35378803D03*
D46*
%TO.P,MCU1,21*%
%TO.N,GND*%
X22757505Y37918803D03*
D45*
X17169505Y37918803D03*
D44*
X17169505Y37918803D03*
D45*
%TO.P,MCU1,22*%
X17169505Y40458803D03*
D46*
X22757505Y40458803D03*
D44*
X17169505Y40458803D03*
D45*
%TO.P,MCU1,23*%
%TO.N,P0*%
X17169505Y42998803D03*
D44*
X17169505Y42998803D03*
D46*
X22757505Y42998803D03*
D44*
%TO.P,MCU1,24*%
%TO.N,P1*%
X17169505Y45538803D03*
D45*
X17169505Y45538803D03*
D46*
X22757505Y45538803D03*
%TD*%
D19*
%TO.P,S13,1*%
%TO.N,middle_top*%
X96250261Y54959755D03*
%TO.P,S13,2*%
%TO.N,P19*%
X107381676Y51173716D03*
%TD*%
D14*
%TO.P,D14,1*%
%TO.N,index_bottom*%
X114699434Y721738D03*
D17*
%TO.N,P3*%
X109339749Y1763555D03*
%TO.P,D14,2*%
%TO.N,index_bottom*%
X112579119Y1133885D03*
D18*
%TO.N,P3*%
X107219434Y2175702D03*
%TD*%
D10*
%TO.P,S2,1*%
%TO.N,outer_bottom*%
X34051025Y8684925D03*
%TO.P,S2,2*%
%TO.N,P14*%
X45470057Y5883460D03*
%TD*%
D14*
%TO.P,D10,1*%
%TO.N,ring_top*%
X80805809Y39179128D03*
D27*
%TO.N,P16*%
X75366586Y39654998D03*
D28*
%TO.P,D10,2*%
X73214805Y39843254D03*
D27*
%TO.N,ring_top*%
X78654028Y39367384D03*
%TD*%
D17*
%TO.P,D17,1*%
%TO.N,P3*%
X126627420Y-3634261D03*
D14*
%TO.N,inner_bottom*%
X131987105Y-4676078D03*
D18*
%TO.P,D17,2*%
%TO.N,P3*%
X124507105Y-3222114D03*
D17*
%TO.N,inner_bottom*%
X129866790Y-4263931D03*
%TD*%
D47*
%TO.P,REF\u002A\u002A,1*%
%TO.N,pos*%
X32584193Y51870878D03*
%TD*%
D48*
%TO.N,outer_top*%
X42332659Y36136118D02*
X35830447Y42638330D01*
X42332659Y31332536D02*
X42332659Y36136118D01*
X40288665Y31332536D02*
X40175619Y31445582D01*
X42332659Y31332536D02*
X40288665Y31332536D01*
X42219613Y31445582D02*
X42332659Y31332536D01*
X40175619Y31445582D02*
X40175619Y31710301D01*
%TO.N,outouter_bottom*%
X22931505Y5378803D02*
X22931505Y3218803D01*
X11981505Y-1426196D02*
X18786504Y5378803D01*
X18786504Y5378803D02*
X22931505Y5378803D01*
X11981505Y-1706197D02*
X11981505Y-1426196D01*
%TO.N,P4*%
X9845514Y29173803D02*
X16044505Y29173803D01*
X14181505Y9843803D02*
X9186505Y14838803D01*
X16044505Y29173803D02*
X17169505Y30298803D01*
X9186505Y14838803D02*
X9186505Y28514794D01*
X9186505Y28514794D02*
X9845514Y29173803D01*
%TO.N,P3*%
X108927602Y2175702D02*
X109339749Y1763555D01*
X111412105Y-308801D02*
X111412105Y-6812076D01*
X99881396Y-2534924D02*
X97571469Y-4844851D01*
X66442470Y-4856198D02*
X66446834Y-4851834D01*
X9141598Y-5306198D02*
X8736505Y-4901105D01*
X94115085Y7709579D02*
X91603616Y10221049D01*
X22931505Y-81197D02*
X30802808Y-81197D01*
X47825336Y-5362264D02*
X51023682Y-2163918D01*
X91303002Y10521663D02*
X91603616Y10221049D01*
X72215034Y5972634D02*
X72403290Y5784378D01*
X80694792Y-4575800D02*
X84421867Y-848725D01*
X109339749Y1763555D02*
X111412105Y-308801D01*
X111412105Y-6812076D02*
X111250459Y-6973722D01*
X38127869Y-5362264D02*
X47825336Y-5362264D01*
X66446834Y-1816938D02*
X70251509Y1987737D01*
X66446834Y-5486834D02*
X66446834Y-7634472D01*
X19866504Y-5306198D02*
X9141598Y-5306198D01*
X85621730Y10521663D02*
X89464637Y10521663D01*
X111250459Y-11734655D02*
X113091376Y-13575572D01*
X70251509Y5972634D02*
X72215034Y5972634D01*
X107219434Y2175702D02*
X108927602Y2175702D01*
X124507105Y-3222114D02*
X126215273Y-3222114D01*
X66446834Y-5436034D02*
X66446834Y-1816938D01*
X113091376Y-13575572D02*
X114948055Y-13575572D01*
X51023682Y-1166857D02*
X53067676Y-1166857D01*
X22931505Y-2241197D02*
X22931505Y-81197D01*
X34987673Y-2222068D02*
X35100719Y-2335114D01*
X94110242Y2707103D02*
X94115085Y2711946D01*
X118775764Y-11497231D02*
X122101978Y-8171016D01*
X76479400Y-4575800D02*
X80694792Y-4575800D01*
X123451864Y-3222114D02*
X124507105Y-3222114D01*
X16044505Y31713803D02*
X17169505Y32838803D01*
X94110242Y-2790796D02*
X94110242Y2707103D01*
X97571469Y-4844851D02*
X96164297Y-4844851D01*
X35100719Y-2335114D02*
X38127869Y-5362264D01*
X32943679Y-2222068D02*
X34987673Y-2222068D01*
X89464637Y10521663D02*
X91303002Y10521663D01*
X30802808Y-81197D02*
X32943679Y-2222068D01*
X53180722Y-1279903D02*
X57263083Y-5362264D01*
X96164297Y-4844851D02*
X94110242Y-2790796D01*
X22931505Y-2241197D02*
X19866504Y-5306198D01*
X8736505Y-4901105D02*
X8736505Y30314795D01*
X117026396Y-11497231D02*
X118775764Y-11497231D01*
X66373064Y-5362264D02*
X66446834Y-5436034D01*
X122101978Y-8171016D02*
X122101978Y-4572000D01*
X8736505Y30314795D02*
X10135514Y31713803D01*
X71795170Y-9260030D02*
X76479400Y-4575800D01*
X122101978Y-4572000D02*
X123451864Y-3222114D01*
X126215273Y-3222114D02*
X126627420Y-3634261D01*
X66446834Y-1816938D02*
X66446834Y-4851834D01*
X51023682Y-2163918D02*
X51023682Y-1166857D01*
X107219434Y2175702D02*
X106452833Y2175702D01*
X114948055Y-13575572D02*
X117026396Y-11497231D01*
X94115085Y2711946D02*
X94115085Y7709579D01*
X53067676Y-1166857D02*
X53180722Y-1279903D01*
X106452833Y2175702D02*
X101742207Y-2534924D01*
X111250459Y-6973722D02*
X111250459Y-11734655D01*
X10135514Y31713803D02*
X16044505Y31713803D01*
X70251509Y1987737D02*
X70251509Y5972634D01*
X101742207Y-2534924D02*
X99881396Y-2534924D01*
X66446834Y-7634472D02*
X68072392Y-9260030D01*
X57263083Y-5362264D02*
X66373064Y-5362264D01*
X66446834Y-5436034D02*
X66446834Y-5486834D01*
X84421867Y-848725D02*
X84421867Y9321800D01*
X68072392Y-9260030D02*
X71795170Y-9260030D01*
X84421867Y9321800D02*
X85621730Y10521663D01*
%TO.N,outer_bottom*%
X39099639Y-1167270D02*
X40553237Y-2620868D01*
X38509243Y-2620868D02*
X38396197Y-2507822D01*
X40553237Y-2620868D02*
X38509243Y-2620868D01*
X34051025Y8684925D02*
X39099639Y3636311D01*
X39099639Y3636311D02*
X39099639Y-1167270D01*
%TO.N,P14*%
X46359768Y22860162D02*
X46359768Y38947154D01*
X45470057Y21970451D02*
X46359768Y22860162D01*
X45470057Y5883460D02*
X45470057Y21970451D01*
X30731486Y40595427D02*
X30731486Y26614189D01*
X46359768Y38947154D02*
X47249479Y39836865D01*
X42139202Y44947142D02*
X35083201Y44947142D01*
X47249479Y39836865D02*
X42139202Y44947142D01*
X19818505Y23803803D02*
X18693505Y22678803D01*
X35083201Y44947142D02*
X30731486Y40595427D01*
X27921100Y23803803D02*
X19818505Y23803803D01*
X30731486Y26614189D02*
X27921100Y23803803D01*
%TO.N,outer_home*%
X40095910Y20506453D02*
X34940736Y25661627D01*
X41329902Y14468880D02*
X41442948Y14355834D01*
X39285908Y14468880D02*
X41329902Y14468880D01*
X41442948Y14355834D02*
X40095910Y15702872D01*
X40095910Y15702872D02*
X40095910Y20506453D01*
%TO.N,P10*%
X101749791Y13844213D02*
X99958612Y15635392D01*
X81977802Y5600002D02*
X81977802Y-73894D01*
X33946436Y14641588D02*
X33833390Y14754634D01*
X35990430Y14641588D02*
X33946436Y14641588D01*
X121651978Y-7984620D02*
X118589368Y-11047231D01*
X95962828Y2979776D02*
X99402562Y2979776D01*
X97081662Y16861342D02*
X97081662Y18923440D01*
X77465597Y19139029D02*
X77465597Y10112207D01*
X83971867Y-662329D02*
X83971867Y10564471D01*
X113062412Y-5798164D02*
X118917396Y-5798164D01*
X83971867Y10564471D02*
X85236491Y11829095D01*
X123051145Y5911771D02*
X121651978Y4512604D01*
X35990430Y14641588D02*
X39874545Y10757473D01*
X81977802Y-73894D02*
X79729204Y-2322492D01*
X96350693Y-4394851D02*
X94560242Y-2604400D01*
X65086242Y4782400D02*
X65702600Y5398758D01*
X127031304Y13465548D02*
X123051145Y9485389D01*
X47611312Y7445545D02*
X46852657Y8204200D01*
X107688560Y18863364D02*
X103549791Y14724595D01*
X73696682Y22907944D02*
X73884938Y22719688D01*
X80508396Y-4125800D02*
X83971867Y-662329D01*
X46370057Y8204200D02*
X46370057Y15214600D01*
X116574102Y6758912D02*
X115196200Y8136814D01*
X29864221Y18723803D02*
X33833390Y14754634D01*
X51913394Y15809846D02*
X53957388Y15809846D01*
X71733157Y22907944D02*
X73696682Y22907944D01*
X97740411Y19582189D02*
X97740411Y23284754D01*
X70768678Y-739482D02*
X68160686Y-739482D01*
X47611312Y4332261D02*
X47611312Y7445545D01*
X46852657Y8204200D02*
X46370057Y8204200D01*
X65702600Y5398758D02*
X65702600Y8501772D01*
X118917396Y-5798164D02*
X119851978Y-4863583D01*
X97740411Y23284754D02*
X93969559Y27055606D01*
X99402562Y2979776D02*
X101749791Y5327005D01*
X66896834Y-2003334D02*
X66896834Y-7448076D01*
X99695000Y-2084924D02*
X97385073Y-4394851D01*
X111700459Y-7160118D02*
X113062412Y-5798164D01*
X57954548Y11812686D02*
X57954548Y5874256D01*
X66896834Y-7448076D02*
X68258788Y-8810030D01*
X97385073Y-4394851D02*
X96350693Y-4394851D01*
X69273916Y22907944D02*
X71733157Y22907944D01*
X110463186Y18863364D02*
X112171354Y18863364D01*
X71999396Y-4125800D02*
X80508396Y-4125800D01*
X83953135Y24765000D02*
X86544355Y27356220D01*
X98307612Y15635392D02*
X97081662Y16861342D01*
X127750858Y13465548D02*
X127031304Y13465548D01*
X18693505Y17598803D02*
X19818505Y18723803D01*
X71546836Y-7448076D02*
X71546836Y-4578360D01*
X114761659Y-13125572D02*
X113277772Y-13125572D01*
X65339772Y8864600D02*
X65339772Y18973800D01*
X68258788Y-8810030D02*
X70184882Y-8810030D01*
X41190204Y3690200D02*
X46969251Y3690200D01*
X46370057Y15214600D02*
X46965303Y15809846D01*
X94560242Y1577189D02*
X95962828Y2979776D01*
X73884938Y22719688D02*
X77465597Y19139029D01*
X103549791Y14724595D02*
X103549791Y-90944D01*
X115196200Y8136814D02*
X115196200Y15838518D01*
X54070434Y15696800D02*
X57954548Y11812686D01*
X115196200Y15838518D02*
X112583501Y18451217D01*
X113277772Y-13125572D02*
X111700459Y-11548259D01*
X116840000Y-11047231D02*
X114761659Y-13125572D01*
X83953135Y16454461D02*
X83953135Y24765000D01*
X79729204Y-2322492D02*
X72351688Y-2322492D01*
X53957388Y15809846D02*
X54070434Y15696800D01*
X99958612Y15635392D02*
X98307612Y15635392D01*
X71546836Y-4578360D02*
X71999396Y-4125800D01*
X112171354Y18863364D02*
X112583501Y18451217D01*
X39874545Y5005859D02*
X41190204Y3690200D01*
X118803834Y6758912D02*
X116574102Y6758912D01*
X86544355Y27356220D02*
X91830580Y27356220D01*
X110463186Y18863364D02*
X107688560Y18863364D01*
X72351688Y-2322492D02*
X70768678Y-739482D01*
X118589368Y-11047231D02*
X116840000Y-11047231D01*
X129459026Y13465548D02*
X129871173Y13053401D01*
X19818505Y18723803D02*
X29864221Y18723803D01*
X46965303Y15809846D02*
X51913394Y15809846D01*
X101555811Y-2084924D02*
X99695000Y-2084924D01*
X97081662Y18923440D02*
X97740411Y19582189D01*
X121651978Y4512604D02*
X121651978Y-7984620D01*
X65702600Y8501772D02*
X65339772Y8864600D01*
X39874545Y10757473D02*
X39874545Y5005859D01*
X57954548Y5874256D02*
X59046404Y4782400D01*
X111700459Y-11548259D02*
X111700459Y-7160118D01*
X127750858Y13465548D02*
X129459026Y13465548D01*
X65339772Y18973800D02*
X69273916Y22907944D01*
X123051145Y9485389D02*
X123051145Y5911771D01*
X77465597Y10112207D02*
X81977802Y5600002D01*
X70184882Y-8810030D02*
X71546836Y-7448076D01*
X94560242Y-2604400D02*
X94560242Y1577189D01*
X93668945Y27356220D02*
X93969559Y27055606D01*
X68160686Y-739482D02*
X66896834Y-2003334D01*
X103549791Y-90944D02*
X101555811Y-2084924D01*
X119851978Y-4863583D02*
X119851978Y5710768D01*
X85236491Y11829095D02*
X85236491Y15171105D01*
X59046404Y4782400D02*
X65086242Y4782400D01*
X101749791Y5327005D02*
X101749791Y13844213D01*
X119851978Y5710768D02*
X118803834Y6758912D01*
X91830580Y27356220D02*
X93668945Y27356220D01*
X85236491Y15171105D02*
X83953135Y16454461D01*
X46969251Y3690200D02*
X47611312Y4332261D01*
%TO.N,P16*%
X124445730Y22584826D02*
X125980825Y24119921D01*
X98494008Y16085392D02*
X100145008Y16085392D01*
X68445184Y-8360030D02*
X69998486Y-8360030D01*
X105465734Y31754841D02*
X109261920Y35551027D01*
X99897605Y29687129D02*
X100653922Y28930812D01*
X65779483Y38286018D02*
X65779483Y25654000D01*
X103099791Y95452D02*
X103099791Y14910991D01*
X131406758Y29741063D02*
X130994611Y30153210D01*
X19818505Y21263803D02*
X18693505Y20138803D01*
X66131027Y25302456D02*
X66131027Y22550571D01*
X120301978Y5897164D02*
X120301978Y-5049979D01*
X42720448Y9227414D02*
X42720448Y14884992D01*
X113706939Y35551027D02*
X115415107Y35551027D01*
X34723101Y31731336D02*
X31181486Y28189721D01*
X46822756Y25453232D02*
X48051023Y24224965D01*
X64889772Y21309316D02*
X64889772Y8636000D01*
X99588958Y2529776D02*
X96149224Y2529776D01*
X115827254Y35138880D02*
X118167546Y32798588D01*
X64899846Y5232400D02*
X59232800Y5232400D01*
X41046400Y27452030D02*
X36880141Y31618290D01*
X73214805Y39843254D02*
X67336719Y39843254D01*
X54847099Y32786548D02*
X54960145Y32673502D01*
X84984783Y44094400D02*
X85081160Y44190777D01*
X84786491Y14984709D02*
X83503135Y16268065D01*
X46809768Y32562800D02*
X46809768Y25453232D01*
X66131027Y22550571D02*
X64889772Y21309316D01*
X80601661Y17384209D02*
X77915597Y14698146D01*
X105465734Y17276934D02*
X105465734Y31754841D01*
X112150459Y-8950259D02*
X113797431Y-10597231D01*
X73214805Y39843254D02*
X75178330Y39843254D01*
X34723101Y31731336D02*
X36767095Y31731336D01*
X116760498Y7208912D02*
X118990230Y7208912D01*
X118167546Y18991698D02*
X119220686Y17938558D01*
X86268139Y29255000D02*
X86268139Y31887740D01*
X31181486Y28189721D02*
X31181486Y26427793D01*
X129638660Y30153210D02*
X130994611Y30153210D01*
X48051023Y21495359D02*
X45920057Y19364393D01*
X64908790Y8636000D02*
X65252600Y8292190D01*
X86268139Y31887740D02*
X85851153Y32304726D01*
X65252600Y8292190D02*
X65252600Y5585154D01*
X70582282Y-1189482D02*
X68347082Y-1189482D01*
X119220686Y13419102D02*
X115646200Y9844616D01*
X119220686Y17938558D02*
X119220686Y13419102D01*
X40324545Y6831511D02*
X42720448Y9227414D01*
X95010242Y1390793D02*
X95010242Y-293642D01*
X68347082Y-1189482D02*
X67346834Y-2189730D01*
X75178330Y39843254D02*
X75366586Y39654998D01*
X26017496Y21263803D02*
X19818505Y21263803D01*
X75996800Y-3672492D02*
X76000108Y-3675800D01*
X95010242Y-293642D02*
X96351524Y-1634924D01*
X58404548Y7886723D02*
X60818912Y10301088D01*
X118402972Y-10597231D02*
X121201978Y-7798225D01*
X82603135Y-84957D02*
X79915600Y-2772492D01*
X115646200Y8323210D02*
X116760498Y7208912D01*
X96149224Y2529776D02*
X95010242Y1390793D01*
X85664339Y28651200D02*
X86268139Y29255000D01*
X59232800Y5232400D02*
X58404548Y6060652D01*
X47161312Y7248263D02*
X47161312Y4518657D01*
X46782855Y4140200D02*
X41376600Y4140200D01*
X84786491Y12015491D02*
X84786491Y14984709D01*
X84988400Y32304726D02*
X84984783Y32308343D01*
X122601145Y9671785D02*
X124445730Y11516370D01*
X67346834Y-2189730D02*
X67346834Y-7261680D01*
X80601661Y26080674D02*
X80601661Y17384209D01*
X109261920Y35551027D02*
X113706939Y35551027D01*
X40324545Y5192255D02*
X40324545Y6831511D01*
X113797431Y-10597231D02*
X118402972Y-10597231D01*
X69998486Y-8360030D02*
X71096836Y-7261680D01*
X82603135Y5611065D02*
X82603135Y-84957D01*
X120301978Y-5049979D02*
X119103792Y-6248164D01*
X115415107Y35551027D02*
X115827254Y35138880D01*
X47161312Y4518657D02*
X46782855Y4140200D01*
X122601145Y6098167D02*
X122601145Y9671785D01*
X115646200Y9844616D02*
X115646200Y8323210D01*
X133114926Y29741063D02*
X131406758Y29741063D01*
X60818912Y15921744D02*
X59294260Y17446396D01*
X83503135Y-494665D02*
X83503135Y10732135D01*
X96351524Y-1634924D02*
X101369415Y-1634924D01*
X83503135Y10732135D02*
X84786491Y12015491D01*
X59294260Y28339387D02*
X54960145Y32673502D01*
X97531662Y18737044D02*
X97531662Y17047738D01*
X46662575Y7747000D02*
X47161312Y7248263D01*
X79915600Y-2772492D02*
X72165292Y-2772492D01*
X85851153Y32304726D02*
X84988400Y32304726D01*
X101369415Y-1634924D02*
X103099791Y95452D01*
X48051023Y24224965D02*
X48051023Y21495359D01*
X99897605Y40328060D02*
X99897605Y29687129D01*
X83503135Y28651200D02*
X85664339Y28651200D01*
X103099791Y14910991D02*
X105465734Y17276934D01*
X84984783Y32308343D02*
X84984783Y44094400D01*
X41376600Y4140200D02*
X40324545Y5192255D01*
X60818912Y10301088D02*
X60818912Y15921744D01*
X65252600Y5585154D02*
X64899846Y5232400D01*
X102199791Y14030609D02*
X102199791Y5140609D01*
X71096836Y-7261680D02*
X71096836Y-4391964D01*
X45920057Y19364393D02*
X45920057Y7747000D01*
X94196523Y44190777D02*
X96034888Y44190777D01*
X64889772Y8636000D02*
X64908790Y8636000D01*
X97531662Y17047738D02*
X98494008Y16085392D01*
X113248808Y-6248164D02*
X112150459Y-7346514D01*
X71096836Y-4391964D02*
X71816308Y-3672492D01*
X121201978Y4699000D02*
X122601145Y6098167D01*
X36767095Y31731336D02*
X36880141Y31618290D01*
X125980825Y24119921D02*
X125980825Y26495375D01*
X125980825Y26495375D02*
X129638660Y30153210D01*
X85081160Y44190777D02*
X94196523Y44190777D01*
X77915597Y14698146D02*
X77915597Y10298603D01*
X100653922Y28930812D02*
X100653922Y21859304D01*
X65779483Y25654000D02*
X66131027Y25302456D01*
X124445730Y11516370D02*
X124445730Y22584826D01*
X96335502Y43890163D02*
X99897605Y40328060D01*
X75366586Y39654998D02*
X79397245Y35624339D01*
X76000108Y-3675800D02*
X80322000Y-3675800D01*
X52803105Y32786548D02*
X47033516Y32786548D01*
X100653922Y21859304D02*
X97531662Y18737044D01*
X80322000Y-3675800D02*
X83503135Y-494665D01*
X67336719Y39843254D02*
X65779483Y38286018D01*
X58404548Y6060652D02*
X58404548Y7886723D01*
X45920057Y7747000D02*
X46662575Y7747000D01*
X71816308Y-3672492D02*
X75996800Y-3672492D01*
X118990230Y7208912D02*
X120301978Y5897164D01*
X79397245Y27285089D02*
X80601661Y26080674D01*
X102199791Y5140609D02*
X99588958Y2529776D01*
X41046400Y16559040D02*
X41046400Y27452030D01*
X96034888Y44190777D02*
X96335502Y43890163D01*
X77915597Y10298603D02*
X82603135Y5611065D01*
X72165292Y-2772492D02*
X70582282Y-1189482D01*
X52803105Y32786548D02*
X54847099Y32786548D01*
X59294260Y17446396D02*
X59294260Y28339387D01*
X83503135Y16268065D02*
X83503135Y28651200D01*
X46809768Y25453232D02*
X46822756Y25453232D01*
X112150459Y-7346514D02*
X112150459Y-8950259D01*
X42720448Y14884992D02*
X41046400Y16559040D01*
X100145008Y16085392D02*
X102199791Y14030609D01*
X79397245Y35624339D02*
X79397245Y27285089D01*
X119103792Y-6248164D02*
X113248808Y-6248164D01*
X67346834Y-7261680D02*
X68445184Y-8360030D01*
X118167546Y32798588D02*
X118167546Y18991698D01*
X31181486Y26427793D02*
X26017496Y21263803D01*
X121201978Y-7798225D02*
X121201978Y4699000D01*
X47033516Y32786548D02*
X46809768Y32562800D01*
%TO.N,pinkie_bottom*%
X57179642Y4691523D02*
X57179642Y-112059D01*
X56589246Y-1565657D02*
X56476200Y-1452611D01*
X52131028Y9740137D02*
X57179642Y4691523D01*
X57179642Y-112059D02*
X58633240Y-1565657D01*
X58633240Y-1565657D02*
X56589246Y-1565657D01*
%TO.N,P15*%
X30281486Y40781823D02*
X30281486Y26800585D01*
X34896805Y45397142D02*
X30281486Y40781823D01*
X65329483Y40892076D02*
X60824417Y45397142D01*
X30281486Y26800585D02*
X29824704Y26343803D01*
X60824417Y45397142D02*
X34896805Y45397142D01*
X65329483Y40892076D02*
X65329483Y24805085D01*
X29824704Y26343803D02*
X19818505Y26343803D01*
X19818505Y26343803D02*
X18693505Y25218803D01*
X64439772Y23915374D02*
X64439772Y7828384D01*
X65329483Y24805085D02*
X64439772Y23915374D01*
X64439772Y7828384D02*
X63550060Y6938672D01*
%TO.N,pinkie_home*%
X58069354Y21668225D02*
X58069354Y16864644D01*
X59522952Y15411046D02*
X57478958Y15411046D01*
X53020740Y26716839D02*
X58069354Y21668225D01*
X57478958Y15411046D02*
X57365912Y15524092D01*
X58069354Y16864644D02*
X59522952Y15411046D01*
%TO.N,pinkie_top*%
X58978800Y38625192D02*
X58978800Y33821611D01*
X53910451Y43693541D02*
X58978800Y38625192D01*
X60412663Y32387748D02*
X58368669Y32387748D01*
X58368669Y32387748D02*
X58255623Y32500794D01*
X58978800Y33821611D02*
X60412663Y32387748D01*
%TO.N,ring_bottom*%
X77015597Y11579603D02*
X77015597Y9925811D01*
X77842513Y9098895D02*
X77842513Y5308508D01*
X77015597Y9925811D02*
X77842513Y9098895D01*
X77654257Y5496764D02*
X77842513Y5308508D01*
X71760862Y16834338D02*
X77015597Y11579603D01*
X75690732Y5496764D02*
X77654257Y5496764D01*
X71738829Y16834338D02*
X71760862Y16834338D01*
%TO.N,P18*%
X20017505Y29082803D02*
X18693505Y27758803D01*
X69507270Y-3222492D02*
X80108292Y-3222492D01*
X80108292Y-3222492D02*
X80111600Y-3225800D01*
X81084796Y52438314D02*
X67424172Y52438314D01*
X29831486Y29159200D02*
X29755089Y29082803D01*
X34710409Y45847142D02*
X29831486Y40968219D01*
X29831486Y40968219D02*
X29831486Y29159200D01*
X84534783Y30571370D02*
X84534783Y46025033D01*
X29755089Y29082803D02*
X20017505Y29082803D01*
X86016430Y47506680D02*
X81084796Y52438314D01*
X60833000Y45847142D02*
X34710409Y45847142D01*
X84534783Y46025033D02*
X86016430Y47506680D01*
X83053135Y-284265D02*
X80111600Y-3225800D01*
X83053135Y13636060D02*
X83053135Y-284265D01*
X67424172Y52438314D02*
X60833000Y45847142D01*
X83053135Y13636060D02*
X83053135Y29089722D01*
X83053135Y29089722D02*
X84534783Y30571370D01*
%TO.N,ring_home*%
X77360636Y22243818D02*
X77172380Y22432074D01*
X79324161Y22243818D02*
X77360636Y22243818D01*
X78053939Y23514040D02*
X79324161Y22243818D01*
X78053939Y28936186D02*
X78053939Y23514040D01*
X73220477Y33769648D02*
X78053939Y28936186D01*
%TO.N,ring_top*%
X79535586Y45871496D02*
X79535586Y40449351D01*
X78842284Y39179128D02*
X78654028Y39367384D01*
X79535586Y40449351D02*
X80805809Y39179128D01*
X74702124Y50704958D02*
X79535586Y45871496D01*
X80805809Y39179128D02*
X78842284Y39179128D01*
%TO.N,middle_bottom*%
X91518376Y21290640D02*
X97010479Y15798537D01*
X94871500Y9761777D02*
X96709865Y9761777D01*
X97010479Y15798537D02*
X97010479Y9461163D01*
X96709865Y9761777D02*
X97010479Y9461163D01*
%TO.N,P19*%
X60646604Y46297142D02*
X67237776Y52888314D01*
X105015734Y19870544D02*
X102649791Y17504601D01*
X80975200Y52888314D02*
X84855886Y56769000D01*
X84855886Y56769000D02*
X101786392Y56769000D01*
X34524013Y46297142D02*
X60646604Y46297142D01*
X29129797Y31423803D02*
X29381486Y31675492D01*
X102649791Y17504601D02*
X102649791Y2679770D01*
X107381676Y36705101D02*
X105015734Y34339159D01*
X101786392Y56769000D02*
X107381676Y51173716D01*
X19818505Y31423803D02*
X29129797Y31423803D01*
X107381676Y51173716D02*
X107381676Y36705101D01*
X67237776Y52888314D02*
X80975200Y52888314D01*
X105015734Y34339159D02*
X105015734Y19870544D01*
X102649791Y2679770D02*
X100128371Y158350D01*
X18693505Y30298803D02*
X19818505Y31423803D01*
X29381486Y41154615D02*
X34524013Y46297142D01*
X29381486Y31675492D02*
X29381486Y41154615D01*
%TO.N,middle_home*%
X99075808Y26596334D02*
X99376422Y26295720D01*
X98388868Y33620649D02*
X98388868Y27283274D01*
X93884319Y38125198D02*
X98388868Y33620649D01*
X98388868Y27283274D02*
X99376422Y26295720D01*
X97237443Y26596334D02*
X99075808Y26596334D01*
%TO.N,middle_top*%
X101742365Y43130277D02*
X99904000Y43130277D01*
X100754810Y50455206D02*
X100754810Y44117832D01*
X96250261Y54959755D02*
X100754810Y50455206D01*
X99904000Y43130277D02*
X99603386Y43430891D01*
X100754810Y44117832D02*
X101742365Y43130277D01*
%TO.N,index_bottom*%
X109833963Y11391373D02*
X114699434Y6525902D01*
X114699434Y6525902D02*
X114699434Y721738D01*
X114287287Y1133885D02*
X114699434Y721738D01*
X112579119Y1133885D02*
X114287287Y1133885D01*
X109833963Y12822437D02*
X109833963Y11391373D01*
%TO.N,P20*%
X28931486Y41341011D02*
X34337617Y46747142D01*
X120751978Y8459014D02*
X120751978Y-5236375D01*
X123995730Y25146676D02*
X123995730Y11702766D01*
X127239483Y41834338D02*
X127239483Y28390429D01*
X18693505Y32838803D02*
X19818505Y33963803D01*
X67051380Y53338314D02*
X80788804Y53338314D01*
X127239483Y28390429D02*
X123995730Y25146676D01*
X34337617Y46747142D02*
X60460208Y46747142D01*
X60460208Y46747142D02*
X67051380Y53338314D01*
X118083216Y47447863D02*
X122950290Y47447863D01*
X19818505Y33963803D02*
X28901197Y33963803D01*
X101972788Y57219000D02*
X106176994Y53014794D01*
X80788804Y53338314D02*
X84669490Y57219000D01*
X123995730Y11702766D02*
X120751978Y8459014D01*
X84669490Y57219000D02*
X101972788Y57219000D01*
X28905200Y33959800D02*
X28931486Y33959800D01*
X28931486Y33959800D02*
X28931486Y41341011D01*
X127239483Y43158670D02*
X127239483Y41834338D01*
X28901197Y33963803D02*
X28905200Y33959800D01*
X122950290Y47447863D02*
X127239483Y43158670D01*
X120751978Y-5236375D02*
X117240289Y-8748064D01*
X112516285Y53014794D02*
X118083216Y47447863D01*
X106176994Y53014794D02*
X112516285Y53014794D01*
%TO.N,index_home*%
X117717546Y23439204D02*
X117717546Y17635040D01*
X113077715Y29510099D02*
X113077715Y28079035D01*
X117531039Y17821547D02*
X117943186Y17409400D01*
X115822871Y17821547D02*
X117531039Y17821547D01*
X113077715Y28079035D02*
X117717546Y23439204D01*
X117717546Y17635040D02*
X117943186Y17409400D01*
%TO.N,index_top*%
X120774792Y34509210D02*
X121186939Y34097063D01*
X121186939Y40007958D02*
X121186939Y34097063D01*
X119066624Y34509210D02*
X120774792Y34509210D01*
X116321468Y44873429D02*
X121186939Y40007958D01*
X116321468Y46197761D02*
X116321468Y44873429D01*
%TO.N,inner_bottom*%
X131987105Y-4676078D02*
X130278937Y-4676078D01*
X130278937Y-4676078D02*
X129866790Y-4263931D01*
X127121634Y7424621D02*
X127121634Y7362900D01*
X127121634Y7362900D02*
X131987105Y2497429D01*
X131987105Y2497429D02*
X131987105Y-4676078D01*
%TO.N,P21*%
X28256889Y36503803D02*
X19818505Y36503803D01*
X126152165Y-12317676D02*
X138039649Y-430192D01*
X60273812Y47197142D02*
X34151221Y47197142D01*
X112702681Y53464794D02*
X106363390Y53464794D01*
X144527155Y36436522D02*
X144527155Y34990778D01*
X80602408Y53788314D02*
X66864984Y53788314D01*
X141283402Y19748860D02*
X141283402Y18303116D01*
X141283402Y31747025D02*
X141283402Y19748860D01*
X84483094Y57669000D02*
X80602408Y53788314D01*
X118269612Y47897863D02*
X112702681Y53464794D01*
X123141242Y47897863D02*
X118269612Y47897863D01*
X122633259Y-12317676D02*
X126152165Y-12317676D01*
X102159184Y57669000D02*
X84483094Y57669000D01*
X28481486Y36728400D02*
X28256889Y36503803D01*
X34151221Y47197142D02*
X28481486Y41527407D01*
X28481486Y41527407D02*
X28481486Y36728400D01*
X138039649Y-430192D02*
X138039649Y3061198D01*
X144527155Y36436522D02*
X144527155Y37760854D01*
X66864984Y53788314D02*
X60273812Y47197142D01*
X106363390Y53464794D02*
X102159184Y57669000D01*
X144527155Y34990778D02*
X141283402Y31747025D01*
X19818505Y36503803D02*
X18693505Y35378803D01*
X127355600Y43683505D02*
X123141242Y47897863D01*
X138604504Y43683505D02*
X127355600Y43683505D01*
X144527155Y37760854D02*
X138604504Y43683505D01*
X141283402Y18303116D02*
X138039649Y15059363D01*
X138039649Y15059363D02*
X138039649Y3061198D01*
%TO.N,inner_home*%
X133522690Y12011584D02*
X133110543Y12423731D01*
X135230858Y17815748D02*
X135230858Y12011584D01*
X130365387Y22681219D02*
X135230858Y17815748D01*
X135230858Y12011584D02*
X133522690Y12011584D01*
X130365387Y24112283D02*
X130365387Y22681219D01*
%TO.N,inner_top*%
X138474611Y28699246D02*
X136766443Y28699246D01*
X138474611Y34503410D02*
X138474611Y28699246D01*
X133609140Y40799945D02*
X133609140Y39368881D01*
X133609140Y39368881D02*
X138474611Y34503410D01*
X136766443Y28699246D02*
X136354296Y29111393D01*
%TO.N,ctrl_first*%
X72732826Y-14536798D02*
X76684730Y-10584894D01*
X76684730Y-10584894D02*
X77646566Y-10584894D01*
X77646566Y-10584894D02*
X77646566Y-8621369D01*
X77646566Y-8621369D02*
X77834822Y-8433113D01*
X66308992Y-14536798D02*
X72732826Y-14536798D01*
%TO.N,P2*%
X8286505Y32518105D02*
X10022203Y34253803D01*
X87243831Y-7125202D02*
X86943217Y-6824588D01*
X105828060Y-15443523D02*
X104119892Y-15443523D01*
X118165563Y-27781026D02*
X105828060Y-15443523D01*
X128916570Y-25850220D02*
X126985764Y-27781026D01*
X74697004Y-18497809D02*
X67220277Y-18497809D01*
X129328717Y-23729905D02*
X129328717Y-25438073D01*
X16044505Y34253803D02*
X17169505Y35378803D01*
X10022203Y34253803D02*
X16044505Y34253803D01*
X77170696Y-16024117D02*
X74697004Y-18497809D01*
X104119892Y-15443523D02*
X103707745Y-15031376D01*
X62606664Y-5812264D02*
X8999474Y-5812264D01*
X63322200Y-14599732D02*
X63322200Y-6527800D01*
X77358952Y-13872336D02*
X77358952Y-15835861D01*
X8286505Y-5099295D02*
X8286505Y32518105D01*
X77358952Y-15835861D02*
X77170696Y-16024117D01*
X63322200Y-6527800D02*
X62606664Y-5812264D01*
X84406700Y-6824588D02*
X77358952Y-13872336D01*
X96988370Y-15031376D02*
X89082196Y-7125202D01*
X86943217Y-6824588D02*
X84406700Y-6824588D01*
X8999474Y-5812264D02*
X8286505Y-5099295D01*
X126985764Y-27781026D02*
X118165563Y-27781026D01*
X103707745Y-15031376D02*
X96988370Y-15031376D01*
X129328717Y-25438073D02*
X128916570Y-25850220D01*
X89082196Y-7125202D02*
X87243831Y-7125202D01*
X67220277Y-18497809D02*
X63322200Y-14599732D01*
%TO.N,alt_first*%
X92650694Y-7885088D02*
X92350080Y-7584474D01*
X94489059Y-7885088D02*
X92650694Y-7885088D01*
X93501505Y-560160D02*
X93501505Y-6897534D01*
X88996956Y3944389D02*
X93501505Y-560160D01*
X93501505Y-6897534D02*
X94489059Y-7885088D01*
%TO.N,shift_first*%
X109067430Y-16073193D02*
X110775598Y-16073193D01*
X106322274Y-4384641D02*
X106322274Y-5814474D01*
X110800459Y-16098054D02*
X111187745Y-16485340D01*
X110775598Y-16073193D02*
X111187745Y-16485340D01*
X106322274Y-5814474D02*
X110800459Y-10292659D01*
X110800459Y-10292659D02*
X110800459Y-16098054D01*
%TO.N,e_first*%
X123197028Y-18370220D02*
X130370534Y-18370220D01*
X129958387Y-18782367D02*
X130370534Y-18370220D01*
X118269836Y-23235691D02*
X118331557Y-23235691D01*
X129958387Y-20490535D02*
X129958387Y-18782367D01*
X118331557Y-23235691D02*
X123197028Y-18370220D01*
%TO.N,RAW*%
X31959193Y47224593D02*
X31648400Y46913800D01*
X38647478Y51245878D02*
X32325309Y51245878D01*
X40405739Y53033123D02*
X40405739Y53004139D01*
X32325309Y51245878D02*
X31953200Y51617987D01*
X31953200Y53369046D02*
X32701949Y54117795D01*
X40405739Y53004139D02*
X38647478Y51245878D01*
X31953200Y51617987D02*
X31953200Y53369046D01*
X31959193Y53375039D02*
X31959193Y47224593D01*
X32701949Y54117795D02*
X31959193Y53375039D01*
X20068502Y46913800D02*
X18693505Y45538803D01*
X31648400Y46913800D02*
X20068502Y46913800D01*
%TO.N,GND*%
X48020233Y54066027D02*
X47830802Y54255458D01*
X9186505Y45071898D02*
X9186505Y46004794D01*
X10134600Y44123803D02*
X9186505Y45071898D01*
X31509193Y47421800D02*
X31503200Y47427793D01*
X18693505Y42998803D02*
X17568505Y44123803D01*
X36986450Y55394481D02*
X33001711Y55394481D01*
X10603511Y47421800D02*
X31509193Y47421800D01*
X31503200Y47427793D02*
X31503200Y54338486D01*
X33001711Y55394481D02*
X32780453Y55615739D01*
X47830802Y54255458D02*
X42909551Y54255458D01*
X37325437Y55733468D02*
X36986450Y55394481D01*
X42909551Y54255458D02*
X41431541Y55733468D01*
X9186505Y46004794D02*
X10603511Y47421800D01*
X31503200Y54338486D02*
X32780453Y55615739D01*
X41431541Y55733468D02*
X37325437Y55733468D01*
X17568505Y44123803D02*
X10134600Y44123803D01*
%TO.N,RST*%
X49326800Y47647142D02*
X33964825Y47647142D01*
X19818505Y41583803D02*
X18693505Y40458803D01*
X51415573Y53888085D02*
X51415573Y49735915D01*
X33964825Y47647142D02*
X27901486Y41583803D01*
X27901486Y41583803D02*
X19818505Y41583803D01*
X51415573Y49735915D02*
X49326800Y47647142D01*
%TO.N,VCC*%
X13105505Y37918803D02*
X13830505Y38643803D01*
X17968505Y38643803D02*
X18693505Y37918803D01*
X13830505Y38643803D02*
X17968505Y38643803D01*
%TO.N,pos*%
X37409850Y53190131D02*
X36090597Y51870878D01*
X36090597Y51870878D02*
X32584193Y51870878D01*
%TD*%
M02*
