%TF.GenerationSoftware,KiCad,Pcbnew,(6.0.9)*%
%TF.CreationDate,2022-11-07T09:36:57+01:00*%
%TF.ProjectId,itemun,6974656d-756e-42e6-9b69-6361645f7063,v1.0.0*%
%TF.SameCoordinates,Original*%
%TF.FileFunction,Soldermask,Top*%
%TF.FilePolarity,Negative*%
%FSLAX46Y46*%
G04 Gerber Fmt 4.6, Leading zero omitted, Abs format (unit mm)*
G04 Created by KiCad (PCBNEW (6.0.9)) date 2022-11-07 09:36:57*
%MOMM*%
%LPD*%
G01*
G04 APERTURE LIST*
G04 Aperture macros list*
%AMRoundRect*
0 Rectangle with rounded corners*
0 $1 Rounding radius*
0 $2 $3 $4 $5 $6 $7 $8 $9 X,Y pos of 4 corners*
0 Add a 4 corners polygon primitive as box body*
4,1,4,$2,$3,$4,$5,$6,$7,$8,$9,$2,$3,0*
0 Add four circle primitives for the rounded corners*
1,1,$1+$1,$2,$3*
1,1,$1+$1,$4,$5*
1,1,$1+$1,$6,$7*
1,1,$1+$1,$8,$9*
0 Add four rect primitives between the rounded corners*
20,1,$1+$1,$2,$3,$4,$5,0*
20,1,$1+$1,$4,$5,$6,$7,0*
20,1,$1+$1,$6,$7,$8,$9,0*
20,1,$1+$1,$8,$9,$2,$3,0*%
%AMFreePoly0*
4,1,14,0.635355,0.435355,0.650000,0.400000,0.650000,0.200000,0.635355,0.164645,0.035355,-0.435355,0.000000,-0.450000,-0.035355,-0.435355,-0.635355,0.164645,-0.650000,0.200000,-0.650000,0.400000,-0.635355,0.435355,-0.600000,0.450000,0.600000,0.450000,0.635355,0.435355,0.635355,0.435355,$1*%
%AMFreePoly1*
4,1,16,0.635355,1.035355,0.650000,1.000000,0.650000,-0.250000,0.635355,-0.285355,0.600000,-0.300000,-0.600000,-0.300000,-0.635355,-0.285355,-0.650000,-0.250000,-0.650000,1.000000,-0.635355,1.035355,-0.600000,1.050000,-0.564645,1.035355,0.000000,0.470710,0.564645,1.035355,0.600000,1.050000,0.635355,1.035355,0.635355,1.035355,$1*%
G04 Aperture macros list end*
%ADD10C,0.250000*%
%ADD11C,0.100000*%
%ADD12C,1.801800*%
%ADD13C,3.100000*%
%ADD14C,3.529000*%
%ADD15RoundRect,0.050000X-1.366255X-1.230182X1.230182X-1.366255X1.366255X1.230182X-1.230182X1.366255X0*%
%ADD16C,1.100000*%
%ADD17RoundRect,0.050000X-1.524167X-1.028064X1.028064X-1.524167X1.524167X1.028064X-1.028064X1.524167X0*%
%ADD18C,2.005000*%
%ADD19RoundRect,0.050000X0.503112X-0.556218X0.674840X0.327247X-0.503112X0.556218X-0.674840X-0.327247X0*%
%ADD20RoundRect,0.050000X0.703037X-1.042296X1.042296X0.703037X-0.703037X1.042296X-1.042296X-0.703037X0*%
%ADD21RoundRect,0.050000X1.300000X-1.300000X1.300000X1.300000X-1.300000X1.300000X-1.300000X-1.300000X0*%
%ADD22RoundRect,0.050000X-0.556218X-0.503112X0.327247X-0.674840X0.556218X0.503112X-0.327247X0.674840X0*%
%ADD23RoundRect,0.050000X-1.042296X-0.703037X0.703037X-1.042296X1.042296X0.703037X-0.703037X1.042296X0*%
%ADD24RoundRect,0.050000X-1.468274X-1.106423X1.106423X-1.468274X1.468274X1.106423X-1.106423X1.468274X0*%
%ADD25RoundRect,0.050000X-0.480785X-0.575627X0.417982X-0.622729X0.480785X0.575627X-0.417982X0.622729X0*%
%ADD26RoundRect,0.050000X-0.934308X-0.841255X0.841255X-0.934308X0.934308X0.841255X-0.841255X0.934308X0*%
%ADD27RoundRect,0.050000X1.028064X-1.524167X1.524167X1.028064X-1.028064X1.524167X-1.524167X-1.028064X0*%
%ADD28C,1.000000*%
%ADD29RoundRect,0.050000X-0.500000X-0.400000X0.500000X-0.400000X0.500000X0.400000X-0.500000X0.400000X0*%
%ADD30RoundRect,0.050000X-0.350000X-0.750000X0.350000X-0.750000X0.350000X0.750000X-0.350000X0.750000X0*%
%ADD31RoundRect,0.050000X-0.450000X-0.850000X0.450000X-0.850000X0.450000X0.850000X-0.450000X0.850000X0*%
%ADD32RoundRect,0.050000X-1.408356X-1.181751X1.181751X-1.408356X1.408356X1.181751X-1.181751X1.408356X0*%
%ADD33RoundRect,0.050000X-0.500581X-0.558497X0.395994X-0.636937X0.500581X0.558497X-0.395994X0.636937X0*%
%ADD34RoundRect,0.050000X-0.963099X-0.808136X0.808136X-0.963099X0.963099X0.808136X-0.808136X0.963099X0*%
%ADD35RoundRect,0.050000X1.181751X-1.408356X1.408356X1.181751X-1.181751X1.408356X-1.408356X-1.181751X0*%
%ADD36RoundRect,0.050000X-0.529124X-0.531533X0.362117X-0.656789X0.529124X0.531533X-0.362117X0.656789X0*%
%ADD37RoundRect,0.050000X-1.004073X-0.756623X0.756623X-1.004073X1.004073X0.756623X-0.756623X1.004073X0*%
%ADD38RoundRect,0.050000X0.558497X-0.500581X0.636937X0.395994X-0.558497X0.500581X-0.636937X-0.395994X0*%
%ADD39RoundRect,0.050000X0.808136X-0.963099X0.963099X0.808136X-0.808136X0.963099X-0.963099X-0.808136X0*%
%ADD40RoundRect,0.050000X0.600000X-0.450000X0.600000X0.450000X-0.600000X0.450000X-0.600000X-0.450000X0*%
%ADD41RoundRect,0.050000X0.889000X-0.889000X0.889000X0.889000X-0.889000X0.889000X-0.889000X-0.889000X0*%
%ADD42C,1.700000*%
%ADD43FreePoly0,270.000000*%
%ADD44FreePoly0,90.000000*%
%ADD45RoundRect,0.050000X-0.800000X0.800000X-0.800000X-0.800000X0.800000X-0.800000X0.800000X0.800000X0*%
%ADD46FreePoly1,270.000000*%
%ADD47FreePoly1,90.000000*%
G04 APERTURE END LIST*
D10*
%TO.C,MCU1*%
X18818505Y42998803D02*
G75*
G03*
X18818505Y42998803I-125000J0D01*
G01*
X18818505Y40458803D02*
G75*
G03*
X18818505Y40458803I-125000J0D01*
G01*
X18818505Y32838803D02*
G75*
G03*
X18818505Y32838803I-125000J0D01*
G01*
X17294505Y17598803D02*
G75*
G03*
X17294505Y17598803I-125000J0D01*
G01*
X18818505Y25218803D02*
G75*
G03*
X18818505Y25218803I-125000J0D01*
G01*
X17294505Y25218803D02*
G75*
G03*
X17294505Y25218803I-125000J0D01*
G01*
X18818505Y30298803D02*
G75*
G03*
X18818505Y30298803I-125000J0D01*
G01*
X17294505Y40458803D02*
G75*
G03*
X17294505Y40458803I-125000J0D01*
G01*
X18818505Y20138803D02*
G75*
G03*
X18818505Y20138803I-125000J0D01*
G01*
X17294505Y22678803D02*
G75*
G03*
X17294505Y22678803I-125000J0D01*
G01*
X17294505Y32838803D02*
G75*
G03*
X17294505Y32838803I-125000J0D01*
G01*
X17294505Y37918803D02*
G75*
G03*
X17294505Y37918803I-125000J0D01*
G01*
X18818505Y45538803D02*
G75*
G03*
X18818505Y45538803I-125000J0D01*
G01*
X17294505Y35378803D02*
G75*
G03*
X17294505Y35378803I-125000J0D01*
G01*
X17294505Y42998803D02*
G75*
G03*
X17294505Y42998803I-125000J0D01*
G01*
X17294505Y20138803D02*
G75*
G03*
X17294505Y20138803I-125000J0D01*
G01*
X18818505Y37918803D02*
G75*
G03*
X18818505Y37918803I-125000J0D01*
G01*
X17294505Y45538803D02*
G75*
G03*
X17294505Y45538803I-125000J0D01*
G01*
X18818505Y17598803D02*
G75*
G03*
X18818505Y17598803I-125000J0D01*
G01*
X18818505Y27758803D02*
G75*
G03*
X18818505Y27758803I-125000J0D01*
G01*
X18818505Y22678803D02*
G75*
G03*
X18818505Y22678803I-125000J0D01*
G01*
X17294505Y30298803D02*
G75*
G03*
X17294505Y30298803I-125000J0D01*
G01*
X17294505Y27758803D02*
G75*
G03*
X17294505Y27758803I-125000J0D01*
G01*
X18818505Y35378803D02*
G75*
G03*
X18818505Y35378803I-125000J0D01*
G01*
G36*
X12851505Y42490803D02*
G01*
X11835505Y42490803D01*
X11835505Y43506803D01*
X12851505Y43506803D01*
X12851505Y42490803D01*
G37*
D11*
X12851505Y42490803D02*
X11835505Y42490803D01*
X11835505Y43506803D01*
X12851505Y43506803D01*
X12851505Y42490803D01*
G36*
X12851505Y39950803D02*
G01*
X11835505Y39950803D01*
X11835505Y40966803D01*
X12851505Y40966803D01*
X12851505Y39950803D01*
G37*
X12851505Y39950803D02*
X11835505Y39950803D01*
X11835505Y40966803D01*
X12851505Y40966803D01*
X12851505Y39950803D01*
G36*
X12851505Y37410803D02*
G01*
X11835505Y37410803D01*
X11835505Y38426803D01*
X12851505Y38426803D01*
X12851505Y37410803D01*
G37*
X12851505Y37410803D02*
X11835505Y37410803D01*
X11835505Y38426803D01*
X12851505Y38426803D01*
X12851505Y37410803D01*
G36*
X24027505Y32330803D02*
G01*
X23011505Y32330803D01*
X23011505Y33346803D01*
X24027505Y33346803D01*
X24027505Y32330803D01*
G37*
X24027505Y32330803D02*
X23011505Y32330803D01*
X23011505Y33346803D01*
X24027505Y33346803D01*
X24027505Y32330803D01*
G36*
X24027505Y27250803D02*
G01*
X23011505Y27250803D01*
X23011505Y28266803D01*
X24027505Y28266803D01*
X24027505Y27250803D01*
G37*
X24027505Y27250803D02*
X23011505Y27250803D01*
X23011505Y28266803D01*
X24027505Y28266803D01*
X24027505Y27250803D01*
G36*
X12851505Y17090803D02*
G01*
X11835505Y17090803D01*
X11835505Y18106803D01*
X12851505Y18106803D01*
X12851505Y17090803D01*
G37*
X12851505Y17090803D02*
X11835505Y17090803D01*
X11835505Y18106803D01*
X12851505Y18106803D01*
X12851505Y17090803D01*
G36*
X24027505Y37410803D02*
G01*
X23011505Y37410803D01*
X23011505Y38426803D01*
X24027505Y38426803D01*
X24027505Y37410803D01*
G37*
X24027505Y37410803D02*
X23011505Y37410803D01*
X23011505Y38426803D01*
X24027505Y38426803D01*
X24027505Y37410803D01*
G36*
X12851505Y45030803D02*
G01*
X11835505Y45030803D01*
X11835505Y46046803D01*
X12851505Y46046803D01*
X12851505Y45030803D01*
G37*
X12851505Y45030803D02*
X11835505Y45030803D01*
X11835505Y46046803D01*
X12851505Y46046803D01*
X12851505Y45030803D01*
G36*
X12851505Y22170803D02*
G01*
X11835505Y22170803D01*
X11835505Y23186803D01*
X12851505Y23186803D01*
X12851505Y22170803D01*
G37*
X12851505Y22170803D02*
X11835505Y22170803D01*
X11835505Y23186803D01*
X12851505Y23186803D01*
X12851505Y22170803D01*
G36*
X12851505Y19630803D02*
G01*
X11835505Y19630803D01*
X11835505Y20646803D01*
X12851505Y20646803D01*
X12851505Y19630803D01*
G37*
X12851505Y19630803D02*
X11835505Y19630803D01*
X11835505Y20646803D01*
X12851505Y20646803D01*
X12851505Y19630803D01*
G36*
X24027505Y22170803D02*
G01*
X23011505Y22170803D01*
X23011505Y23186803D01*
X24027505Y23186803D01*
X24027505Y22170803D01*
G37*
X24027505Y22170803D02*
X23011505Y22170803D01*
X23011505Y23186803D01*
X24027505Y23186803D01*
X24027505Y22170803D01*
G36*
X12851505Y29790803D02*
G01*
X11835505Y29790803D01*
X11835505Y30806803D01*
X12851505Y30806803D01*
X12851505Y29790803D01*
G37*
X12851505Y29790803D02*
X11835505Y29790803D01*
X11835505Y30806803D01*
X12851505Y30806803D01*
X12851505Y29790803D01*
G36*
X12851505Y34870803D02*
G01*
X11835505Y34870803D01*
X11835505Y35886803D01*
X12851505Y35886803D01*
X12851505Y34870803D01*
G37*
X12851505Y34870803D02*
X11835505Y34870803D01*
X11835505Y35886803D01*
X12851505Y35886803D01*
X12851505Y34870803D01*
G36*
X24027505Y42490803D02*
G01*
X23011505Y42490803D01*
X23011505Y43506803D01*
X24027505Y43506803D01*
X24027505Y42490803D01*
G37*
X24027505Y42490803D02*
X23011505Y42490803D01*
X23011505Y43506803D01*
X24027505Y43506803D01*
X24027505Y42490803D01*
G36*
X12851505Y24710803D02*
G01*
X11835505Y24710803D01*
X11835505Y25726803D01*
X12851505Y25726803D01*
X12851505Y24710803D01*
G37*
X12851505Y24710803D02*
X11835505Y24710803D01*
X11835505Y25726803D01*
X12851505Y25726803D01*
X12851505Y24710803D01*
G36*
X24027505Y29790803D02*
G01*
X23011505Y29790803D01*
X23011505Y30806803D01*
X24027505Y30806803D01*
X24027505Y29790803D01*
G37*
X24027505Y29790803D02*
X23011505Y29790803D01*
X23011505Y30806803D01*
X24027505Y30806803D01*
X24027505Y29790803D01*
G36*
X24027505Y24710803D02*
G01*
X23011505Y24710803D01*
X23011505Y25726803D01*
X24027505Y25726803D01*
X24027505Y24710803D01*
G37*
X24027505Y24710803D02*
X23011505Y24710803D01*
X23011505Y25726803D01*
X24027505Y25726803D01*
X24027505Y24710803D01*
G36*
X24027505Y45030803D02*
G01*
X23011505Y45030803D01*
X23011505Y46046803D01*
X24027505Y46046803D01*
X24027505Y45030803D01*
G37*
X24027505Y45030803D02*
X23011505Y45030803D01*
X23011505Y46046803D01*
X24027505Y46046803D01*
X24027505Y45030803D01*
G36*
X24027505Y34870803D02*
G01*
X23011505Y34870803D01*
X23011505Y35886803D01*
X24027505Y35886803D01*
X24027505Y34870803D01*
G37*
X24027505Y34870803D02*
X23011505Y34870803D01*
X23011505Y35886803D01*
X24027505Y35886803D01*
X24027505Y34870803D01*
G36*
X24027505Y17090803D02*
G01*
X23011505Y17090803D01*
X23011505Y18106803D01*
X24027505Y18106803D01*
X24027505Y17090803D01*
G37*
X24027505Y17090803D02*
X23011505Y17090803D01*
X23011505Y18106803D01*
X24027505Y18106803D01*
X24027505Y17090803D01*
G36*
X12851505Y32330803D02*
G01*
X11835505Y32330803D01*
X11835505Y33346803D01*
X12851505Y33346803D01*
X12851505Y32330803D01*
G37*
X12851505Y32330803D02*
X11835505Y32330803D01*
X11835505Y33346803D01*
X12851505Y33346803D01*
X12851505Y32330803D01*
G36*
X24027505Y39950803D02*
G01*
X23011505Y39950803D01*
X23011505Y40966803D01*
X24027505Y40966803D01*
X24027505Y39950803D01*
G37*
X24027505Y39950803D02*
X23011505Y39950803D01*
X23011505Y40966803D01*
X24027505Y40966803D01*
X24027505Y39950803D01*
G36*
X12851505Y27250803D02*
G01*
X11835505Y27250803D01*
X11835505Y28266803D01*
X12851505Y28266803D01*
X12851505Y27250803D01*
G37*
X12851505Y27250803D02*
X11835505Y27250803D01*
X11835505Y28266803D01*
X12851505Y28266803D01*
X12851505Y27250803D01*
G36*
X24027505Y19630803D02*
G01*
X23011505Y19630803D01*
X23011505Y20646803D01*
X24027505Y20646803D01*
X24027505Y19630803D01*
G37*
X24027505Y19630803D02*
X23011505Y19630803D01*
X23011505Y20646803D01*
X24027505Y20646803D01*
X24027505Y19630803D01*
%TD*%
D12*
%TO.C,S3*%
X43392311Y19260533D03*
X32407387Y19836229D03*
D13*
X38211248Y25490227D03*
X33102961Y23554922D03*
X38211248Y25490227D03*
D14*
X37899849Y19548381D03*
D13*
X43089257Y23031562D03*
D15*
X41481760Y25318826D03*
X29832449Y23726322D03*
%TD*%
D16*
%TO.C,*%
X32701949Y54117795D03*
X32780453Y55615739D03*
%TD*%
D13*
%TO.C,S22*%
X109537104Y-5009540D03*
D12*
X113800740Y-11899671D03*
D14*
X108401790Y-10850222D03*
D12*
X103002840Y-9800773D03*
D13*
X104209188Y-6215075D03*
X114025460Y-8123165D03*
X109537104Y-5009540D03*
D17*
X112751933Y-5634440D03*
X100994359Y-5590176D03*
%TD*%
D13*
%TO.C,S4*%
X39100959Y42466930D03*
X43978968Y40008265D03*
D14*
X38789560Y36525084D03*
D12*
X44282022Y36237236D03*
D13*
X33992672Y40531625D03*
X39100959Y42466930D03*
D12*
X33297098Y36812932D03*
D15*
X42371471Y42295529D03*
X30722160Y40703025D03*
%TD*%
D18*
%TO.C,D23*%
X130370534Y-18370220D03*
D19*
X129328717Y-23729905D03*
D20*
X128916570Y-25850220D03*
D19*
X129958387Y-20490535D03*
%TD*%
D12*
%TO.C,S1*%
X17931505Y7068803D03*
D13*
X11981505Y1568803D03*
D12*
X17931505Y-3931197D03*
D13*
X14181505Y6568803D03*
D14*
X17931505Y1568803D03*
D13*
X11981505Y1568803D03*
X14181505Y-3431197D03*
D21*
X11981505Y4843803D03*
X14181505Y-6706197D03*
%TD*%
D12*
%TO.C,S5*%
X49597679Y3914739D03*
D14*
X55090141Y3626891D03*
D13*
X55401540Y9568737D03*
X55401540Y9568737D03*
X50293253Y7633432D03*
D12*
X60582603Y3339043D03*
D13*
X60279549Y7110072D03*
D15*
X58672052Y9397336D03*
X47022741Y7804832D03*
%TD*%
D18*
%TO.C,D16*%
X121186939Y34097063D03*
D22*
X115827254Y35138880D03*
D23*
X113706939Y35551027D03*
D22*
X119066624Y34509210D03*
%TD*%
D13*
%TO.C,S21*%
X96885243Y614142D03*
X92240084Y3488597D03*
X92240084Y3488597D03*
D14*
X91412004Y-2403498D03*
D12*
X96858478Y-3168950D03*
D13*
X86982563Y2005873D03*
D12*
X85965530Y-1638046D03*
D24*
X95483212Y3032805D03*
X83739435Y2461665D03*
%TD*%
D12*
%TO.C,S18*%
X127045953Y18696151D03*
D14*
X132444903Y17646702D03*
D12*
X137843853Y16597253D03*
D13*
X133580217Y23487384D03*
X133580217Y23487384D03*
X138068573Y20373759D03*
X128252301Y22281849D03*
D17*
X136795046Y22862484D03*
X125037472Y22906748D03*
%TD*%
D25*
%TO.C,D5*%
X53180722Y-1279903D03*
D18*
X58633240Y-1565657D03*
D25*
X56476200Y-1452611D03*
D26*
X51023682Y-1166857D03*
%TD*%
D13*
%TO.C,S23*%
X118894735Y-20020861D03*
D12*
X123685968Y-26555125D03*
D13*
X122008360Y-15532505D03*
X120100270Y-25348777D03*
D14*
X124735417Y-21156175D03*
D12*
X125784866Y-15757225D03*
D13*
X118894735Y-20020861D03*
D27*
X119519635Y-16806032D03*
X119475371Y-28563606D03*
%TD*%
D28*
%TO.C,*%
X41246822Y54751459D03*
D29*
X43451445Y55737429D03*
X36045787Y53912510D03*
X43335783Y53530458D03*
D28*
X38250934Y54908467D03*
X41246822Y54751459D03*
D29*
X36161450Y56119481D03*
D28*
X38250934Y54908467D03*
D30*
X41903683Y52954619D03*
X38907794Y53111627D03*
X37409850Y53190131D03*
%TD*%
D31*
%TO.C,*%
X48020233Y54066027D03*
X51415573Y53888085D03*
%TD*%
D18*
%TO.C,D2*%
X40553237Y-2620868D03*
D25*
X35100719Y-2335114D03*
X38396197Y-2507822D03*
D26*
X32943679Y-2222068D03*
%TD*%
D14*
%TO.C,S12*%
X96299367Y31777311D03*
D13*
X97127447Y37669406D03*
X91869926Y36186682D03*
D12*
X101745841Y31011859D03*
X90852893Y32542763D03*
D13*
X97127447Y37669406D03*
X101772606Y34794951D03*
D24*
X100370575Y37213614D03*
X88626798Y36642474D03*
%TD*%
D12*
%TO.C,S15*%
X109758281Y24093967D03*
X120556181Y21995069D03*
D13*
X110964629Y27679665D03*
X120780901Y25771575D03*
D14*
X115157231Y23044518D03*
D13*
X116292545Y28885200D03*
X116292545Y28885200D03*
D17*
X119507374Y28260300D03*
X107749800Y28304564D03*
%TD*%
D25*
%TO.C,D3*%
X35990430Y14641588D03*
D18*
X41442948Y14355834D03*
D25*
X39285908Y14468880D03*
D26*
X33833390Y14754634D03*
%TD*%
D14*
%TO.C,S10*%
X77446085Y44492164D03*
D12*
X82925156Y44012807D03*
D13*
X77964662Y50419522D03*
X77964662Y50419522D03*
X82753893Y47792115D03*
X72791946Y48663673D03*
D12*
X71967014Y44971521D03*
D32*
X81227199Y50134087D03*
X69529408Y48949108D03*
%TD*%
D25*
%TO.C,D7*%
X54960145Y32673502D03*
D18*
X60412663Y32387748D03*
D26*
X52803105Y32786548D03*
D25*
X58255623Y32500794D03*
%TD*%
D18*
%TO.C,D9*%
X79324161Y22243818D03*
D33*
X73884938Y22719688D03*
X77172380Y22432074D03*
D34*
X71733157Y22907944D03*
%TD*%
D14*
%TO.C,S16*%
X118400984Y39732180D03*
D13*
X114208382Y44367327D03*
X124024654Y42459237D03*
D12*
X113002034Y40781629D03*
X123799934Y38682731D03*
D13*
X119536298Y45572862D03*
X119536298Y45572862D03*
D17*
X122751127Y44947962D03*
X110993553Y44992226D03*
%TD*%
D13*
%TO.C,S6*%
X56291252Y26545439D03*
X51182965Y24610134D03*
X61169261Y24086774D03*
X56291252Y26545439D03*
D12*
X61472315Y20315745D03*
X50487391Y20891441D03*
D14*
X55979853Y20603593D03*
D15*
X59561764Y26374038D03*
X47912453Y24781534D03*
%TD*%
D12*
%TO.C,S7*%
X51377102Y37868143D03*
D13*
X57180963Y43522141D03*
X52072676Y41586836D03*
X62058972Y41063476D03*
X57180963Y43522141D03*
D14*
X56869564Y37580295D03*
D12*
X62362026Y37292447D03*
D15*
X60451475Y43350740D03*
X48802164Y41758236D03*
%TD*%
D25*
%TO.C,D4*%
X36880141Y31618290D03*
D18*
X42332659Y31332536D03*
D25*
X40175619Y31445582D03*
D26*
X34723101Y31731336D03*
%TD*%
D13*
%TO.C,S20*%
X66594428Y-11274260D03*
D12*
X72042429Y-17271908D03*
D14*
X72521786Y-11792837D03*
D12*
X73001143Y-6313766D03*
D13*
X69221835Y-6485029D03*
X68350277Y-16446976D03*
X66594428Y-11274260D03*
D35*
X66879863Y-8011723D03*
X68064842Y-19709514D03*
%TD*%
D18*
%TO.C,D18*%
X135230858Y12011584D03*
D22*
X129871173Y13053401D03*
X133110543Y12423731D03*
D23*
X127750858Y13465548D03*
%TD*%
D14*
%TO.C,S17*%
X129201150Y959040D03*
D12*
X134600100Y-90409D03*
D13*
X130336464Y6799722D03*
X130336464Y6799722D03*
X125008548Y5594187D03*
X134824820Y3686097D03*
D12*
X123802200Y2008489D03*
D17*
X133551293Y6174822D03*
X121793719Y6219086D03*
%TD*%
D36*
%TO.C,D21*%
X89082196Y-7125202D03*
D18*
X94489059Y-7885088D03*
D37*
X86943217Y-6824588D03*
D36*
X92350080Y-7584474D03*
%TD*%
D33*
%TO.C,D8*%
X72403290Y5784378D03*
D18*
X77842513Y5308508D03*
D33*
X75690732Y5496764D03*
D34*
X70251509Y5972634D03*
%TD*%
D18*
%TO.C,D13*%
X101742365Y43130277D03*
D36*
X96335502Y43890163D03*
D37*
X94196523Y44190777D03*
D36*
X99603386Y43430891D03*
%TD*%
D18*
%TO.C,D22*%
X111187745Y-16485340D03*
D22*
X105828060Y-15443523D03*
D23*
X103707745Y-15031376D03*
D22*
X109067430Y-16073193D03*
%TD*%
D18*
%TO.C,D11*%
X97010479Y9461163D03*
D36*
X91603616Y10221049D03*
X94871500Y9761777D03*
D37*
X89464637Y10521663D03*
%TD*%
D18*
%TO.C,D19*%
X138474611Y28699246D03*
D22*
X133114926Y29741063D03*
X136354296Y29111393D03*
D23*
X130994611Y30153210D03*
%TD*%
D38*
%TO.C,D20*%
X77358952Y-13872336D03*
D18*
X77834822Y-8433113D03*
D38*
X77646566Y-10584894D03*
D39*
X77170696Y-16024117D03*
%TD*%
D12*
%TO.C,S19*%
X130289706Y35383813D03*
D14*
X135688656Y34334364D03*
D13*
X136823970Y40175046D03*
X136823970Y40175046D03*
X131496054Y38969511D03*
D12*
X141087606Y33284915D03*
D13*
X141312326Y37061421D03*
D17*
X140038799Y39550146D03*
X128281225Y39594410D03*
%TD*%
D18*
%TO.C,D12*%
X99376422Y26295720D03*
D36*
X93969559Y27055606D03*
D37*
X91830580Y27356220D03*
D36*
X97237443Y26596334D03*
%TD*%
D18*
%TO.C,D1*%
X22931505Y5378803D03*
D40*
X22931505Y-81197D03*
D41*
X22931505Y-2241197D03*
D40*
X22931505Y3218803D03*
%TD*%
D13*
%TO.C,S11*%
X94761504Y20834848D03*
D12*
X99379898Y14177301D03*
D13*
X94761504Y20834848D03*
D14*
X93933424Y14942753D03*
D13*
X89503983Y19352124D03*
D12*
X88486950Y15708205D03*
D13*
X99406663Y17960393D03*
D24*
X98004632Y20379056D03*
X86260855Y19807916D03*
%TD*%
D22*
%TO.C,D15*%
X112583501Y18451217D03*
D18*
X117943186Y17409400D03*
D23*
X110463186Y18863364D03*
D22*
X115822871Y17821547D03*
%TD*%
D13*
%TO.C,S14*%
X113048793Y12197538D03*
X117537149Y9083913D03*
X113048793Y12197538D03*
D12*
X117312429Y5307407D03*
X106514529Y7406305D03*
D13*
X107720877Y10992003D03*
D14*
X111913479Y6356856D03*
D17*
X116263622Y11572638D03*
X104506048Y11616902D03*
%TD*%
D13*
%TO.C,S9*%
X76483015Y33484212D03*
X76483015Y33484212D03*
D12*
X81443509Y27077497D03*
D14*
X75964438Y27556854D03*
D13*
X71310299Y31728363D03*
D12*
X70485367Y28036211D03*
D13*
X81272246Y30856805D03*
D32*
X79745552Y33198777D03*
X68047761Y32013798D03*
%TD*%
D25*
%TO.C,D6*%
X54070434Y15696800D03*
D18*
X59522952Y15411046D03*
D26*
X51913394Y15809846D03*
D25*
X57365912Y15524092D03*
%TD*%
D13*
%TO.C,S8*%
X75001367Y16548902D03*
D12*
X79961861Y10142187D03*
D13*
X75001367Y16548902D03*
D14*
X74482790Y10621544D03*
D13*
X69828651Y14793053D03*
D12*
X69003719Y11100901D03*
D13*
X79790598Y13921495D03*
D32*
X78263904Y16263467D03*
X66566113Y15078488D03*
%TD*%
D42*
%TO.C,MCU1*%
X25551505Y17598803D03*
D43*
X23773505Y35378803D03*
D44*
X12089505Y22678803D03*
X12089505Y20138803D03*
X12089505Y35378803D03*
D43*
X23773505Y32838803D03*
D44*
X12089505Y30298803D03*
D42*
X25551505Y45538803D03*
X10311505Y27758803D03*
X25551505Y27758803D03*
D43*
X23773505Y20138803D03*
D42*
X25551505Y37918803D03*
D43*
X23773505Y40458803D03*
X23773505Y42998803D03*
D45*
X10311505Y45538803D03*
D42*
X25551505Y40458803D03*
D43*
X23773505Y37918803D03*
D42*
X10311505Y25218803D03*
X25551505Y22678803D03*
X25551505Y42998803D03*
D43*
X23773505Y45538803D03*
D44*
X12089505Y45538803D03*
D43*
X23773505Y25218803D03*
D42*
X10311505Y45538803D03*
D44*
X12089505Y42998803D03*
D42*
X10311505Y17598803D03*
X25551505Y35378803D03*
D43*
X23773505Y22678803D03*
D42*
X10311505Y35378803D03*
X10311505Y20138803D03*
X25551505Y30298803D03*
X25551505Y25218803D03*
D43*
X23773505Y17598803D03*
D42*
X10311505Y42998803D03*
X10311505Y40458803D03*
X25551505Y20138803D03*
D43*
X23773505Y30298803D03*
D44*
X12089505Y17598803D03*
X12089505Y40458803D03*
X12089505Y27758803D03*
D42*
X25551505Y32838803D03*
X10311505Y37918803D03*
X10311505Y30298803D03*
X10311505Y22678803D03*
D44*
X12089505Y37918803D03*
X12089505Y25218803D03*
D43*
X23773505Y27758803D03*
D42*
X10311505Y32838803D03*
D44*
X12089505Y32838803D03*
D46*
X22757505Y45538803D03*
X22757505Y42998803D03*
X22757505Y40458803D03*
X22757505Y37918803D03*
X22757505Y35378803D03*
X22757505Y32838803D03*
X22757505Y30298803D03*
X22757505Y27758803D03*
X22757505Y25218803D03*
X22757505Y22678803D03*
X22757505Y20138803D03*
X22757505Y17598803D03*
D47*
X13105505Y17598803D03*
X13105505Y20138803D03*
X13105505Y22678803D03*
X13105505Y25218803D03*
X13105505Y27758803D03*
X13105505Y30298803D03*
X13105505Y32838803D03*
X13105505Y35378803D03*
X13105505Y37918803D03*
X13105505Y40458803D03*
X13105505Y42998803D03*
X13105505Y45538803D03*
%TD*%
D13*
%TO.C,S13*%
X94235868Y53021239D03*
X99493389Y54503963D03*
D12*
X104111783Y47846416D03*
X93218835Y49377320D03*
D13*
X99493389Y54503963D03*
D14*
X98665309Y48611868D03*
D13*
X104138548Y51629508D03*
D24*
X102736517Y54048171D03*
X90992740Y53477031D03*
%TD*%
D18*
%TO.C,D14*%
X114699434Y721738D03*
D22*
X109339749Y1763555D03*
X112579119Y1133885D03*
D23*
X107219434Y2175702D03*
%TD*%
D12*
%TO.C,S2*%
X42502600Y2283831D03*
D13*
X37321537Y8513525D03*
X37321537Y8513525D03*
X42199546Y6054860D03*
D12*
X31517676Y2859527D03*
D14*
X37010138Y2571679D03*
D13*
X32213250Y6578220D03*
D15*
X40592049Y8342124D03*
X28942738Y6749620D03*
%TD*%
D33*
%TO.C,D10*%
X75366586Y39654998D03*
D18*
X80805809Y39179128D03*
D34*
X73214805Y39843254D03*
D33*
X78654028Y39367384D03*
%TD*%
D18*
%TO.C,D17*%
X131987105Y-4676078D03*
D22*
X126627420Y-3634261D03*
D23*
X124507105Y-3222114D03*
D22*
X129866790Y-4263931D03*
%TD*%
M02*
