%TF.GenerationSoftware,KiCad,Pcbnew,(6.0.9)*%
%TF.CreationDate,2022-11-07T09:36:57+01:00*%
%TF.ProjectId,itemun,6974656d-756e-42e6-9b69-6361645f7063,v1.0.0*%
%TF.SameCoordinates,Original*%
%TF.FileFunction,Copper,L1,Top*%
%TF.FilePolarity,Positive*%
%FSLAX46Y46*%
G04 Gerber Fmt 4.6, Leading zero omitted, Abs format (unit mm)*
G04 Created by KiCad (PCBNEW (6.0.9)) date 2022-11-07 09:36:57*
%MOMM*%
%LPD*%
G01*
G04 APERTURE LIST*
G04 Aperture macros list*
%AMRotRect*
0 Rectangle, with rotation*
0 The origin of the aperture is its center*
0 $1 length*
0 $2 width*
0 $3 Rotation angle, in degrees counterclockwise*
0 Add horizontal line*
21,1,$1,$2,0,0,$3*%
%AMFreePoly0*
4,1,6,0.600000,0.200000,0.000000,-0.400000,-0.600000,0.200000,-0.600000,0.400000,0.600000,0.400000,0.600000,0.200000,0.600000,0.200000,$1*%
%AMFreePoly1*
4,1,5,0.125000,-0.500000,-0.125000,-0.500000,-0.125000,0.500000,0.125000,0.500000,0.125000,-0.500000,0.125000,-0.500000,$1*%
%AMFreePoly2*
4,1,6,0.600000,-0.250000,-0.600000,-0.250000,-0.600000,1.000000,0.000000,0.400000,0.600000,1.000000,0.600000,-0.250000,0.600000,-0.250000,$1*%
%AMFreePoly3*
4,1,49,0.088388,4.152388,0.854389,3.386388,0.867708,3.368551,0.871189,3.365530,0.871982,3.362827,0.875852,3.357644,0.882333,3.327543,0.891000,3.298000,0.891000,0.766000,0.887805,0.743969,0.888131,0.739371,0.886780,0.736898,0.885852,0.730498,0.869154,0.704638,0.854389,0.677612,0.088388,-0.088388,0.064607,-0.106146,0.062500,-0.108253,0.061385,-0.108552,0.059644,-0.109852,
0.043810,-0.113261,0.000000,-0.125000,-0.004774,-0.123721,-0.009154,-0.124664,-0.028953,-0.117242,-0.062500,-0.108253,-0.068237,-0.102516,-0.075052,-0.099961,-0.087614,-0.083139,-0.108253,-0.062500,-0.111178,-0.051584,-0.117161,-0.043572,-0.118539,-0.024114,-0.125000,0.000000,-0.121239,0.014035,-0.122131,0.026629,-0.113759,0.041953,-0.108253,0.062500,-0.095642,0.075111,-0.088388,0.088388,
0.641000,0.817777,0.641000,3.246223,-0.088388,3.975612,-0.109852,4.004356,-0.124664,4.073154,-0.099961,4.139052,-0.043572,4.181161,0.026629,4.186131,0.088388,4.152388,0.088388,4.152388,$1*%
%AMFreePoly4*
4,1,49,0.088388,4.152388,0.850389,3.390388,0.863708,3.372551,0.867189,3.369530,0.867982,3.366827,0.871852,3.361644,0.878333,3.331543,0.887000,3.302000,0.887000,0.762000,0.883805,0.739969,0.884131,0.735371,0.882780,0.732898,0.881852,0.726498,0.865154,0.700638,0.850389,0.673612,0.088388,-0.088388,0.064607,-0.106146,0.062500,-0.108253,0.061385,-0.108552,0.059644,-0.109852,
0.043810,-0.113261,0.000000,-0.125000,-0.004774,-0.123721,-0.009154,-0.124664,-0.028953,-0.117242,-0.062500,-0.108253,-0.068237,-0.102516,-0.075052,-0.099961,-0.087614,-0.083139,-0.108253,-0.062500,-0.111178,-0.051584,-0.117161,-0.043572,-0.118539,-0.024114,-0.125000,0.000000,-0.121239,0.014035,-0.122131,0.026629,-0.113759,0.041953,-0.108253,0.062500,-0.095642,0.075111,-0.088388,0.088388,
0.637000,0.813777,0.637000,3.250223,-0.088388,3.975612,-0.109852,4.004356,-0.124664,4.073154,-0.099961,4.139052,-0.043572,4.181161,0.026629,4.186131,0.088388,4.152388,0.088388,4.152388,$1*%
G04 Aperture macros list end*
%TA.AperFunction,SMDPad,CuDef*%
%ADD10RotRect,2.600000X2.600000X357.000000*%
%TD*%
%TA.AperFunction,ComponentPad*%
%ADD11C,1.000000*%
%TD*%
%TA.AperFunction,SMDPad,CuDef*%
%ADD12RotRect,2.600000X2.600000X349.000000*%
%TD*%
%TA.AperFunction,ComponentPad*%
%ADD13C,1.905000*%
%TD*%
%TA.AperFunction,SMDPad,CuDef*%
%ADD14RotRect,0.900000X1.200000X79.000000*%
%TD*%
%TA.AperFunction,ComponentPad*%
%ADD15RotRect,1.778000X1.778000X79.000000*%
%TD*%
%TA.AperFunction,SMDPad,CuDef*%
%ADD16R,2.600000X2.600000*%
%TD*%
%TA.AperFunction,SMDPad,CuDef*%
%ADD17RotRect,0.900000X1.200000X349.000000*%
%TD*%
%TA.AperFunction,ComponentPad*%
%ADD18RotRect,1.778000X1.778000X349.000000*%
%TD*%
%TA.AperFunction,SMDPad,CuDef*%
%ADD19RotRect,2.600000X2.600000X352.000000*%
%TD*%
%TA.AperFunction,SMDPad,CuDef*%
%ADD20RotRect,0.900000X1.200000X357.000000*%
%TD*%
%TA.AperFunction,ComponentPad*%
%ADD21RotRect,1.778000X1.778000X357.000000*%
%TD*%
%TA.AperFunction,SMDPad,CuDef*%
%ADD22RotRect,2.600000X2.600000X79.000000*%
%TD*%
%TA.AperFunction,SMDPad,CuDef*%
%ADD23R,1.000000X0.800000*%
%TD*%
%TA.AperFunction,SMDPad,CuDef*%
%ADD24R,0.700000X1.500000*%
%TD*%
%TA.AperFunction,SMDPad,CuDef*%
%ADD25R,0.900000X1.700000*%
%TD*%
%TA.AperFunction,SMDPad,CuDef*%
%ADD26RotRect,2.600000X2.600000X355.000000*%
%TD*%
%TA.AperFunction,SMDPad,CuDef*%
%ADD27RotRect,0.900000X1.200000X355.000000*%
%TD*%
%TA.AperFunction,ComponentPad*%
%ADD28RotRect,1.778000X1.778000X355.000000*%
%TD*%
%TA.AperFunction,SMDPad,CuDef*%
%ADD29RotRect,2.600000X2.600000X85.000000*%
%TD*%
%TA.AperFunction,SMDPad,CuDef*%
%ADD30RotRect,0.900000X1.200000X352.000000*%
%TD*%
%TA.AperFunction,ComponentPad*%
%ADD31RotRect,1.778000X1.778000X352.000000*%
%TD*%
%TA.AperFunction,SMDPad,CuDef*%
%ADD32RotRect,0.900000X1.200000X85.000000*%
%TD*%
%TA.AperFunction,ComponentPad*%
%ADD33RotRect,1.778000X1.778000X85.000000*%
%TD*%
%TA.AperFunction,SMDPad,CuDef*%
%ADD34R,1.200000X0.900000*%
%TD*%
%TA.AperFunction,ComponentPad*%
%ADD35R,1.778000X1.778000*%
%TD*%
%TA.AperFunction,ComponentPad*%
%ADD36C,1.600000*%
%TD*%
%TA.AperFunction,SMDPad,CuDef*%
%ADD37FreePoly0,270.000000*%
%TD*%
%TA.AperFunction,SMDPad,CuDef*%
%ADD38FreePoly0,90.000000*%
%TD*%
%TA.AperFunction,SMDPad,CuDef*%
%ADD39FreePoly1,90.000000*%
%TD*%
%TA.AperFunction,ComponentPad*%
%ADD40R,1.600000X1.600000*%
%TD*%
%TA.AperFunction,SMDPad,CuDef*%
%ADD41FreePoly1,270.000000*%
%TD*%
%TA.AperFunction,SMDPad,CuDef*%
%ADD42FreePoly2,270.000000*%
%TD*%
%TA.AperFunction,SMDPad,CuDef*%
%ADD43FreePoly3,270.000000*%
%TD*%
%TA.AperFunction,ComponentPad*%
%ADD44C,0.800000*%
%TD*%
%TA.AperFunction,SMDPad,CuDef*%
%ADD45FreePoly4,90.000000*%
%TD*%
%TA.AperFunction,SMDPad,CuDef*%
%ADD46FreePoly2,90.000000*%
%TD*%
%TA.AperFunction,ComponentPad*%
%ADD47C,0.600000*%
%TD*%
%TA.AperFunction,Conductor*%
%ADD48C,0.250000*%
%TD*%
G04 APERTURE END LIST*
D10*
%TO.P,S3,1*%
%TO.N,outer_home*%
X41481760Y25318826D03*
%TO.P,S3,2*%
%TO.N,P14*%
X29832449Y23726322D03*
%TD*%
D11*
%TO.P,,1*%
%TO.N,RAW*%
X32701949Y54117795D03*
%TO.P,,2*%
%TO.N,GND*%
X32780453Y55615739D03*
%TD*%
D12*
%TO.P,S22,1*%
%TO.N,shift_first*%
X112751933Y-5634440D03*
%TO.P,S22,2*%
%TO.N,P20*%
X100994359Y-5590176D03*
%TD*%
D10*
%TO.P,S4,1*%
%TO.N,outer_top*%
X42371471Y42295529D03*
%TO.P,S4,2*%
%TO.N,P14*%
X30722160Y40703025D03*
%TD*%
D13*
%TO.P,D23,1*%
%TO.N,e_first*%
X130370534Y-18370220D03*
D14*
%TO.N,P2*%
X129328717Y-23729905D03*
D15*
%TO.P,D23,2*%
X128916570Y-25850220D03*
D14*
%TO.N,e_first*%
X129958387Y-20490535D03*
%TD*%
D16*
%TO.P,S1,1*%
%TO.N,outouter_bottom*%
X11981505Y4843803D03*
%TO.P,S1,2*%
%TO.N,P4*%
X14181505Y-6706197D03*
%TD*%
D10*
%TO.P,S5,1*%
%TO.N,pinkie_bottom*%
X58672052Y9397336D03*
%TO.P,S5,2*%
%TO.N,P15*%
X47022741Y7804832D03*
%TD*%
D13*
%TO.P,D16,1*%
%TO.N,index_top*%
X121186939Y34097063D03*
D17*
%TO.N,P16*%
X115827254Y35138880D03*
D18*
%TO.P,D16,2*%
X113706939Y35551027D03*
D17*
%TO.N,index_top*%
X119066624Y34509210D03*
%TD*%
D19*
%TO.P,S21,1*%
%TO.N,alt_first*%
X95483212Y3032805D03*
%TO.P,S21,2*%
%TO.N,P19*%
X83739435Y2461665D03*
%TD*%
D12*
%TO.P,S18,1*%
%TO.N,inner_home*%
X136795046Y22862484D03*
%TO.P,S18,2*%
%TO.N,P21*%
X125037472Y22906748D03*
%TD*%
D20*
%TO.P,D5,1*%
%TO.N,P3*%
X53180722Y-1279903D03*
D13*
%TO.N,pinkie_bottom*%
X58633240Y-1565657D03*
D20*
%TO.P,D5,2*%
X56476200Y-1452611D03*
D21*
%TO.N,P3*%
X51023682Y-1166857D03*
%TD*%
D22*
%TO.P,S23,1*%
%TO.N,e_first*%
X119519635Y-16806032D03*
%TO.P,S23,2*%
%TO.N,P21*%
X119475371Y-28563606D03*
%TD*%
D23*
%TO.P,,*%
%TO.N,*%
X43451445Y55737429D03*
X36045787Y53912510D03*
X43335783Y53530458D03*
X36161450Y56119481D03*
D24*
%TO.P,,1*%
%TO.N,pos*%
X41903683Y52954619D03*
%TO.P,,2*%
%TO.N,RAW*%
X38907794Y53111627D03*
%TO.P,,3*%
%TO.N,N/C*%
X37409850Y53190131D03*
%TD*%
D25*
%TO.P,,1*%
%TO.N,RST*%
X48020233Y54066027D03*
%TO.P,,2*%
%TO.N,GND*%
X51415573Y53888085D03*
%TD*%
D13*
%TO.P,D2,1*%
%TO.N,outer_bottom*%
X40553237Y-2620868D03*
D20*
%TO.N,P3*%
X35100719Y-2335114D03*
%TO.P,D2,2*%
%TO.N,outer_bottom*%
X38396197Y-2507822D03*
D21*
%TO.N,P3*%
X32943679Y-2222068D03*
%TD*%
D19*
%TO.P,S12,1*%
%TO.N,middle_home*%
X100370575Y37213614D03*
%TO.P,S12,2*%
%TO.N,P19*%
X88626798Y36642474D03*
%TD*%
D12*
%TO.P,S15,1*%
%TO.N,index_home*%
X119507374Y28260300D03*
%TO.P,S15,2*%
%TO.N,P20*%
X107749800Y28304564D03*
%TD*%
D20*
%TO.P,D3,1*%
%TO.N,P10*%
X35990430Y14641588D03*
D13*
%TO.N,outer_home*%
X41442948Y14355834D03*
D20*
%TO.P,D3,2*%
X39285908Y14468880D03*
D21*
%TO.N,P10*%
X33833390Y14754634D03*
%TD*%
D26*
%TO.P,S10,1*%
%TO.N,ring_top*%
X81227199Y50134087D03*
%TO.P,S10,2*%
%TO.N,P18*%
X69529408Y48949108D03*
%TD*%
D20*
%TO.P,D7,1*%
%TO.N,P16*%
X54960145Y32673502D03*
D13*
%TO.N,pinkie_top*%
X60412663Y32387748D03*
D21*
%TO.P,D7,2*%
%TO.N,P16*%
X52803105Y32786548D03*
D20*
%TO.N,pinkie_top*%
X58255623Y32500794D03*
%TD*%
D13*
%TO.P,D9,1*%
%TO.N,ring_home*%
X79324161Y22243818D03*
D27*
%TO.N,P10*%
X73884938Y22719688D03*
%TO.P,D9,2*%
%TO.N,ring_home*%
X77172380Y22432074D03*
D28*
%TO.N,P10*%
X71733157Y22907944D03*
%TD*%
D12*
%TO.P,S16,1*%
%TO.N,index_top*%
X122751127Y44947962D03*
%TO.P,S16,2*%
%TO.N,P20*%
X110993553Y44992226D03*
%TD*%
D10*
%TO.P,S6,1*%
%TO.N,pinkie_home*%
X59561764Y26374038D03*
%TO.P,S6,2*%
%TO.N,P15*%
X47912453Y24781534D03*
%TD*%
%TO.P,S7,1*%
%TO.N,pinkie_top*%
X60451475Y43350740D03*
%TO.P,S7,2*%
%TO.N,P15*%
X48802164Y41758236D03*
%TD*%
D20*
%TO.P,D4,1*%
%TO.N,P16*%
X36880141Y31618290D03*
D13*
%TO.N,outer_top*%
X42332659Y31332536D03*
D20*
%TO.P,D4,2*%
X40175619Y31445582D03*
D21*
%TO.N,P16*%
X34723101Y31731336D03*
%TD*%
D29*
%TO.P,S20,1*%
%TO.N,ctrl_first*%
X66879863Y-8011723D03*
%TO.P,S20,2*%
%TO.N,P18*%
X68064842Y-19709514D03*
%TD*%
D13*
%TO.P,D18,1*%
%TO.N,inner_home*%
X135230858Y12011584D03*
D17*
%TO.N,P10*%
X129871173Y13053401D03*
%TO.P,D18,2*%
%TO.N,inner_home*%
X133110543Y12423731D03*
D18*
%TO.N,P10*%
X127750858Y13465548D03*
%TD*%
D12*
%TO.P,S17,1*%
%TO.N,inner_bottom*%
X133551293Y6174822D03*
%TO.P,S17,2*%
%TO.N,P21*%
X121793719Y6219086D03*
%TD*%
D30*
%TO.P,D21,1*%
%TO.N,P2*%
X89082196Y-7125202D03*
D13*
%TO.N,alt_first*%
X94489059Y-7885088D03*
D31*
%TO.P,D21,2*%
%TO.N,P2*%
X86943217Y-6824588D03*
D30*
%TO.N,alt_first*%
X92350080Y-7584474D03*
%TD*%
D27*
%TO.P,D8,1*%
%TO.N,P3*%
X72403290Y5784378D03*
D13*
%TO.N,ring_bottom*%
X77842513Y5308508D03*
D27*
%TO.P,D8,2*%
X75690732Y5496764D03*
D28*
%TO.N,P3*%
X70251509Y5972634D03*
%TD*%
D13*
%TO.P,D13,1*%
%TO.N,middle_top*%
X101742365Y43130277D03*
D30*
%TO.N,P16*%
X96335502Y43890163D03*
D31*
%TO.P,D13,2*%
X94196523Y44190777D03*
D30*
%TO.N,middle_top*%
X99603386Y43430891D03*
%TD*%
D13*
%TO.P,D22,1*%
%TO.N,shift_first*%
X111187745Y-16485340D03*
D17*
%TO.N,P2*%
X105828060Y-15443523D03*
D18*
%TO.P,D22,2*%
X103707745Y-15031376D03*
D17*
%TO.N,shift_first*%
X109067430Y-16073193D03*
%TD*%
D13*
%TO.P,D11,1*%
%TO.N,middle_bottom*%
X97010479Y9461163D03*
D30*
%TO.N,P3*%
X91603616Y10221049D03*
%TO.P,D11,2*%
%TO.N,middle_bottom*%
X94871500Y9761777D03*
D31*
%TO.N,P3*%
X89464637Y10521663D03*
%TD*%
D13*
%TO.P,D19,1*%
%TO.N,inner_top*%
X138474611Y28699246D03*
D17*
%TO.N,P16*%
X133114926Y29741063D03*
%TO.P,D19,2*%
%TO.N,inner_top*%
X136354296Y29111393D03*
D18*
%TO.N,P16*%
X130994611Y30153210D03*
%TD*%
D32*
%TO.P,D20,1*%
%TO.N,P2*%
X77358952Y-13872336D03*
D13*
%TO.N,ctrl_first*%
X77834822Y-8433113D03*
D32*
%TO.P,D20,2*%
X77646566Y-10584894D03*
D33*
%TO.N,P2*%
X77170696Y-16024117D03*
%TD*%
D12*
%TO.P,S19,1*%
%TO.N,inner_top*%
X140038799Y39550146D03*
%TO.P,S19,2*%
%TO.N,P21*%
X128281225Y39594410D03*
%TD*%
D13*
%TO.P,D12,1*%
%TO.N,middle_home*%
X99376422Y26295720D03*
D30*
%TO.N,P10*%
X93969559Y27055606D03*
D31*
%TO.P,D12,2*%
X91830580Y27356220D03*
D30*
%TO.N,middle_home*%
X97237443Y26596334D03*
%TD*%
D13*
%TO.P,D1,1*%
%TO.N,outouter_bottom*%
X22931505Y5378803D03*
D34*
%TO.N,P3*%
X22931505Y-81197D03*
D35*
%TO.P,D1,2*%
X22931505Y-2241197D03*
D34*
%TO.N,outouter_bottom*%
X22931505Y3218803D03*
%TD*%
D19*
%TO.P,S11,1*%
%TO.N,middle_bottom*%
X98004632Y20379056D03*
%TO.P,S11,2*%
%TO.N,P19*%
X86260855Y19807916D03*
%TD*%
D17*
%TO.P,D15,1*%
%TO.N,P10*%
X112583501Y18451217D03*
D13*
%TO.N,index_home*%
X117943186Y17409400D03*
D18*
%TO.P,D15,2*%
%TO.N,P10*%
X110463186Y18863364D03*
D17*
%TO.N,index_home*%
X115822871Y17821547D03*
%TD*%
D12*
%TO.P,S14,1*%
%TO.N,index_bottom*%
X116263622Y11572638D03*
%TO.P,S14,2*%
%TO.N,P20*%
X104506048Y11616902D03*
%TD*%
D26*
%TO.P,S9,1*%
%TO.N,ring_home*%
X79745552Y33198777D03*
%TO.P,S9,2*%
%TO.N,P18*%
X68047761Y32013798D03*
%TD*%
D20*
%TO.P,D6,1*%
%TO.N,P10*%
X54070434Y15696800D03*
D13*
%TO.N,pinkie_home*%
X59522952Y15411046D03*
D21*
%TO.P,D6,2*%
%TO.N,P10*%
X51913394Y15809846D03*
D20*
%TO.N,pinkie_home*%
X57365912Y15524092D03*
%TD*%
D26*
%TO.P,S8,1*%
%TO.N,ring_bottom*%
X78263904Y16263467D03*
%TO.P,S8,2*%
%TO.N,P18*%
X66566113Y15078488D03*
%TD*%
D36*
%TO.P,MCU1,*%
%TO.N,*%
X25551505Y17598803D03*
D37*
X23773505Y35378803D03*
D38*
X12089505Y22678803D03*
X12089505Y20138803D03*
X12089505Y35378803D03*
D37*
X23773505Y32838803D03*
D38*
X12089505Y30298803D03*
D36*
X25551505Y45538803D03*
X10311505Y27758803D03*
D39*
X11581505Y45538803D03*
D36*
X25551505Y27758803D03*
D39*
X11581505Y25218803D03*
X11581505Y40458803D03*
D37*
X23773505Y20138803D03*
D36*
X25551505Y37918803D03*
D37*
X23773505Y40458803D03*
X23773505Y42998803D03*
D40*
X10311505Y45538803D03*
D36*
X25551505Y40458803D03*
D37*
X23773505Y37918803D03*
D36*
X10311505Y25218803D03*
D41*
X24281505Y32838803D03*
D36*
X25551505Y22678803D03*
X25551505Y42998803D03*
D41*
X24281505Y37918803D03*
X24281505Y42998803D03*
D37*
X23773505Y45538803D03*
D39*
X11581505Y17598803D03*
D38*
X12089505Y45538803D03*
D41*
X24281505Y35378803D03*
D39*
X11581505Y20138803D03*
D37*
X23773505Y25218803D03*
D39*
X11581505Y27758803D03*
D36*
X10311505Y45538803D03*
D41*
X24281505Y17598803D03*
X24281505Y45538803D03*
X24281505Y27758803D03*
D39*
X11581505Y35378803D03*
D38*
X12089505Y42998803D03*
D36*
X10311505Y17598803D03*
X25551505Y35378803D03*
D37*
X23773505Y22678803D03*
D41*
X24281505Y22678803D03*
D36*
X10311505Y35378803D03*
X10311505Y20138803D03*
X25551505Y30298803D03*
X25551505Y25218803D03*
D39*
X11581505Y42998803D03*
X11581505Y30298803D03*
D37*
X23773505Y17598803D03*
D36*
X10311505Y42998803D03*
X10311505Y40458803D03*
D41*
X24281505Y20138803D03*
D36*
X25551505Y20138803D03*
D41*
X24281505Y40458803D03*
D37*
X23773505Y30298803D03*
D38*
X12089505Y17598803D03*
D41*
X24281505Y25218803D03*
D38*
X12089505Y40458803D03*
X12089505Y27758803D03*
D36*
X25551505Y32838803D03*
D39*
X11581505Y32838803D03*
D36*
X10311505Y37918803D03*
X10311505Y30298803D03*
X10311505Y22678803D03*
D41*
X24281505Y30298803D03*
D38*
X12089505Y37918803D03*
D39*
X11581505Y37918803D03*
D38*
X12089505Y25218803D03*
D37*
X23773505Y27758803D03*
D36*
X10311505Y32838803D03*
D39*
X11581505Y22678803D03*
D38*
X12089505Y32838803D03*
D42*
%TO.P,MCU1,1*%
%TO.N,RAW*%
X22757505Y45538803D03*
D43*
X18693505Y45538803D03*
D44*
X18693505Y45538803D03*
%TO.P,MCU1,2*%
%TO.N,GND*%
X18693505Y42998803D03*
D42*
X22757505Y42998803D03*
D43*
X18693505Y42998803D03*
D42*
%TO.P,MCU1,3*%
%TO.N,RST*%
X22757505Y40458803D03*
D44*
X18693505Y40458803D03*
D43*
X18693505Y40458803D03*
D44*
%TO.P,MCU1,4*%
%TO.N,VCC*%
X18693505Y37918803D03*
D43*
X18693505Y37918803D03*
D42*
X22757505Y37918803D03*
D44*
%TO.P,MCU1,5*%
%TO.N,P21*%
X18693505Y35378803D03*
D43*
X18693505Y35378803D03*
D42*
X22757505Y35378803D03*
D44*
%TO.P,MCU1,6*%
%TO.N,P20*%
X18693505Y32838803D03*
D42*
X22757505Y32838803D03*
D43*
X18693505Y32838803D03*
D42*
%TO.P,MCU1,7*%
%TO.N,P19*%
X22757505Y30298803D03*
D44*
X18693505Y30298803D03*
D43*
X18693505Y30298803D03*
D44*
%TO.P,MCU1,8*%
%TO.N,P18*%
X18693505Y27758803D03*
D43*
X18693505Y27758803D03*
D42*
X22757505Y27758803D03*
D44*
%TO.P,MCU1,9*%
%TO.N,P15*%
X18693505Y25218803D03*
D43*
X18693505Y25218803D03*
D42*
X22757505Y25218803D03*
D44*
%TO.P,MCU1,10*%
%TO.N,P14*%
X18693505Y22678803D03*
D43*
X18693505Y22678803D03*
D42*
X22757505Y22678803D03*
D44*
%TO.P,MCU1,11*%
%TO.N,P16*%
X18693505Y20138803D03*
D43*
X18693505Y20138803D03*
D42*
X22757505Y20138803D03*
D44*
%TO.P,MCU1,12*%
%TO.N,P10*%
X18693505Y17598803D03*
D43*
X18693505Y17598803D03*
D42*
X22757505Y17598803D03*
D45*
%TO.P,MCU1,13*%
%TO.N,P9*%
X17169505Y17598803D03*
D46*
X13105505Y17598803D03*
D44*
X17169505Y17598803D03*
D46*
%TO.P,MCU1,14*%
%TO.N,P8*%
X13105505Y20138803D03*
D44*
X17169505Y20138803D03*
D45*
X17169505Y20138803D03*
%TO.P,MCU1,15*%
%TO.N,P7*%
X17169505Y22678803D03*
D44*
X17169505Y22678803D03*
D46*
X13105505Y22678803D03*
%TO.P,MCU1,16*%
%TO.N,P6*%
X13105505Y25218803D03*
D44*
X17169505Y25218803D03*
D45*
X17169505Y25218803D03*
D44*
%TO.P,MCU1,17*%
%TO.N,P5*%
X17169505Y27758803D03*
D45*
X17169505Y27758803D03*
D46*
X13105505Y27758803D03*
D44*
%TO.P,MCU1,18*%
%TO.N,P4*%
X17169505Y30298803D03*
D46*
X13105505Y30298803D03*
D45*
X17169505Y30298803D03*
D46*
%TO.P,MCU1,19*%
%TO.N,P3*%
X13105505Y32838803D03*
D45*
X17169505Y32838803D03*
D44*
X17169505Y32838803D03*
D45*
%TO.P,MCU1,20*%
%TO.N,P2*%
X17169505Y35378803D03*
D46*
X13105505Y35378803D03*
D44*
X17169505Y35378803D03*
D46*
%TO.P,MCU1,21*%
%TO.N,GND*%
X13105505Y37918803D03*
D45*
X17169505Y37918803D03*
D44*
X17169505Y37918803D03*
%TO.P,MCU1,22*%
X17169505Y40458803D03*
D45*
X17169505Y40458803D03*
D46*
X13105505Y40458803D03*
%TO.P,MCU1,23*%
%TO.N,P0*%
X13105505Y42998803D03*
D44*
X17169505Y42998803D03*
D45*
X17169505Y42998803D03*
D46*
%TO.P,MCU1,24*%
%TO.N,P1*%
X13105505Y45538803D03*
D44*
X17169505Y45538803D03*
D45*
X17169505Y45538803D03*
%TD*%
D19*
%TO.P,S13,1*%
%TO.N,middle_top*%
X102736517Y54048171D03*
%TO.P,S13,2*%
%TO.N,P19*%
X90992740Y53477031D03*
%TD*%
D13*
%TO.P,D14,1*%
%TO.N,index_bottom*%
X114699434Y721738D03*
D17*
%TO.N,P3*%
X109339749Y1763555D03*
%TO.P,D14,2*%
%TO.N,index_bottom*%
X112579119Y1133885D03*
D18*
%TO.N,P3*%
X107219434Y2175702D03*
%TD*%
D10*
%TO.P,S2,1*%
%TO.N,outer_bottom*%
X40592049Y8342124D03*
%TO.P,S2,2*%
%TO.N,P14*%
X28942738Y6749620D03*
%TD*%
D27*
%TO.P,D10,1*%
%TO.N,P16*%
X75366586Y39654998D03*
D13*
%TO.N,ring_top*%
X80805809Y39179128D03*
D28*
%TO.P,D10,2*%
%TO.N,P16*%
X73214805Y39843254D03*
D27*
%TO.N,ring_top*%
X78654028Y39367384D03*
%TD*%
D13*
%TO.P,D17,1*%
%TO.N,inner_bottom*%
X131987105Y-4676078D03*
D17*
%TO.N,P3*%
X126627420Y-3634261D03*
D18*
%TO.P,D17,2*%
X124507105Y-3222114D03*
D17*
%TO.N,inner_bottom*%
X129866790Y-4263931D03*
%TD*%
D47*
%TO.P,REF\u002A\u002A,1*%
%TO.N,pos*%
X32584193Y51870878D03*
%TD*%
D48*
%TO.N,outer_top*%
X41380159Y41304217D02*
X42371471Y42295529D01*
X41380159Y32285036D02*
X41380159Y41304217D01*
X42332659Y31332536D02*
X41380159Y32285036D01*
X42219613Y31445582D02*
X42332659Y31332536D01*
X40175619Y31445582D02*
X42219613Y31445582D01*
X40288665Y31332536D02*
X40175619Y31445582D01*
%TO.N,outouter_bottom*%
X22931505Y5378803D02*
X21979005Y4426303D01*
X21979005Y4426303D02*
X12399005Y4426303D01*
X12399005Y4426303D02*
X11981505Y4843803D01*
X22931505Y3218803D02*
X22931505Y5378803D01*
%TO.N,P4*%
X14181505Y-6706197D02*
X9186505Y-1711197D01*
X9845514Y31423803D02*
X16044505Y31423803D01*
X9186505Y30764794D02*
X9845514Y31423803D01*
X9186505Y-1711197D02*
X9186505Y30764794D01*
X16044505Y31423803D02*
X17169505Y30298803D01*
%TO.N,P3*%
X10120911Y34239200D02*
X15769108Y34239200D01*
X97201865Y4622800D02*
X103098600Y4622800D01*
X8736505Y-1897593D02*
X8736505Y32854794D01*
X103156048Y-1519299D02*
X102182077Y-2493270D01*
X73050788Y-758200D02*
X70251509Y2041079D01*
X103098600Y4622800D02*
X103156048Y4565352D01*
X36663973Y-3898368D02*
X48292171Y-3898368D01*
X32943679Y-2222068D02*
X34987673Y-2222068D01*
X126215273Y-3222114D02*
X126627420Y-3634261D01*
X70251509Y2041079D02*
X70251509Y5972634D01*
X107219434Y-7317865D02*
X107219434Y2175702D01*
X81857000Y-11500396D02*
X81857000Y-11873188D01*
X16841505Y-8331197D02*
X12556505Y-8331197D01*
X70251509Y5972634D02*
X72215034Y5972634D01*
X87128253Y-2863947D02*
X84757937Y-2863947D01*
X99806623Y-2493270D02*
X98245192Y-4054701D01*
X79296396Y-758200D02*
X73050788Y-758200D01*
X81857000Y-11873188D02*
X80969713Y-12760475D01*
X81046161Y847829D02*
X81046161Y2387600D01*
X35100719Y-2335114D02*
X36663973Y-3898368D01*
X12556505Y-8331197D02*
X12556505Y-5717593D01*
X22931505Y-81197D02*
X22931505Y-2241197D01*
X76403200Y-12954893D02*
X74910330Y-14447763D01*
X91603616Y10221049D02*
X97201865Y4622800D01*
X89464637Y10521663D02*
X89757564Y10228736D01*
X81046161Y2387600D02*
X75800068Y2387600D01*
X15769108Y34239200D02*
X17169505Y32838803D01*
X48292171Y-3898368D02*
X51023682Y-1166857D01*
X74381192Y-22344800D02*
X66377610Y-22344800D01*
X63819427Y-6197600D02*
X61520195Y-3898368D01*
X114325418Y-3222114D02*
X124507105Y-3222114D01*
X53067676Y-1166857D02*
X53180722Y-1279903D01*
X103156048Y4565352D02*
X103156048Y-1519299D01*
X89757564Y10228736D02*
X89757564Y-234636D01*
X107219434Y2175702D02*
X108927602Y2175702D01*
X84757937Y-2863947D02*
X81046161Y847829D01*
X75800068Y2387600D02*
X72403290Y5784378D01*
X34987673Y-2222068D02*
X35100719Y-2335114D01*
X102146215Y-11026674D02*
X103510625Y-11026674D01*
X81882400Y-3454400D02*
X81882400Y-11474996D01*
X12556505Y-5717593D02*
X8736505Y-1897593D01*
X80969713Y-12760475D02*
X76403200Y-12760475D01*
X32924550Y-2241197D02*
X32943679Y-2222068D01*
X63819427Y-19786617D02*
X63819427Y-6197600D01*
X103510625Y-11026674D02*
X107219434Y-7317865D01*
X124507105Y-3222114D02*
X126215273Y-3222114D01*
X66377610Y-22344800D02*
X63819427Y-19786617D01*
X51023682Y-1166857D02*
X53067676Y-1166857D01*
X74910330Y-21815662D02*
X74381192Y-22344800D01*
X22931505Y-2241197D02*
X32924550Y-2241197D01*
X22931505Y-2241197D02*
X16841505Y-8331197D01*
X102182077Y-2493270D02*
X99806623Y-2493270D01*
X55799187Y-3898368D02*
X53180722Y-1279903D01*
X109339749Y1763555D02*
X114325418Y-3222114D01*
X8736505Y32854794D02*
X10120911Y34239200D01*
X76403200Y-12760475D02*
X76403200Y-12954893D01*
X74910330Y-14447763D02*
X74910330Y-21815662D01*
X98245192Y-4054701D02*
X98245192Y-7125651D01*
X81842600Y-3304404D02*
X79296396Y-758200D01*
X98245192Y-7125651D02*
X102146215Y-11026674D01*
X72215034Y5972634D02*
X72403290Y5784378D01*
X89757564Y-234636D02*
X87128253Y-2863947D01*
X61520195Y-3898368D02*
X55799187Y-3898368D01*
X89464637Y10521663D02*
X91303002Y10521663D01*
X91303002Y10521663D02*
X91603616Y10221049D01*
X108927602Y2175702D02*
X109339749Y1763555D01*
X81882400Y-11474996D02*
X81857000Y-11500396D01*
%TO.N,outer_bottom*%
X40440191Y-2507822D02*
X40553237Y-2620868D01*
X39600737Y-1668368D02*
X39600737Y7350812D01*
X39600737Y7350812D02*
X40592049Y8342124D01*
X40553237Y-2620868D02*
X39600737Y-1668368D01*
X38396197Y-2507822D02*
X40440191Y-2507822D01*
%TO.N,P14*%
X30722160Y40703025D02*
X30338249Y40319114D01*
X19818505Y23803803D02*
X18693505Y22678803D01*
X30338249Y40319114D02*
X30338249Y8145131D01*
X29754968Y23803803D02*
X19818505Y23803803D01*
X29832449Y23726322D02*
X29754968Y23803803D01*
X30338249Y8145131D02*
X28942738Y6749620D01*
%TO.N,outer_home*%
X41442948Y14355834D02*
X40490448Y15308334D01*
X39285908Y14468880D02*
X41329902Y14468880D01*
X40490448Y15308334D02*
X40490448Y24327514D01*
X41329902Y14468880D02*
X41442948Y14355834D01*
X40490448Y24327514D02*
X41481760Y25318826D01*
%TO.N,P10*%
X117569170Y13465548D02*
X127750858Y13465548D01*
X51519796Y5290400D02*
X52748600Y6519204D01*
X72864392Y-1208200D02*
X68605400Y3050792D01*
X81407000Y-3632200D02*
X81432400Y-3606800D01*
X79110000Y-1208200D02*
X72864392Y-1208200D01*
X106849800Y15233446D02*
X105871279Y14254925D01*
X84844259Y17551400D02*
X85344000Y17551400D01*
X84017581Y18378078D02*
X84844259Y17551400D01*
X49702164Y15875000D02*
X49767318Y15809846D01*
X64269427Y6856019D02*
X64269427Y-19600221D01*
X37553684Y13078334D02*
X47856266Y13078334D01*
X89307564Y3145087D02*
X87160855Y5291796D01*
X106534189Y-2948345D02*
X105742522Y-2156678D01*
X35990430Y14641588D02*
X37553684Y13078334D01*
X73696682Y22907944D02*
X73884938Y22719688D01*
X102206881Y10255171D02*
X103606048Y8856004D01*
X85344000Y17551400D02*
X85360855Y17534545D01*
X105742522Y4900612D02*
X110045878Y9203968D01*
X81496161Y1034225D02*
X82849514Y-319128D01*
X110463186Y18863364D02*
X112171354Y18863364D01*
X53957388Y15809846D02*
X54070434Y15696800D01*
X112171354Y18863364D02*
X112583501Y18451217D01*
X74460330Y-14261367D02*
X75946000Y-12775697D01*
X72153652Y12517148D02*
X72153652Y22487449D01*
X68605400Y3050792D02*
X68605400Y8968896D01*
X77148226Y19456400D02*
X84017581Y19456400D01*
X93969559Y27055606D02*
X96285565Y24739600D01*
X85360855Y17534545D02*
X85360855Y5377651D01*
X89307564Y1042826D02*
X89307564Y3145087D01*
X98695192Y-4241097D02*
X98695192Y-6939255D01*
X72153652Y22487449D02*
X71733157Y22907944D01*
X51256299Y9958433D02*
X49702998Y9958433D01*
X103606048Y8856004D02*
X103606048Y-1705695D01*
X99993019Y-2943270D02*
X98695192Y-4241097D01*
X105742522Y-2156678D02*
X105742522Y4900612D01*
X103495825Y14254925D02*
X102206881Y12965981D01*
X96285565Y24739600D02*
X106781600Y24739600D01*
X75946000Y-12310475D02*
X80783317Y-12310475D01*
X49702164Y9959267D02*
X49702164Y15875000D01*
X84721002Y4737798D02*
X82344854Y4737798D01*
X100296013Y-8540076D02*
X105172235Y-8540076D01*
X81496161Y3889105D02*
X81496161Y1034225D01*
X74194796Y-21894800D02*
X74460330Y-21629266D01*
X87160855Y5291796D02*
X87160855Y12471400D01*
X49767318Y15809846D02*
X51913394Y15809846D01*
X110045878Y13741400D02*
X110463186Y14158708D01*
X82849514Y-319128D02*
X87945610Y-319128D01*
X91830580Y27356220D02*
X93668945Y27356220D01*
X47856266Y13078334D02*
X47902164Y13032436D01*
X33833390Y14754634D02*
X35877384Y14754634D01*
X49702998Y9958433D02*
X49702164Y9959267D01*
X82344854Y4737798D02*
X81496161Y3889105D01*
X52748600Y6519204D02*
X52748600Y8466133D01*
X93668945Y27356220D02*
X93969559Y27055606D01*
X47902164Y10229000D02*
X45754455Y10229000D01*
X73884938Y22719688D02*
X77148226Y19456400D01*
X87945610Y-319128D02*
X89307564Y1042826D01*
X45754455Y10229000D02*
X44881486Y9356031D01*
X105871279Y14254925D02*
X103495825Y14254925D01*
X105172235Y-8540076D02*
X106534189Y-7178122D01*
X127750858Y13465548D02*
X129459026Y13465548D01*
X64269427Y-19600221D02*
X66564006Y-21894800D01*
X52748600Y8466133D02*
X51256299Y9958433D01*
X102206881Y12965981D02*
X102206881Y10255171D01*
X129459026Y13465548D02*
X129871173Y13053401D01*
X66564006Y-21894800D02*
X74194796Y-21894800D01*
X84017581Y19456400D02*
X84017581Y18378078D01*
X103606048Y-1705695D02*
X102368473Y-2943270D01*
X110045878Y9203968D02*
X110045878Y13741400D01*
X44881486Y9356031D02*
X44881486Y6253633D01*
X55428646Y15696800D02*
X64269427Y6856019D01*
X106849800Y24671400D02*
X106849800Y15233446D01*
X81407000Y-11686792D02*
X81407000Y-3632200D01*
X102368473Y-2943270D02*
X99993019Y-2943270D01*
X85360855Y5377651D02*
X84721002Y4737798D01*
X74460330Y-21629266D02*
X74460330Y-14261367D01*
X98695192Y-6939255D02*
X100296013Y-8540076D01*
X71733157Y22907944D02*
X73696682Y22907944D01*
X106534189Y-7178122D02*
X106534189Y-2948345D01*
X75946000Y-12775697D02*
X75946000Y-12310475D01*
X106781600Y24739600D02*
X106849800Y24671400D01*
X45844719Y5290400D02*
X51519796Y5290400D01*
X47902164Y13032436D02*
X47902164Y10229000D01*
X68605400Y8968896D02*
X72153652Y12517148D01*
X81432400Y-3606800D02*
X81432400Y-3530600D01*
X35877384Y14754634D02*
X35990430Y14641588D01*
X44881486Y6253633D02*
X45844719Y5290400D01*
X110463186Y14158708D02*
X110463186Y18863364D01*
X54070434Y15696800D02*
X55428646Y15696800D01*
X80783317Y-12310475D02*
X81407000Y-11686792D01*
X87160855Y12471400D02*
X91830580Y17141125D01*
X81432400Y-3530600D02*
X79110000Y-1208200D01*
X91830580Y17141125D02*
X91830580Y27356220D01*
X112583501Y18451217D02*
X117569170Y13465548D01*
X51913394Y15809846D02*
X53957388Y15809846D01*
%TO.N,P16*%
X86710855Y16225855D02*
X86710855Y5105400D01*
X83035910Y130872D02*
X81946161Y1220621D01*
X106491540Y9117002D02*
X108497528Y9117002D01*
X48352164Y9779000D02*
X48352164Y22987000D01*
X34723101Y31731336D02*
X34977962Y31476475D01*
X78900996Y-1658200D02*
X80942600Y-3699804D01*
X34088251Y5801569D02*
X32989901Y4703219D01*
X108937527Y30128687D02*
X108912483Y30153731D01*
X80596921Y-11860475D02*
X75481600Y-11860475D01*
X113706939Y35551027D02*
X115415107Y35551027D01*
X32989901Y4703219D02*
X27933081Y4703219D01*
X46668661Y26593800D02*
X48352164Y26593800D01*
X87360754Y34874200D02*
X88176798Y34874200D01*
X109595878Y13920122D02*
X108199800Y15316200D01*
X104056048Y9093200D02*
X104056048Y-1892091D01*
X85019811Y21601190D02*
X87183990Y21601190D01*
X34977962Y31476475D02*
X34977962Y20673118D01*
X67597761Y16811844D02*
X67597761Y29414072D01*
X132702779Y30153210D02*
X133114926Y29741063D01*
X49252164Y9772871D02*
X49516602Y9508433D01*
X86817200Y35417754D02*
X87360754Y34874200D01*
X89076798Y32536398D02*
X89076798Y22360255D01*
X30788249Y10654873D02*
X34088251Y7354871D01*
X73214805Y39843254D02*
X75178330Y39843254D01*
X84467581Y18564474D02*
X84467581Y21048960D01*
X52298600Y6705600D02*
X51333400Y5740400D01*
X75481600Y-11860475D02*
X75481600Y-12603701D01*
X51069903Y9508433D02*
X52298600Y8279737D01*
X104956048Y-2006600D02*
X104956048Y7581510D01*
X106057675Y13804925D02*
X103682221Y13804925D01*
X50406314Y22735133D02*
X49252164Y21580983D01*
X84467581Y21048960D02*
X85019811Y21601190D01*
X107299800Y25857200D02*
X107299800Y15047050D01*
X72677996Y-1658200D02*
X78900996Y-1658200D01*
X52803105Y32786548D02*
X53057966Y32531687D01*
X87962123Y17477123D02*
X86710855Y16225855D01*
X68645652Y12918052D02*
X67016113Y11288513D01*
X73214805Y39843254D02*
X73214805Y30981217D01*
X92646577Y34311681D02*
X90852081Y34311681D01*
X100179415Y-3393270D02*
X99145192Y-4427493D01*
X19865302Y21310600D02*
X18693505Y20138803D01*
X85810855Y18008600D02*
X85023455Y18008600D01*
X110543553Y41208601D02*
X110543553Y31734713D01*
X105892600Y27137400D02*
X107172800Y25857200D01*
X65183675Y13411200D02*
X64832757Y13762118D01*
X67016113Y11288513D02*
X67016113Y4003683D01*
X106084189Y-6991726D02*
X106084189Y-3134741D01*
X68497761Y17170400D02*
X70148761Y17170400D01*
X107299800Y15047050D02*
X106057675Y13804925D01*
X64832757Y13762118D02*
X64832757Y16394858D01*
X109595878Y10215352D02*
X109595878Y13920122D01*
X89076798Y22360255D02*
X89147504Y22360255D01*
X81946161Y1220621D02*
X81946161Y3702709D01*
X80942600Y-3699804D02*
X80942600Y-11514796D01*
X70148761Y17170400D02*
X71703652Y15615509D01*
X74010330Y-21442870D02*
X66748472Y-21442870D01*
X49516602Y9508433D02*
X51069903Y9508433D01*
X90280634Y17477123D02*
X87962123Y17477123D01*
X102656881Y10441567D02*
X104005248Y9093200D01*
X115415107Y35551027D02*
X115827254Y35138880D01*
X34088251Y7354871D02*
X34088251Y5801569D01*
X104005248Y9093200D02*
X104056048Y9093200D01*
X27559000Y8458200D02*
X29888249Y8458200D01*
X75481600Y-12603701D02*
X74010330Y-14074971D01*
X96034888Y44190777D02*
X96335502Y43890163D01*
X102656881Y12779585D02*
X102656881Y10441567D01*
X94196523Y35861627D02*
X92646577Y34311681D01*
X80942600Y-11514796D02*
X80596921Y-11860475D01*
X110543553Y31734713D02*
X108937527Y30128687D01*
X46221198Y26146337D02*
X46668661Y26593800D01*
X67597761Y29414072D02*
X65901585Y31110248D01*
X98372888Y41852777D02*
X109899377Y41852777D01*
X27251483Y8150683D02*
X27559000Y8458200D01*
X88857564Y1229222D02*
X87759214Y130872D01*
X87759214Y130872D02*
X83035910Y130872D01*
X91378984Y18575473D02*
X90280634Y17477123D01*
X34977962Y20673118D02*
X32415044Y18110200D01*
X86710855Y5105400D02*
X88857564Y2958691D01*
X38443395Y30055036D02*
X36880141Y31618290D01*
X104956048Y7581510D02*
X106491540Y9117002D01*
X87183990Y21601190D02*
X88176798Y22593998D01*
X53057966Y23833483D02*
X51959616Y22735133D01*
X71703652Y14016402D02*
X70605302Y12918052D01*
X99145192Y-4427493D02*
X99145192Y-6752859D01*
X30788249Y18110200D02*
X30788249Y10654873D01*
X29888249Y21310600D02*
X19865302Y21310600D01*
X64719427Y12014514D02*
X66116113Y13411200D01*
X106587117Y30153731D02*
X105892600Y29459214D01*
X65249743Y16811844D02*
X67597761Y16811844D01*
X66116113Y13411200D02*
X65183675Y13411200D01*
X27251483Y5384817D02*
X27251483Y8150683D01*
X53057966Y32531687D02*
X53057966Y23833483D01*
X86817200Y36957000D02*
X86817200Y35417754D01*
X71703652Y15615509D02*
X71703652Y14016402D01*
X90852081Y34311681D02*
X89076798Y32536398D01*
X32415044Y18110200D02*
X30788249Y18110200D01*
X29888249Y8458200D02*
X29888249Y21310600D01*
X46221198Y23416731D02*
X46221198Y26146337D01*
X85810855Y5191255D02*
X85810855Y18008600D01*
X46650929Y22987000D02*
X46221198Y23416731D01*
X45331486Y9169635D02*
X45940851Y9779000D01*
X64719427Y-19413825D02*
X64719427Y12014514D01*
X99145192Y-6752859D02*
X100482409Y-8090076D01*
X82498391Y4254939D02*
X84874539Y4254939D01*
X96335502Y43890163D02*
X98372888Y41852777D01*
X72086950Y29853362D02*
X70533648Y29853362D01*
X52298600Y8279737D02*
X52298600Y6705600D01*
X91378984Y20128775D02*
X91378984Y18575473D01*
X64832757Y16394858D02*
X65249743Y16811844D01*
X106084189Y-3134741D02*
X104956048Y-2006600D01*
X49252164Y21580983D02*
X49252164Y9772871D01*
X109899377Y41852777D02*
X110543553Y41208601D01*
X108199800Y24269172D02*
X109673342Y25742714D01*
X115827254Y35138880D02*
X120812924Y30153210D01*
X108912483Y30153731D02*
X106587117Y30153731D01*
X70533648Y29853362D02*
X68497761Y27817475D01*
X34723101Y31731336D02*
X36767095Y31731336D01*
X70605302Y12918052D02*
X68645652Y12918052D01*
X130994611Y30153210D02*
X132702779Y30153210D01*
X56523399Y31110248D02*
X54960145Y32673502D01*
X54847099Y32786548D02*
X54960145Y32673502D01*
X94196523Y44190777D02*
X96034888Y44190777D01*
X45331486Y6440029D02*
X45331486Y9169635D01*
X100482409Y-8090076D02*
X104985839Y-8090076D01*
X86410800Y37363400D02*
X86817200Y36957000D01*
X77658184Y37363400D02*
X86410800Y37363400D01*
X51959616Y22735133D02*
X50406314Y22735133D01*
X105892600Y29459214D02*
X105892600Y27137400D01*
X75366586Y39654998D02*
X77658184Y37363400D01*
X104056048Y-1892091D02*
X102554869Y-3393270D01*
X67016113Y4003683D02*
X72677996Y-1658200D01*
X89147504Y22360255D02*
X91378984Y20128775D01*
X45940851Y9779000D02*
X48352164Y9779000D01*
X51333400Y5740400D02*
X46031115Y5740400D01*
X27933081Y4703219D02*
X27251483Y5384817D01*
X111679330Y25742714D02*
X113706939Y27770323D01*
X88176798Y34874200D02*
X88176798Y22593998D01*
X74010330Y-14074971D02*
X74010330Y-21442870D01*
X68497761Y27817475D02*
X68497761Y17170400D01*
X66748472Y-21442870D02*
X64719427Y-19413825D01*
X46031115Y5740400D02*
X45331486Y6440029D01*
X107172800Y25857200D02*
X107299800Y25857200D01*
X104985839Y-8090076D02*
X106084189Y-6991726D01*
X88857564Y2958691D02*
X88857564Y1229222D01*
X113706939Y27770323D02*
X113706939Y35551027D01*
X48352164Y22987000D02*
X46650929Y22987000D01*
X108199800Y15316200D02*
X108199800Y24269172D01*
X52803105Y32786548D02*
X54847099Y32786548D01*
X75178330Y39843254D02*
X75366586Y39654998D01*
X81946161Y3702709D02*
X82498391Y4254939D01*
X94196523Y44190777D02*
X94196523Y35861627D01*
X84874539Y4254939D02*
X85810855Y5191255D01*
X48165236Y30055036D02*
X38443395Y30055036D01*
X103682221Y13804925D02*
X102656881Y12779585D01*
X73214805Y30981217D02*
X72086950Y29853362D01*
X48352164Y26593800D02*
X48352164Y29868108D01*
X85023455Y18008600D02*
X84467581Y18564474D01*
X65901585Y31110248D02*
X56523399Y31110248D01*
X48352164Y29868108D02*
X48165236Y30055036D01*
X102554869Y-3393270D02*
X100179415Y-3393270D01*
X120812924Y30153210D02*
X130994611Y30153210D01*
X36767095Y31731336D02*
X36880141Y31618290D01*
X109673342Y25742714D02*
X111679330Y25742714D01*
X108497528Y9117002D02*
X109595878Y10215352D01*
%TO.N,pinkie_bottom*%
X57680740Y8406024D02*
X58672052Y9397336D01*
X56476200Y-1452611D02*
X58520194Y-1452611D01*
X58520194Y-1452611D02*
X58633240Y-1565657D01*
X57680740Y-613157D02*
X57680740Y8406024D01*
X58633240Y-1565657D02*
X57680740Y-613157D01*
%TO.N,P15*%
X19992302Y26517600D02*
X18693505Y25218803D01*
X48802164Y41758236D02*
X46212000Y44348400D01*
X46212000Y44348400D02*
X31292800Y44348400D01*
X48802164Y9584255D02*
X47022741Y7804832D01*
X48802164Y41758236D02*
X48802164Y9584255D01*
X31292800Y44348400D02*
X29030905Y42086505D01*
X28981400Y26517600D02*
X19992302Y26517600D01*
X29030905Y26567105D02*
X28981400Y26517600D01*
X29030905Y42086505D02*
X29030905Y26567105D01*
%TO.N,pinkie_home*%
X59409906Y15524092D02*
X59522952Y15411046D01*
X58570452Y16363546D02*
X58570452Y25382726D01*
X59522952Y15411046D02*
X58570452Y16363546D01*
X58570452Y25382726D02*
X59561764Y26374038D01*
X57365912Y15524092D02*
X59409906Y15524092D01*
%TO.N,pinkie_top*%
X58255623Y32500794D02*
X60299617Y32500794D01*
X60412663Y32387748D02*
X59460163Y33340248D01*
X60299617Y32500794D02*
X60412663Y32387748D01*
X59460163Y42359428D02*
X60451475Y43350740D01*
X59460163Y33340248D02*
X59460163Y42359428D01*
%TO.N,ring_bottom*%
X77654257Y5496764D02*
X77842513Y5308508D01*
X77842513Y5308508D02*
X77842513Y15842076D01*
X77842513Y15842076D02*
X78263904Y16263467D01*
X75690732Y5496764D02*
X77654257Y5496764D01*
%TO.N,P18*%
X69529408Y48949108D02*
X69529408Y33495445D01*
X66566113Y3817287D02*
X72491600Y-2108200D01*
X75031600Y-11480800D02*
X75031600Y-12417305D01*
X75101925Y-11410475D02*
X75031600Y-11480800D01*
X18693505Y27758803D02*
X20017702Y29083000D01*
X66566113Y15078488D02*
X66566113Y3817287D01*
X80492600Y-11328400D02*
X80410525Y-11410475D01*
X28575000Y29083000D02*
X28580905Y29088905D01*
X78714600Y-2108200D02*
X80492600Y-3886200D01*
X45821600Y44798400D02*
X49972308Y48949108D01*
X75031600Y-12417305D02*
X73560330Y-13888575D01*
X68783200Y-20992870D02*
X68064842Y-20274512D01*
X20017702Y29083000D02*
X28575000Y29083000D01*
X73560330Y-13888575D02*
X73560330Y-20992870D01*
X73560330Y-20992870D02*
X68783200Y-20992870D01*
X68064842Y-20274512D02*
X68064842Y-19709514D01*
X68047761Y16560136D02*
X66566113Y15078488D01*
X80410525Y-11410475D02*
X75101925Y-11410475D01*
X28580905Y29088905D02*
X28580905Y42272901D01*
X72491600Y-2108200D02*
X78714600Y-2108200D01*
X69529408Y33495445D02*
X68047761Y32013798D01*
X49972308Y48949108D02*
X69529408Y48949108D01*
X80492600Y-3886200D02*
X80492600Y-11328400D01*
X31106404Y44798400D02*
X45821600Y44798400D01*
X68047761Y32013798D02*
X68047761Y16560136D01*
X28580905Y42272901D02*
X31106404Y44798400D01*
%TO.N,ring_home*%
X79324161Y22243818D02*
X79324161Y32777386D01*
X79324161Y22243818D02*
X77360636Y22243818D01*
X79324161Y32777386D02*
X79745552Y33198777D01*
X77360636Y22243818D02*
X77172380Y22432074D01*
%TO.N,ring_top*%
X80805809Y49712697D02*
X81227199Y50134087D01*
X80617553Y39367384D02*
X80805809Y39179128D01*
X78654028Y39367384D02*
X80617553Y39367384D01*
X80805809Y39179128D02*
X80805809Y49712697D01*
%TO.N,middle_bottom*%
X94871500Y9761777D02*
X96709865Y9761777D01*
X96709865Y9761777D02*
X97010479Y9461163D01*
X97010479Y9461163D02*
X97010479Y19384903D01*
X97010479Y19384903D02*
X98004632Y20379056D01*
%TO.N,P19*%
X19818505Y31423803D02*
X18693505Y30298803D01*
X28130905Y42459297D02*
X28130905Y31427806D01*
X88626798Y22173859D02*
X86260855Y19807916D01*
X86260855Y19807916D02*
X86260855Y4983085D01*
X90992740Y39008416D02*
X88626798Y36642474D01*
X30920008Y45248400D02*
X28130905Y42459297D01*
X88626798Y36642474D02*
X88626798Y22173859D01*
X66929682Y49399108D02*
X49785912Y49399108D01*
X90992740Y53477031D02*
X90992740Y39008416D01*
X28126902Y31423803D02*
X19818505Y31423803D01*
X28130905Y31427806D02*
X28126902Y31423803D01*
X45635204Y45248400D02*
X30920008Y45248400D01*
X69825097Y52294523D02*
X66929682Y49399108D01*
X90992740Y53477031D02*
X89810232Y52294523D01*
X86260855Y4983085D02*
X83739435Y2461665D01*
X89810232Y52294523D02*
X69825097Y52294523D01*
X49785912Y49399108D02*
X45635204Y45248400D01*
%TO.N,middle_home*%
X99075808Y26596334D02*
X99376422Y26295720D01*
X99376422Y26295720D02*
X99376422Y36219461D01*
X97237443Y26596334D02*
X99075808Y26596334D01*
X99376422Y36219461D02*
X100370575Y37213614D01*
%TO.N,middle_top*%
X101441751Y43430891D02*
X101742365Y43130277D01*
X101742365Y53054019D02*
X102736517Y54048171D01*
X99603386Y43430891D02*
X101441751Y43430891D01*
X101742365Y43130277D02*
X101742365Y53054019D01*
%TO.N,index_bottom*%
X112579119Y1133885D02*
X114287287Y1133885D01*
X114699434Y10008450D02*
X116263622Y11572638D01*
X114699434Y721738D02*
X114699434Y10008450D01*
X114287287Y1133885D02*
X114699434Y721738D01*
%TO.N,P20*%
X110993553Y31548317D02*
X107749800Y28304564D01*
X110993553Y44992226D02*
X110993553Y31548317D01*
X107749800Y14860654D02*
X104506048Y11616902D01*
X107749800Y28304564D02*
X107749800Y14860654D01*
X69638701Y52744523D02*
X86995000Y52744523D01*
X86995000Y52744523D02*
X90629441Y56378964D01*
X90629441Y56378964D02*
X103440042Y56378964D01*
X19818505Y33963803D02*
X27250197Y33963803D01*
X27680905Y42645693D02*
X30733612Y45698400D01*
X30733612Y45698400D02*
X45448808Y45698400D01*
X103440042Y56378964D02*
X110993553Y48825453D01*
X49599516Y49849108D02*
X66743286Y49849108D01*
X27250197Y33963803D02*
X27680905Y34394511D01*
X45448808Y45698400D02*
X49599516Y49849108D01*
X18693505Y32838803D02*
X19818505Y33963803D01*
X27680905Y34394511D02*
X27680905Y42645693D01*
X104506048Y11616902D02*
X104506048Y-2078487D01*
X110993553Y48825453D02*
X110993553Y44992226D01*
X66743286Y49849108D02*
X69638701Y52744523D01*
X104506048Y-2078487D02*
X100994359Y-5590176D01*
%TO.N,index_home*%
X117943186Y26696112D02*
X119507374Y28260300D01*
X117531039Y17821547D02*
X117943186Y17409400D01*
X115822871Y17821547D02*
X117531039Y17821547D01*
X117943186Y17409400D02*
X117943186Y26696112D01*
%TO.N,index_top*%
X119066624Y34509210D02*
X120774792Y34509210D01*
X121186939Y34097063D02*
X121186939Y43383774D01*
X120774792Y34509210D02*
X121186939Y34097063D01*
X121186939Y43383774D02*
X122751127Y44947962D01*
%TO.N,inner_bottom*%
X131574958Y-4263931D02*
X131987105Y-4676078D01*
X131987105Y-4676078D02*
X131987105Y4610634D01*
X131987105Y4610634D02*
X133551293Y6174822D01*
X129866790Y-4263931D02*
X131574958Y-4263931D01*
%TO.N,P21*%
X130333039Y12053561D02*
X130752391Y12472913D01*
X86808604Y53194523D02*
X90443045Y56828964D01*
X121793719Y6219086D02*
X127628194Y12053561D01*
X128985572Y-1782372D02*
X125028101Y2175099D01*
X128281225Y42429714D02*
X128281225Y39594410D01*
X127628194Y12053561D02*
X130333039Y12053561D01*
X20017505Y36702803D02*
X27078308Y36702803D01*
X69452305Y53194523D02*
X86808604Y53194523D01*
X45262412Y46148400D02*
X49413120Y50299108D01*
X129736821Y15287167D02*
X129736821Y17738969D01*
X131648034Y-15214434D02*
X128985572Y-12551972D01*
X130752391Y14271597D02*
X129736821Y15287167D01*
X125037472Y22438318D02*
X125037472Y22906748D01*
X129736821Y17738969D02*
X125037472Y22438318D01*
X130752391Y12472913D02*
X130752391Y14271597D01*
X27230905Y36855400D02*
X27230905Y42832089D01*
X131515607Y36298306D02*
X128281225Y39532688D01*
X90443045Y56828964D02*
X103626438Y56828964D01*
X49413120Y50299108D02*
X66556890Y50299108D01*
X103626438Y56828964D02*
X112488732Y47966670D01*
X128281225Y39532688D02*
X128281225Y39594410D01*
X27078308Y36702803D02*
X27230905Y36855400D01*
X129084250Y24156850D02*
X126287574Y24156850D01*
X131515607Y35552412D02*
X131515607Y36298306D01*
X122744270Y47966670D02*
X128281225Y42429714D01*
X128985572Y-12551972D02*
X128985572Y-1782372D01*
X119475371Y-28563606D02*
X128408138Y-28563606D01*
X18693505Y35378803D02*
X20017505Y36702803D01*
X126287574Y24156850D02*
X125037472Y22906748D01*
X121793719Y6157364D02*
X121793719Y6219086D01*
X133996144Y33071875D02*
X131515607Y35552412D01*
X133996144Y29068744D02*
X129084250Y24156850D01*
X66556890Y50299108D02*
X69452305Y53194523D01*
X112488732Y47966670D02*
X122744270Y47966670D01*
X30547216Y46148400D02*
X45262412Y46148400D01*
X131648034Y-25323710D02*
X131648034Y-15214434D01*
X128408138Y-28563606D02*
X131648034Y-25323710D01*
X133996144Y33071875D02*
X133996144Y29068744D01*
X125028101Y2175099D02*
X125028101Y2922982D01*
X27230905Y42832089D02*
X30547216Y46148400D01*
X125028101Y2922982D02*
X121793719Y6157364D01*
%TO.N,inner_home*%
X135230858Y21298296D02*
X136795046Y22862484D01*
X134818711Y12423731D02*
X135230858Y12011584D01*
X133110543Y12423731D02*
X134818711Y12423731D01*
X135230858Y12011584D02*
X135230858Y21298296D01*
%TO.N,inner_top*%
X138474611Y37985958D02*
X140038799Y39550146D01*
X138474611Y28699246D02*
X138474611Y37985958D01*
X136354296Y29111393D02*
X138062464Y29111393D01*
X138062464Y29111393D02*
X138474611Y28699246D01*
%TO.N,ctrl_first*%
X77646566Y-8621369D02*
X77834822Y-8433113D01*
X67301253Y-8433113D02*
X66879863Y-8011723D01*
X77834822Y-8433113D02*
X67301253Y-8433113D01*
X77646566Y-10584894D02*
X77646566Y-8621369D01*
%TO.N,P2*%
X12106505Y-5903989D02*
X12106505Y-8517593D01*
X8286505Y34944794D02*
X8286505Y-2083989D01*
X17169505Y35378803D02*
X16044505Y36503803D01*
X61333799Y-4348368D02*
X63369427Y-6383996D01*
X86943217Y-6824588D02*
X83407212Y-6824588D01*
X119253000Y-21895862D02*
X112280399Y-21895862D01*
X35610585Y-3481376D02*
X36477577Y-4348368D01*
X12106505Y-8517593D02*
X12370109Y-8781197D01*
X16044505Y36503803D02*
X9845514Y36503803D01*
X17027901Y-8781197D02*
X22353901Y-3455197D01*
X96988370Y-15031376D02*
X89082196Y-7125202D01*
X75360330Y-16002000D02*
X75382447Y-16024117D01*
X129328717Y-25438073D02*
X128916570Y-25850220D01*
X82332400Y-12034184D02*
X81156109Y-13210475D01*
X121087043Y-23729905D02*
X119253000Y-21895862D01*
X81156109Y-13210475D02*
X77317600Y-13210475D01*
X82332400Y-7899400D02*
X82332400Y-12034184D01*
X83407212Y-6824588D02*
X82332400Y-7899400D01*
X74567588Y-22794800D02*
X75360330Y-22002058D01*
X87243831Y-7125202D02*
X86943217Y-6824588D01*
X12370109Y-8781197D02*
X17027901Y-8781197D01*
X103707745Y-15031376D02*
X96988370Y-15031376D01*
X24155400Y-2691197D02*
X30983645Y-2691197D01*
X129328717Y-23729905D02*
X129328717Y-25438073D01*
X104119892Y-15443523D02*
X103707745Y-15031376D01*
X9845514Y36503803D02*
X8286505Y34944794D01*
X75382447Y-16024117D02*
X77170696Y-16024117D01*
X129328717Y-23729905D02*
X121087043Y-23729905D01*
X77170696Y-13357379D02*
X77170696Y-16024117D01*
X63369427Y-6383996D02*
X63369427Y-19973013D01*
X75360330Y-22002058D02*
X75360330Y-16002000D01*
X105828060Y-15443523D02*
X104119892Y-15443523D01*
X24155400Y-3445302D02*
X24155400Y-2691197D01*
X66191214Y-22794800D02*
X74567588Y-22794800D01*
X63369427Y-19973013D02*
X66191214Y-22794800D01*
X112280399Y-21895862D02*
X105828060Y-15443523D01*
X22353901Y-3455197D02*
X24145505Y-3455197D01*
X24145505Y-3455197D02*
X24155400Y-3445302D01*
X36477577Y-4348368D02*
X61333799Y-4348368D01*
X31773824Y-3481376D02*
X35610585Y-3481376D01*
X30983645Y-2691197D02*
X31773824Y-3481376D01*
X77317600Y-13210475D02*
X77170696Y-13357379D01*
X8286505Y-2083989D02*
X12106505Y-5903989D01*
X89082196Y-7125202D02*
X87243831Y-7125202D01*
%TO.N,alt_first*%
X94489059Y-7885088D02*
X94489059Y2038652D01*
X92350080Y-7584474D02*
X94188445Y-7584474D01*
X94489059Y2038652D02*
X95483212Y3032805D01*
X94188445Y-7584474D02*
X94489059Y-7885088D01*
%TO.N,shift_first*%
X112348560Y-5634440D02*
X112751933Y-5634440D01*
X111187745Y-16485340D02*
X111187745Y-6795255D01*
X111187745Y-6795255D02*
X112348560Y-5634440D01*
X109067430Y-16073193D02*
X110775598Y-16073193D01*
X110775598Y-16073193D02*
X111187745Y-16485340D01*
%TO.N,e_first*%
X129958387Y-20490535D02*
X129958387Y-18782367D01*
X130370534Y-18370220D02*
X121083823Y-18370220D01*
X121083823Y-18370220D02*
X119519635Y-16806032D01*
X129958387Y-18782367D02*
X130370534Y-18370220D01*
%TO.N,RAW*%
X38907794Y53111627D02*
X37911298Y52115131D01*
X32701949Y54117795D02*
X31959193Y53375039D01*
X34704613Y52115131D02*
X32701949Y54117795D01*
X37911298Y52115131D02*
X34704613Y52115131D01*
X31959193Y47311604D02*
X31695989Y47048400D01*
X31959193Y53375039D02*
X31959193Y47311604D01*
X20203102Y47048400D02*
X18693505Y45538803D01*
X31695989Y47048400D02*
X20203102Y47048400D01*
%TO.N,GND*%
X31509193Y47498000D02*
X30011393Y47498000D01*
X50062631Y55241027D02*
X44505043Y55241027D01*
X17192403Y40458803D02*
X18693505Y41959905D01*
X31509193Y54344479D02*
X31509193Y47498000D01*
X17968505Y43723803D02*
X18693505Y42998803D01*
X33001711Y55394481D02*
X32780453Y55615739D01*
X30011393Y47498000D02*
X30010993Y47498400D01*
X30010993Y47498400D02*
X19627797Y47498400D01*
X41431541Y55733468D02*
X37325437Y55733468D01*
X44505043Y55241027D02*
X43899416Y54635400D01*
X43899416Y54635400D02*
X42529609Y54635400D01*
X51415573Y53888085D02*
X50062631Y55241027D01*
X36986450Y55394481D02*
X33001711Y55394481D01*
X32780453Y55615739D02*
X31509193Y54344479D01*
X17968505Y45839108D02*
X17968505Y43723803D01*
X42529609Y54635400D02*
X41431541Y55733468D01*
X37325437Y55733468D02*
X36986450Y55394481D01*
X18693505Y41959905D02*
X18693505Y42998803D01*
X17169505Y40458803D02*
X17192403Y40458803D01*
X19627797Y47498400D02*
X17968505Y45839108D01*
X17169505Y37918803D02*
X17169505Y40458803D01*
%TO.N,RST*%
X26780905Y41859200D02*
X26780905Y43018485D01*
X30360820Y46598400D02*
X45076016Y46598400D01*
X26755505Y41859200D02*
X26780905Y41859200D01*
X45076016Y46598400D02*
X48020233Y49542617D01*
X18693505Y40458803D02*
X19818505Y41583803D01*
X48020233Y49542617D02*
X48020233Y54066027D01*
X19818505Y41583803D02*
X26480108Y41583803D01*
X26480108Y41583803D02*
X26755505Y41859200D01*
X26780905Y43018485D02*
X30360820Y46598400D01*
%TO.N,pos*%
X40614195Y51665131D02*
X32789940Y51665131D01*
X32789940Y51665131D02*
X32584193Y51870878D01*
X41903683Y52954619D02*
X40614195Y51665131D01*
%TD*%
M02*
