0
SECTION
2
HEADER
9
$INSUNITS
70
4
0
ENDSEC
0
SECTION
2
TABLES
0
TABLE
2
LTYPE
0
LTYPE
72
65
70
64
2
CONTINUOUS
3
______
73
0
40
0
0
ENDTAB
0
TABLE
2
LAYER
0
ENDTAB
0
ENDSEC
0
SECTION
2
ENTITIES
0
LINE
8
0
10
4.5519687
20
54.1026071
11
10.1517253
21
-9.9029022
0
LINE
8
0
10
7.2790857
20
57.3526583
11
60.8674727
21
62.0410346
0
LINE
8
0
10
13.4017765
20
-12.6300192
11
61.4515454
21
-8.4262092
0
LINE
8
0
10
61.5572642
20
62.1013835
11
61.5716967
21
62.1026462
0
LINE
8
0
10
61.5716967
20
62.1026462
11
61.5717408
21
62.1021422
0
LINE
8
0
10
61.5717408
20
62.1021422
11
84.3340021
21
63.2950617
0
LINE
8
0
10
84.3340021
20
63.2950617
11
84.3413285
21
63.1552661
0
LINE
8
0
10
60.866208
20
62.0651668
11
61.5572642
21
62.1013835
0
LINE
8
0
10
60.8674727
20
62.0410346
11
60.866208
21
62.0651668
0
LINE
8
0
10
101.0896521
20
63.0763162
11
101.0896521
21
63.1552661
0
LINE
8
0
10
101.0896521
20
63.1552661
11
84.3413285
21
63.1552661
0
LINE
8
0
10
101.0896521
20
63.0763162
11
137.689286
21
61.7982288
0
LINE
8
0
10
138.1555
20
-10.8122742
11
139.2914785
21
21.7178973
0
LINE
8
0
10
139.2914785
20
21.7178973
11
139.3089283
21
22.2175926
0
LINE
8
0
10
138.1555
20
-10.8122742
11
138.1347185
21
-10.8115485
0
LINE
8
0
10
120.6453791
20
-10.2008073
11
119.6667697
21
-10.1666335
0
LINE
8
0
10
119.6667697
20
-10.1666335
11
119.6672183
21
-10.1537863
0
LINE
8
0
10
139.3089283
20
22.2175926
11
139.88477
21
38.7075413
0
LINE
8
0
10
139.88477
20
38.7075413
11
139.9022197
21
39.2072367
0
LINE
8
0
10
139.9022197
20
39.2072367
11
140.4955112
21
56.1968807
0
LINE
8
0
10
140.58276
20
58.6953578
11
140.4955112
21
56.1968807
0
LINE
8
0
10
82.3099404
20
-12.727478
11
82.7646131
21
-21.4031497
0
LINE
8
0
10
64.7089011
20
-11.2577853
11
65.2885963
21
-22.3190291
0
LINE
8
0
10
68.4414929
20
-25.1579097
11
79.9257325
21
-24.5560463
0
LINE
8
0
10
85.305829
20
-9.57047
11
102.9108608
21
-9.57047
0
LINE
8
0
10
103.0155593
20
-9.5722975
11
119.6672183
21
-10.1537863
0
LINE
8
0
10
137.8908707
20
-17.794437
11
138.1347185
21
-10.8115485
0
LINE
8
0
10
120.3317323
20
-19.1824775
11
120.6453791
21
-10.2008073
0
LINE
8
0
10
137.8908707
20
-17.794437
11
137.8210717
21
-19.7932187
0
LINE
8
0
10
123.2252063
20
-22.2853485
11
134.7182007
21
-22.6866927
0
ARC
8
0
10
13.1403094
20
-9.6414351
40
3
50
184.9999976
51
274.9999976
0
ARC
8
0
10
61.7130125
20
-11.4147933
40
3
50
3.0000026
51
94.9999976
0
ARC
8
0
10
68.2844849
20
-22.1620211
40
3
50
183.0000026
51
273.0000026
0
ARC
8
0
10
79.7687245
20
-21.5601577
40
3
50
273.0000026
51
3.0000026
0
ARC
8
0
10
85.305829
20
-12.57047
40
3
50
90
51
183.0000026
0
ARC
8
0
10
102.9108608
20
-12.57047
40
3
50
87.9999998
51
90
0
ARC
8
0
10
123.3299048
20
-19.287176
40
3
50
177.9999998
51
267.9999998
0
ARC
8
0
10
134.8228992
20
-19.6885202
40
3
50
267.9999998
51
357.9999998
0
ARC
8
0
10
137.5845875
20
58.8000563
40
3
50
357.9999998
51
87.9999998
0
ARC
8
0
10
7.5405528
20
54.3640742
40
3
50
94.9999976
51
184.9999976
0
ENDSEC
0
EOF