0
SECTION
2
HEADER
9
$INSUNITS
70
4
0
ENDSEC
0
SECTION
2
TABLES
0
TABLE
2
LTYPE
0
LTYPE
72
65
70
64
2
CONTINUOUS
3
______
73
0
40
0
0
ENDTAB
0
TABLE
2
LAYER
0
ENDTAB
0
ENDSEC
0
SECTION
2
ENTITIES
0
LINE
8
0
10
7.1815046
20
-9.1811966
11
7.1815046
21
48.3188034
0
LINE
8
0
10
10.1815046
20
51.3188034
11
24.1815046
21
51.3188034
0
LINE
8
0
10
27.6815046
20
-8.1811966
11
27.6815046
21
-9.1811966
0
LINE
8
0
10
10.1815046
20
-12.1811966
11
24.6815046
21
-12.1811966
0
LINE
8
0
10
30.6815046
20
-5.1811966
11
61.4148157
21
-5.1811966
0
LINE
8
0
10
30.1815046
20
57.5988034
11
66.7315046
21
57.5988034
0
LINE
8
0
10
27.1815046
20
54.3188034
11
27.1815046
21
54.5988034
0
LINE
8
0
10
66.7315046
20
57.5988033
11
66.7315046
21
57.5969005
0
LINE
8
0
10
66.7315046
20
57.5969005
11
75.8152808
21
57.2796881
0
LINE
8
0
10
82.2485191
20
63.7711231
11
111.6362627
21
61.2000287
0
LINE
8
0
10
114.3633797
20
57.9499775
11
114.1128548
21
55.0864655
0
LINE
8
0
10
78.9085634
20
60.0163935
11
78.9984679
21
61.0440061
0
LINE
8
0
10
114.1128548
20
55.0864655
11
142.1320499
21
51.1486244
0
LINE
8
0
10
139.9534495
20
14.0911866
11
139.8838628
21
13.5960525
0
LINE
8
0
10
136.8135655
20
-8.250249
11
139.8838628
21
13.5960525
0
LINE
8
0
10
142.3193921
20
30.9257437
11
142.2498055
21
30.4306097
0
LINE
8
0
10
139.9534495
20
14.0911866
11
142.2498055
21
30.4306097
0
LINE
8
0
10
142.3193921
20
30.9257437
11
144.6853348
21
47.7603009
0
LINE
8
0
10
64.0962256
20
-17.3567893
11
64.4129882
21
-8.2858951
0
LINE
8
0
10
66.9094307
20
-22.7582592
11
80.4012069
21
-23.2294024
0
LINE
8
0
10
64.0159567
20
-19.6553882
11
64.0962256
21
-17.3567893
0
LINE
8
0
10
136.8135655
20
-8.250249
11
136.8493109
21
-8.2552727
0
LINE
8
0
10
134.1354354
20
-27.5655
11
136.8493109
21
-8.2552727
0
LINE
8
0
10
118.1707075
20
-28.3512865
11
130.7471119
21
-30.1187849
0
ARC
8
0
10
10.1815046
20
48.3188034
40
3
50
90
51
180
0
ARC
8
0
10
24.1815046
20
54.3188034
40
3
50
270
51
0
0
ARC
8
0
10
30.1815046
20
54.5988034
40
3
50
90
51
180
0
ARC
8
0
10
75.9199793
20
60.2778606
40
3
50
267.9999998
51
355.0000024
0
ARC
8
0
10
81.987052
20
60.782539
40
3
50
85.0000024
51
175.0000024
0
ARC
8
0
10
111.3747956
20
58.2114446
40
3
50
355.0000024
51
85.0000024
0
ARC
8
0
10
141.7145306
20
48.1778202
40
3
50
352.0000003
51
82.0000003
0
ARC
8
0
10
131.1646312
20
-27.1479807
40
3
50
262.0000003
51
352.0000003
0
ARC
8
0
10
118.5882268
20
-25.3804823
40
3
50
250.3746563
51
262.0000003
0
ARC
8
0
10
80.5059054
20
-20.2312299
40
3
50
267.9999998
51
271.8991949
0
ARC
8
0
10
67.0141292
20
-19.7600867
40
3
50
177.9999998
51
267.9999998
0
ARC
8
0
10
61.4148157
20
-8.1811966
40
3
50
357.9999998
51
90
0
ARC
8
0
10
30.6815046
20
-8.1811966
40
3
50
90
51
180
0
ARC
8
0
10
24.6815046
20
-9.1811966
40
3
50
270
51
0
0
ARC
8
0
10
10.1815046
20
-9.1811966
40
3
50
180
51
270
0
LINE
8
0
10
80.6053288
20
-23.2295819
11
117.5806221
21
-28.2062092
0
ENDSEC
0
EOF