0
SECTION
2
HEADER
9
$INSUNITS
70
4
0
ENDSEC
0
SECTION
2
TABLES
0
TABLE
2
LTYPE
0
LTYPE
72
65
70
64
2
CONTINUOUS
3
______
73
0
40
0
0
ENDTAB
0
TABLE
2
LAYER
0
ENDTAB
0
ENDSEC
0
SECTION
2
ENTITIES
0
LINE
8
0
10
28.1815045
20
-4.6811966
11
45.6815045
21
-4.6811966
0
LINE
8
0
10
45.6815045
20
-4.6811966
11
45.6815045
21
11.8188034
0
LINE
8
0
10
45.6815045
20
11.8188034
11
28.1815045
21
11.8188034
0
LINE
8
0
10
28.1815045
20
11.8188034
11
28.1815045
21
-4.6811966
0
LINE
8
0
10
28.1815046
20
12.3188034
11
45.6815046
21
12.3188034
0
LINE
8
0
10
45.6815046
20
12.3188034
11
45.6815046
21
28.8188034
0
LINE
8
0
10
45.6815046
20
28.8188034
11
28.1815046
21
28.8188034
0
LINE
8
0
10
28.1815046
20
28.8188034
11
28.1815046
21
12.3188034
0
LINE
8
0
10
28.1815046
20
29.3188034
11
45.6815046
21
29.3188034
0
LINE
8
0
10
45.6815046
20
29.3188034
11
45.6815046
21
45.8188034
0
LINE
8
0
10
45.6815046
20
45.8188034
11
28.1815046
21
45.8188034
0
LINE
8
0
10
28.1815046
20
45.8188034
11
28.1815046
21
29.3188034
0
LINE
8
0
10
46.1815046
20
-2.6811966
11
63.6815046
21
-2.6811966
0
LINE
8
0
10
63.6815046
20
-2.6811966
11
63.6815046
21
13.8188034
0
LINE
8
0
10
63.6815046
20
13.8188034
11
46.1815046
21
13.8188034
0
LINE
8
0
10
46.1815046
20
13.8188034
11
46.1815046
21
-2.6811966
0
LINE
8
0
10
46.1815045
20
14.3188034
11
63.6815045
21
14.3188034
0
LINE
8
0
10
63.6815045
20
14.3188034
11
63.6815045
21
30.8188034
0
LINE
8
0
10
63.6815045
20
30.8188034
11
46.1815045
21
30.8188034
0
LINE
8
0
10
46.1815045
20
30.8188034
11
46.1815045
21
14.3188034
0
LINE
8
0
10
46.1815046
20
31.3188033
11
63.6815046
21
31.3188033
0
LINE
8
0
10
63.6815046
20
31.3188033
11
63.6815046
21
47.8188033
0
LINE
8
0
10
63.6815046
20
47.8188033
11
46.1815046
21
47.8188033
0
LINE
8
0
10
46.1815046
20
47.8188033
11
46.1815046
21
31.3188033
0
LINE
8
0
10
64.898914
20
5.6291997
11
82.3882535
21
5.0184585
0
LINE
8
0
10
82.3882535
20
5.0184585
11
82.9640952
21
21.5084071
0
LINE
8
0
10
82.9640952
20
21.5084071
11
65.4747557
21
22.1191483
0
LINE
8
0
10
65.4747557
20
22.1191483
11
64.898914
21
5.6291997
0
LINE
8
0
10
65.4922054
20
22.6188438
11
82.9815449
21
22.0081026
0
LINE
8
0
10
82.9815449
20
22.0081026
11
83.5573866
21
38.4980512
0
LINE
8
0
10
83.5573866
20
38.4980512
11
66.0680471
21
39.1087924
0
LINE
8
0
10
66.0680471
20
39.1087924
11
65.4922054
21
22.6188438
0
LINE
8
0
10
66.0854969
20
39.6084878
11
83.5748364
21
38.9977466
0
LINE
8
0
10
83.5748364
20
38.9977466
11
84.1506781
21
55.4876952
0
LINE
8
0
10
84.1506781
20
55.4876952
11
66.6613386
21
56.0984364
0
LINE
8
0
10
66.6613386
20
56.0984364
11
66.0854969
21
39.6084878
0
LINE
8
0
10
83.6935887
20
11.4460644
11
101.1269959
21
9.9208389
0
LINE
8
0
10
101.1269959
20
9.9208389
11
102.5650657
21
26.3580514
0
LINE
8
0
10
102.5650657
20
26.3580514
11
85.1316585
21
27.8832769
0
LINE
8
0
10
85.1316585
20
27.8832769
11
83.6935887
21
11.4460644
0
LINE
8
0
10
85.1752364
20
28.3813742
11
102.6086436
21
26.8561487
0
LINE
8
0
10
102.6086436
20
26.8561487
11
104.0467134
21
43.2933612
0
LINE
8
0
10
104.0467134
20
43.2933612
11
86.6133062
21
44.8185867
0
LINE
8
0
10
86.6133062
20
44.8185867
11
85.1752364
21
28.3813742
0
LINE
8
0
10
86.656884
20
45.3166841
11
104.0902912
21
43.7914586
0
LINE
8
0
10
104.0902912
20
43.7914586
11
105.528361
21
60.2286711
0
LINE
8
0
10
105.528361
20
60.2286711
11
88.0949538
21
61.7538966
0
LINE
8
0
10
88.0949538
20
61.7538966
11
86.656884
21
45.3166841
0
LINE
8
0
10
101.7210683
20
4.3169837
11
119.0507595
21
1.8814544
0
LINE
8
0
10
119.0507595
20
1.8814544
11
121.3471157
21
18.2208775
0
LINE
8
0
10
121.3471157
20
18.2208775
11
104.0174245
21
20.6564068
0
LINE
8
0
10
104.0174245
20
20.6564068
11
101.7210683
21
4.3169837
0
LINE
8
0
10
104.0870111
20
21.1515409
11
121.4167023
21
18.7160116
0
LINE
8
0
10
121.4167023
20
18.7160116
11
123.7130585
21
35.0554347
0
LINE
8
0
10
123.7130585
20
35.0554347
11
106.3833673
21
37.490964
0
LINE
8
0
10
106.3833673
20
37.490964
11
104.0870111
21
21.1515409
0
LINE
8
0
10
106.4529539
20
37.9860981
11
123.7826451
21
35.5505688
0
LINE
8
0
10
123.7826451
20
35.5505688
11
126.0790013
21
51.8899919
0
LINE
8
0
10
126.0790013
20
51.8899919
11
108.7493101
21
54.3255212
0
LINE
8
0
10
108.7493101
20
54.3255212
11
106.4529539
21
37.9860981
0
LINE
8
0
10
119.2675475
20
-0.1686682
11
136.5972387
21
-2.6041975
0
LINE
8
0
10
136.5972387
20
-2.6041975
11
138.8935949
21
13.7352256
0
LINE
8
0
10
138.8935949
20
13.7352256
11
121.5639037
21
16.1707549
0
LINE
8
0
10
121.5639037
20
16.1707549
11
119.2675475
21
-0.1686682
0
LINE
8
0
10
121.6334901
20
16.6658889
11
138.9631813
21
14.2303596
0
LINE
8
0
10
138.9631813
20
14.2303596
11
141.2595375
21
30.5697827
0
LINE
8
0
10
141.2595375
20
30.5697827
11
123.9298463
21
33.005312
0
LINE
8
0
10
123.9298463
20
33.005312
11
121.6334901
21
16.6658889
0
LINE
8
0
10
123.9994328
20
33.5004461
11
141.329124
21
31.0649168
0
LINE
8
0
10
141.329124
20
31.0649168
11
143.6254802
21
47.4043399
0
LINE
8
0
10
143.6254802
20
47.4043399
11
126.295789
21
49.8398692
0
LINE
8
0
10
126.295789
20
49.8398692
11
123.9994328
21
33.5004461
0
LINE
8
0
10
82.0834568
20
-6.0083756
11
99.516864
21
-7.5336011
0
LINE
8
0
10
99.516864
20
-7.5336011
11
100.9549338
21
8.9036114
0
LINE
8
0
10
100.9549338
20
8.9036114
11
83.5215266
21
10.4288369
0
LINE
8
0
10
83.5215266
20
10.4288369
11
82.0834568
21
-6.0083756
0
LINE
8
0
10
99.1147417
20
-13.0503006
11
116.4444329
21
-15.4858299
0
LINE
8
0
10
116.4444329
20
-15.4858299
11
118.7407891
21
0.8535932
0
LINE
8
0
10
118.7407891
20
0.8535932
11
101.4110979
21
3.2891225
0
LINE
8
0
10
101.4110979
20
3.2891225
11
99.1147417
21
-13.0503006
0
LINE
8
0
10
26.1815046
20
-11.6811966
11
26.1815046
21
14.8188034
0
LINE
8
0
10
26.1815046
20
14.8188034
11
9.6815046
21
14.8188034
0
LINE
8
0
10
9.6815046
20
14.8188034
11
9.6815046
21
-11.6811966
0
LINE
8
0
10
9.6815046
20
-11.6811966
11
26.1815046
21
-11.6811966
0
LINE
8
0
10
80.9288219
20
-22.4473395
11
81.8536586
21
4.0365174
0
LINE
8
0
10
81.8536586
20
4.0365174
11
65.3637099
21
4.6123591
0
LINE
8
0
10
65.3637099
20
4.6123591
11
64.4388732
21
-21.8714978
0
LINE
8
0
10
64.4388732
20
-21.8714978
11
80.9288219
21
-22.4473395
0
LINE
8
0
10
132.104047
20
-29.8045759
11
135.7921342
21
-3.5624721
0
LINE
8
0
10
135.7921342
20
-3.5624721
11
119.452711
21
-1.2661159
0
LINE
8
0
10
119.452711
20
-1.2661159
11
115.7646238
21
-27.5082197
0
LINE
8
0
10
115.7646238
20
-27.5082197
11
132.104047
21
-29.8045759
0
ENDSEC
0
EOF